<svg xmlns="http://www.w3.org/2000/svg" xmlns:xlink="http://www.w3.org/1999/xlink" width="320" zoomAndPan="magnify" viewBox="0 0 240 74.999997" height="100" preserveAspectRatio="xMidYMid meet" version="1.0"><defs><filter x="0%" y="0%" width="100%" height="100%" id="38087b1442"><feColorMatrix values="0 0 0 0 1 0 0 0 0 1 0 0 0 0 1 0 0 0 1 0" color-interpolation-filters="sRGB"/></filter><filter x="0%" y="0%" width="100%" height="100%" id="0a2588f3f7"><feColorMatrix values="0 0 0 0 1 0 0 0 0 1 0 0 0 0 1 0 0 0 -1 1" color-interpolation-filters="sRGB"/></filter><filter x="0%" y="0%" width="100%" height="100%" id="cc6779780e"><feImage x="0" y="0" result="source" width="345.6" xlink:href="#8300d714bb" height="107.999996"/><feImage x="0" y="0" result="destination" width="345.6" xlink:href="#034ffa11c2" height="107.999996"/><feBlend in2="destination" mode="multiply" color-interpolation-filters="sRGB" in="source"/></filter><filter x="0%" y="0%" width="100%" height="100%" id="10a562e037"><feImage x="0" y="0" result="source" width="345.6" xlink:href="#674e246f00" height="107.999996"/><feImage x="0" y="0" result="destination" width="345.6" xlink:href="#2d59d0450a" height="107.999996"/><feComposite color-interpolation-filters="sRGB" in="source" k1="0" k2="1" k3="1" k4="0" in2="destination" operator="arithmetic"/></filter><filter x="0%" y="0%" width="100%" height="100%" id="79da1f6168"><feImage x="0" y="0" result="source" width="345.6" xlink:href="#1829f1dd35" height="107.999996"/><feImage x="0" y="0" result="destination" width="345.6" xlink:href="#80d2bcc65a" height="107.999996"/><feBlend in2="destination" mode="multiply" color-interpolation-filters="sRGB" in="source"/></filter><filter x="0%" y="0%" width="100%" height="100%" id="31cf0ac148"><feImage x="0" y="0" result="source" width="345.6" xlink:href="#bd78a43b0e" height="107.999996"/><feImage x="0" y="0" result="destination" width="345.6" xlink:href="#52738ac5e7" height="107.999996"/><feComposite color-interpolation-filters="sRGB" in="source" k1="0" k2="1" k3="1" k4="0" in2="destination" operator="arithmetic"/></filter><filter x="0%" y="0%" width="100%" height="100%" id="575da0a2d9"><feImage x="0" y="0" result="source" width="345.6" xlink:href="#d2d7ef7768" height="107.999996"/><feImage x="0" y="0" result="destination" width="345.6" xlink:href="#4c45f76cb0" height="107.999996"/><feBlend in2="destination" mode="multiply" color-interpolation-filters="sRGB" in="source"/></filter><filter x="0%" y="0%" width="100%" height="100%" id="b067ed270e"><feImage x="0" y="0" result="source" width="345.6" xlink:href="#8dbc7bf352" height="107.999996"/><feImage x="0" y="0" result="destination" width="345.6" xlink:href="#4938c7fc21" height="107.999996"/><feComposite color-interpolation-filters="sRGB" in="source" k1="0" k2="1" k3="1" k4="0" in2="destination" operator="arithmetic"/></filter><filter x="0%" y="0%" width="100%" height="100%" id="c81254d3c2"><feImage x="0" y="0" result="source" width="345.6" xlink:href="#160e87dd28" height="107.999996"/><feImage x="0" y="0" result="destination" width="345.6" xlink:href="#e36d19adc4" height="107.999996"/><feBlend in2="destination" mode="multiply" color-interpolation-filters="sRGB" in="source"/></filter><filter x="0%" y="0%" width="100%" height="100%" id="8b366c02bd"><feImage x="0" y="0" result="source" width="345.6" xlink:href="#b6b0553c12" height="107.999996"/><feImage x="0" y="0" result="destination" width="345.6" xlink:href="#7e5de29260" height="107.999996"/><feComposite color-interpolation-filters="sRGB" in="source" k1="0" k2="1" k3="1" k4="0" in2="destination" operator="arithmetic"/></filter><filter x="0%" y="0%" width="100%" height="100%" id="a11149efc5"><feImage x="0" y="0" result="source" width="345.6" xlink:href="#8a795c75d9" height="107.999996"/><feImage x="0" y="0" result="destination" width="345.6" xlink:href="#c4373fb977" height="107.999996"/><feBlend in2="destination" mode="multiply" color-interpolation-filters="sRGB" in="source"/></filter><filter x="0%" y="0%" width="100%" height="100%" id="97a91a6605"><feImage x="0" y="0" result="source" width="345.6" xlink:href="#bba68f3ff8" height="107.999996"/><feImage x="0" y="0" result="destination" width="345.6" xlink:href="#b1e6013693" height="107.999996"/><feComposite color-interpolation-filters="sRGB" in="source" k1="0" k2="1" k3="1" k4="0" in2="destination" operator="arithmetic"/></filter><filter x="0%" y="0%" width="100%" height="100%" id="84415d8ea9"><feImage x="0" y="0" result="source" width="345.6" xlink:href="#e2a77c7f04" height="107.999996"/><feImage x="0" y="0" result="destination" width="345.6" xlink:href="#135b5f22b4" height="107.999996"/><feBlend in2="destination" mode="multiply" color-interpolation-filters="sRGB" in="source"/></filter><filter x="0%" y="0%" width="100%" height="100%" id="b0f1fa2bae"><feImage x="0" y="0" result="source" width="345.6" xlink:href="#d461489c82" height="107.999996"/><feImage x="0" y="0" result="destination" width="345.6" xlink:href="#e5d3d2cfb5" height="107.999996"/><feComposite color-interpolation-filters="sRGB" in="source" k1="0" k2="1" k3="1" k4="0" in2="destination" operator="arithmetic"/></filter><filter x="0%" y="0%" width="100%" height="100%" id="bc4ad72468"><feImage x="0" y="0" result="source" width="345.6" xlink:href="#e901d42ffb" height="107.999996"/><feImage x="0" y="0" result="destination" width="345.6" xlink:href="#a3dc6bc118" height="107.999996"/><feBlend in2="destination" mode="multiply" color-interpolation-filters="sRGB" in="source"/></filter><filter x="0%" y="0%" width="100%" height="100%" id="1d9223daa4"><feImage x="0" y="0" result="source" width="345.6" xlink:href="#59ce623f3b" height="107.999996"/><feImage x="0" y="0" result="destination" width="345.6" xlink:href="#32140d41f4" height="107.999996"/><feComposite color-interpolation-filters="sRGB" in="source" k1="0" k2="1" k3="1" k4="0" in2="destination" operator="arithmetic"/></filter><filter x="0%" y="0%" width="100%" height="100%" id="61d31d5d09"><feImage x="0" y="0" result="source" width="345.6" xlink:href="#72bb7292ea" height="107.999996"/><feImage x="0" y="0" result="destination" width="345.6" xlink:href="#029e62d040" height="107.999996"/><feBlend in2="destination" mode="multiply" color-interpolation-filters="sRGB" in="source"/></filter><filter x="0%" y="0%" width="100%" height="100%" id="47b521bef7"><feImage x="0" y="0" result="source" width="345.6" xlink:href="#1edf9b5ffb" height="107.999996"/><feImage x="0" y="0" result="destination" width="345.6" xlink:href="#90e07d93a0" height="107.999996"/><feComposite color-interpolation-filters="sRGB" in="source" k1="0" k2="1" k3="1" k4="0" in2="destination" operator="arithmetic"/></filter><g/><clipPath id="2037621ed1"><path d="M 149.039062 10.796875 L 191.039062 10.796875 L 191.039062 64.046875 L 149.039062 64.046875 Z M 149.039062 10.796875 " clip-rule="nonzero"/></clipPath><mask id="8421df7cbd"><g filter="url(#38087b1442)"><rect x="-201.8" width="345.6" fill="#000000" y="-26.499999" height="107.999996" fill-opacity="0.35"/></g></mask><clipPath id="6333d51c8e"><path d="M 0.0390625 0.28125 L 36 0.28125 L 36 47 L 0.0390625 47 Z M 0.0390625 0.28125 " clip-rule="nonzero"/></clipPath><clipPath id="55d56a7ff5"><rect x="0" width="37" y="0" height="48"/></clipPath><mask id="de1cf3c4fd"><g><g transform="translate(201.8, 26.499999)"><rect x="-201.8" width="345.6" fill="#000000" height="107.999996" y="-26.499999" fill-opacity="0"/><clipPath id="1b00af12cc"><path d="M 0.0390625 7 L 37 7 L 37 54.046875 L 0.0390625 54.046875 Z M 0.0390625 7 " clip-rule="nonzero"/></clipPath><g clip-path="url(#1b00af12cc)"><rect x="-201.8" width="345.6" fill="#ffffff" height="107.999996" y="-26.499999" fill-opacity="1"/></g></g></g></mask><mask id="2cd13029ad"><g filter="url(#0a2588f3f7)"><g transform="translate(201.8, 26.499999)"><rect x="-201.8" width="345.6" fill="#000000" height="107.999996" y="-26.499999" fill-opacity="0"/><g clip-path="url(#1b00af12cc)"><rect x="-201.8" width="345.6" fill="#ffffff" height="107.999996" y="-26.499999" fill-opacity="1"/></g></g></g></mask><mask id="988b53fc75"><g transform="translate(201.8, 26.499999)"><g mask="url(#8421df7cbd)"><rect x="-201.8" width="345.6" fill="#ffffff" y="-26.499999" height="107.999996" fill-opacity="1"/></g></g></mask><g id="8300d714bb" mask="url(#988b53fc75)"><g transform="translate(201.8, 26.499999)"><g transform="matrix(1, 0, 0, 1, 0, 7)"><g clip-path="url(#55d56a7ff5)"><g clip-path="url(#6333d51c8e)"><path fill="#acace8" d="M 17.625 0.484375 L 0.0390625 0.484375 L 17.757812 24.769531 L 0.0390625 46.847656 L 17.625 46.847656 L 35.351562 24.769531 Z M 17.625 0.484375 " fill-opacity="1" fill-rule="nonzero"/></g></g></g></g></g><g id="034ffa11c2" transform="translate(201.8, 26.499999)"/><g id="674e246f00" mask="url(#de1cf3c4fd)" filter="url(#cc6779780e)"><rect x="0" width="345.6" fill="#000000" y="0" height="107.999996" fill-opacity="1"/></g><g id="2d59d0450a" mask="url(#2cd13029ad)"><g><g transform="translate(201.8, 26.499999)"/></g></g><mask id="6ec3917e94"><g filter="url(#38087b1442)"><rect x="-201.8" width="345.6" fill="#000000" y="-26.499999" height="107.999996" fill-opacity="0.5"/></g></mask><clipPath id="3b45357c73"><path d="M 0.0390625 0.796875 L 42.039062 0.796875 L 42.039062 54.046875 L 0.0390625 54.046875 Z M 0.0390625 0.796875 " clip-rule="nonzero"/></clipPath><clipPath id="2d2857aa0d"><rect x="0" width="43" y="0" height="55"/></clipPath><mask id="d98b1f50c5"><g><g transform="translate(201.8, 26.499999)"><rect x="-201.8" width="345.6" fill="#000000" height="107.999996" y="-26.499999" fill-opacity="0"/><clipPath id="418233d49c"><path d="M 0.0390625 0.796875 L 42.039062 0.796875 L 42.039062 54.046875 L 0.0390625 54.046875 Z M 0.0390625 0.796875 " clip-rule="nonzero"/></clipPath><g clip-path="url(#418233d49c)"><rect x="-201.8" width="345.6" fill="#ffffff" height="107.999996" y="-26.499999" fill-opacity="1"/></g></g></g></mask><mask id="186dd56698"><g filter="url(#0a2588f3f7)"><g transform="translate(201.8, 26.499999)"><rect x="-201.8" width="345.6" fill="#000000" height="107.999996" y="-26.499999" fill-opacity="0"/><g clip-path="url(#418233d49c)"><rect x="-201.8" width="345.6" fill="#ffffff" height="107.999996" y="-26.499999" fill-opacity="1"/></g></g></g></mask><mask id="a276677b17"><g transform="translate(201.8, 26.499999)"><g mask="url(#6ec3917e94)"><rect x="-201.8" width="345.6" fill="#ffffff" y="-26.499999" height="107.999996" fill-opacity="1"/></g></g></mask><g id="1829f1dd35" mask="url(#a276677b17)"><g transform="translate(201.8, 26.499999)"><g transform="matrix(1, 0, 0, 1, 0, -0.000000000000001776)"><g clip-path="url(#2d2857aa0d)"><g clip-path="url(#3b45357c73)"><path stroke-linecap="butt" transform="matrix(0.899534, 0, 0, 0.899534, 0.0376196, 1.187281)" fill="none" stroke-linejoin="miter" d="M 14.340622 48.549673 L 30.737996 28.109408 L 13.871629 4.99849 L 23.52072 4.99849 L 40.222071 27.879254 L 23.637968 48.549673 Z M 14.340622 48.549673 " stroke="#2f215b" stroke-width="3" stroke-opacity="1" stroke-miterlimit="10"/></g></g></g></g></g><g id="80d2bcc65a" transform="translate(201.8, 26.499999)"><g transform="translate(-201.8, -26.499999)" filter="url(#10a562e037)"><rect x="0" width="345.6" fill="#000000" y="0" height="107.999996" fill-opacity="1"/></g><path fill="#a5502b" d="M 22.121094 2.988281 L 4.535156 2.988281 L 22.257812 27.273438 L 4.535156 49.347656 L 22.121094 49.347656 L 39.851562 27.273438 Z M 22.121094 2.988281 " fill-opacity="1" fill-rule="nonzero"/><path fill="#5cfb98" d="M 23.921875 1.1875 L 6.335938 1.1875 L 24.054688 25.476562 L 6.335938 47.550781 L 23.921875 47.550781 L 41.648438 25.476562 Z M 23.921875 1.1875 " fill-opacity="1" fill-rule="nonzero"/></g><g id="bd78a43b0e" mask="url(#d98b1f50c5)" filter="url(#79da1f6168)"><rect x="0" width="345.6" fill="#000000" y="0" height="107.999996" fill-opacity="1"/></g><g id="52738ac5e7" mask="url(#186dd56698)"><g><g transform="translate(201.8, 26.499999)"><g transform="translate(-201.8, -26.499999)" filter="url(#10a562e037)"><rect x="0" width="345.6" fill="#000000" height="107.999996" y="0" fill-opacity="1"/></g><path fill="#a5502b" d="M 22.121094 2.988281 L 4.535156 2.988281 L 22.257812 27.273438 L 4.535156 49.347656 L 22.121094 49.347656 L 39.851562 27.273438 Z M 22.121094 2.988281 " fill-opacity="1" fill-rule="nonzero"/><path fill="#5cfb98" d="M 23.921875 1.1875 L 6.335938 1.1875 L 24.054688 25.476562 L 6.335938 47.550781 L 23.921875 47.550781 L 41.648438 25.476562 Z M 23.921875 1.1875 " fill-opacity="1" fill-rule="nonzero"/></g></g></g><clipPath id="8f7c0df71d"><path d="M 0.0390625 0.796875 L 42.039062 0.796875 L 42.039062 54.046875 L 0.0390625 54.046875 Z M 0.0390625 0.796875 " clip-rule="nonzero"/></clipPath><clipPath id="008420f36a"><rect x="0" width="43" y="0" height="55"/></clipPath><clipPath id="23aead89da"><path d="M 173.53125 10.796875 L 215.53125 10.796875 L 215.53125 64.046875 L 173.53125 64.046875 Z M 173.53125 10.796875 " clip-rule="nonzero"/></clipPath><mask id="a971dd7737"><g filter="url(#38087b1442)"><rect x="-225.8" width="345.6" fill="#000000" y="-26.499999" height="107.999996" fill-opacity="0.35"/></g></mask><clipPath id="ecda003b35"><path d="M 0.53125 0.28125 L 36 0.28125 L 36 47 L 0.53125 47 Z M 0.53125 0.28125 " clip-rule="nonzero"/></clipPath><clipPath id="32cf3a4a2a"><rect x="0" width="37" y="0" height="48"/></clipPath><mask id="8c9595b545"><g><g transform="translate(225.8, 26.499999)"><rect x="-225.8" width="345.6" fill="#000000" height="107.999996" y="-26.499999" fill-opacity="0"/><clipPath id="f4c82c27ff"><path d="M 0.53125 7 L 37 7 L 37 54.046875 L 0.53125 54.046875 Z M 0.53125 7 " clip-rule="nonzero"/></clipPath><g clip-path="url(#f4c82c27ff)"><rect x="-225.8" width="345.6" fill="#ffffff" height="107.999996" y="-26.499999" fill-opacity="1"/></g></g></g></mask><mask id="e4e7540154"><g filter="url(#0a2588f3f7)"><g transform="translate(225.8, 26.499999)"><rect x="-225.8" width="345.6" fill="#000000" height="107.999996" y="-26.499999" fill-opacity="0"/><g clip-path="url(#f4c82c27ff)"><rect x="-225.8" width="345.6" fill="#ffffff" height="107.999996" y="-26.499999" fill-opacity="1"/></g></g></g></mask><mask id="dd12bfaafc"><g transform="translate(225.8, 26.499999)"><g mask="url(#a971dd7737)"><rect x="-225.8" width="345.6" fill="#ffffff" y="-26.499999" height="107.999996" fill-opacity="1"/></g></g></mask><g id="d2d7ef7768" mask="url(#dd12bfaafc)"><g transform="translate(225.8, 26.499999)"><g transform="matrix(1, 0, 0, 1, 0, 7)"><g clip-path="url(#32cf3a4a2a)"><g clip-path="url(#ecda003b35)"><path fill="#acace8" d="M 18.117188 0.484375 L 0.53125 0.484375 L 18.25 24.769531 L 0.53125 46.847656 L 18.117188 46.847656 L 35.84375 24.769531 Z M 18.117188 0.484375 " fill-opacity="1" fill-rule="nonzero"/></g></g></g></g></g><g id="4c45f76cb0" transform="translate(225.8, 26.499999)"/><g id="8dbc7bf352" mask="url(#8c9595b545)" filter="url(#575da0a2d9)"><rect x="0" width="345.6" fill="#000000" y="0" height="107.999996" fill-opacity="1"/></g><g id="4938c7fc21" mask="url(#e4e7540154)"><g><g transform="translate(225.8, 26.499999)"/></g></g><clipPath id="8e9dd32775"><path d="M 6 1 L 42.53125 1 L 42.53125 48 L 6 48 Z M 6 1 " clip-rule="nonzero"/></clipPath><mask id="070edec4ad"><g filter="url(#38087b1442)"><rect x="-225.8" width="345.6" fill="#000000" y="-26.499999" height="107.999996" fill-opacity="0.5"/></g></mask><clipPath id="cef7d1f02b"><path d="M 0.53125 0.796875 L 42.53125 0.796875 L 42.53125 54.046875 L 0.53125 54.046875 Z M 0.53125 0.796875 " clip-rule="nonzero"/></clipPath><clipPath id="c33e3e4909"><rect x="0" width="43" y="0" height="55"/></clipPath><mask id="81e29c950a"><g><g transform="translate(225.8, 26.499999)"><rect x="-225.8" width="345.6" fill="#000000" height="107.999996" y="-26.499999" fill-opacity="0"/><clipPath id="738dc057fa"><path d="M 0.53125 0.796875 L 42.53125 0.796875 L 42.53125 54.046875 L 0.53125 54.046875 Z M 0.53125 0.796875 " clip-rule="nonzero"/></clipPath><g clip-path="url(#738dc057fa)"><rect x="-225.8" width="345.6" fill="#ffffff" height="107.999996" y="-26.499999" fill-opacity="1"/></g></g></g></mask><mask id="76b84675f0"><g filter="url(#0a2588f3f7)"><g transform="translate(225.8, 26.499999)"><rect x="-225.8" width="345.6" fill="#000000" height="107.999996" y="-26.499999" fill-opacity="0"/><g clip-path="url(#738dc057fa)"><rect x="-225.8" width="345.6" fill="#ffffff" height="107.999996" y="-26.499999" fill-opacity="1"/></g></g></g></mask><mask id="5f6ff92781"><g transform="translate(225.8, 26.499999)"><g mask="url(#070edec4ad)"><rect x="-225.8" width="345.6" fill="#ffffff" y="-26.499999" height="107.999996" fill-opacity="1"/></g></g></mask><g id="160e87dd28" mask="url(#5f6ff92781)"><g transform="translate(225.8, 26.499999)"><g transform="matrix(1, 0, 0, 1, 0, -0.000000000000001776)"><g clip-path="url(#c33e3e4909)"><g clip-path="url(#cef7d1f02b)"><path stroke-linecap="butt" transform="matrix(0.899534, 0, 0, 0.899534, 0.529424, 1.187281)" fill="none" stroke-linejoin="miter" d="M 14.341047 48.549673 L 30.738422 28.109408 L 13.872055 4.99849 L 23.521145 4.99849 L 40.218154 27.879254 L 23.638393 48.549673 Z M 14.341047 48.549673 " stroke="#2f215b" stroke-width="3" stroke-opacity="1" stroke-miterlimit="10"/></g></g></g></g></g><g id="e36d19adc4" transform="translate(225.8, 26.499999)"><g transform="translate(-225.8, -26.499999)" filter="url(#b067ed270e)"><rect x="0" width="345.6" fill="#000000" y="0" height="107.999996" fill-opacity="1"/></g><path fill="#a5502b" d="M 22.613281 2.988281 L 5.027344 2.988281 L 22.746094 27.273438 L 5.027344 49.347656 L 22.613281 49.347656 L 40.34375 27.273438 Z M 22.613281 2.988281 " fill-opacity="1" fill-rule="nonzero"/><g clip-path="url(#8e9dd32775)"><path fill="#5cfb98" d="M 24.410156 1.1875 L 6.824219 1.1875 L 24.546875 25.476562 L 6.824219 47.550781 L 24.410156 47.550781 L 42.140625 25.476562 Z M 24.410156 1.1875 " fill-opacity="1" fill-rule="nonzero"/></g></g><g id="b6b0553c12" mask="url(#81e29c950a)" filter="url(#c81254d3c2)"><rect x="0" width="345.6" fill="#000000" y="0" height="107.999996" fill-opacity="1"/></g><g id="7e5de29260" mask="url(#76b84675f0)"><g><g transform="translate(225.8, 26.499999)"><g transform="translate(-225.8, -26.499999)" filter="url(#b067ed270e)"><rect x="0" width="345.6" fill="#000000" height="107.999996" y="0" fill-opacity="1"/></g><path fill="#a5502b" d="M 22.613281 2.988281 L 5.027344 2.988281 L 22.746094 27.273438 L 5.027344 49.347656 L 22.613281 49.347656 L 40.34375 27.273438 Z M 22.613281 2.988281 " fill-opacity="1" fill-rule="nonzero"/><g clip-path="url(#8e9dd32775)"><path fill="#5cfb98" d="M 24.410156 1.1875 L 6.824219 1.1875 L 24.546875 25.476562 L 6.824219 47.550781 L 24.410156 47.550781 L 42.140625 25.476562 Z M 24.410156 1.1875 " fill-opacity="1" fill-rule="nonzero"/></g></g></g></g><clipPath id="e6a0717c9b"><path d="M 0.53125 0.796875 L 42.53125 0.796875 L 42.53125 54.046875 L 0.53125 54.046875 Z M 0.53125 0.796875 " clip-rule="nonzero"/></clipPath><clipPath id="782875b69e"><rect x="0" width="43" y="0" height="55"/></clipPath><clipPath id="637448175c"><path d="M 198.34375 10.796875 L 240 10.796875 L 240 64.046875 L 198.34375 64.046875 Z M 198.34375 10.796875 " clip-rule="nonzero"/></clipPath><mask id="e4722c8411"><g filter="url(#38087b1442)"><rect x="-250.8" width="345.6" fill="#000000" y="-26.499999" height="107.999996" fill-opacity="0.35"/></g></mask><clipPath id="d6cac2096b"><path d="M 0.34375 0.28125 L 36 0.28125 L 36 47 L 0.34375 47 Z M 0.34375 0.28125 " clip-rule="nonzero"/></clipPath><clipPath id="554d6213cd"><rect x="0" width="37" y="0" height="48"/></clipPath><mask id="071b3ef2be"><g><g transform="translate(250.8, 26.499999)"><rect x="-250.8" width="345.6" fill="#000000" height="107.999996" y="-26.499999" fill-opacity="0"/><clipPath id="8a14ab4df6"><path d="M 0.34375 7 L 37 7 L 37 54.046875 L 0.34375 54.046875 Z M 0.34375 7 " clip-rule="nonzero"/></clipPath><g clip-path="url(#8a14ab4df6)"><rect x="-250.8" width="345.6" fill="#ffffff" height="107.999996" y="-26.499999" fill-opacity="1"/></g></g></g></mask><mask id="a2a315b97d"><g filter="url(#0a2588f3f7)"><g transform="translate(250.8, 26.499999)"><rect x="-250.8" width="345.6" fill="#000000" height="107.999996" y="-26.499999" fill-opacity="0"/><g clip-path="url(#8a14ab4df6)"><rect x="-250.8" width="345.6" fill="#ffffff" height="107.999996" y="-26.499999" fill-opacity="1"/></g></g></g></mask><mask id="379007ceaf"><g transform="translate(250.8, 26.499999)"><g mask="url(#e4722c8411)"><rect x="-250.8" width="345.6" fill="#ffffff" y="-26.499999" height="107.999996" fill-opacity="1"/></g></g></mask><g id="8a795c75d9" mask="url(#379007ceaf)"><g transform="translate(250.8, 26.499999)"><g transform="matrix(1, 0, 0, 1, 0, 7)"><g clip-path="url(#554d6213cd)"><g clip-path="url(#d6cac2096b)"><path fill="#acace8" d="M 17.929688 0.484375 L 0.34375 0.484375 L 18.066406 24.769531 L 0.34375 46.847656 L 17.929688 46.847656 L 35.660156 24.769531 Z M 17.929688 0.484375 " fill-opacity="1" fill-rule="nonzero"/></g></g></g></g></g><g id="c4373fb977" transform="translate(250.8, 26.499999)"/><g id="bba68f3ff8" mask="url(#071b3ef2be)" filter="url(#a11149efc5)"><rect x="0" width="345.6" fill="#000000" y="0" height="107.999996" fill-opacity="1"/></g><g id="b1e6013693" mask="url(#a2a315b97d)"><g><g transform="translate(250.8, 26.499999)"/></g></g><mask id="ee7b73b370"><g filter="url(#38087b1442)"><rect x="-250.8" width="345.6" fill="#000000" y="-26.499999" height="107.999996" fill-opacity="0.5"/></g></mask><clipPath id="8f868a6eec"><path d="M 0.34375 0.796875 L 42 0.796875 L 42 54.046875 L 0.34375 54.046875 Z M 0.34375 0.796875 " clip-rule="nonzero"/></clipPath><clipPath id="6fe0098289"><rect x="0" width="42" y="0" height="55"/></clipPath><mask id="8c09aa2c99"><g><g transform="translate(250.8, 26.499999)"><rect x="-250.8" width="345.6" fill="#000000" height="107.999996" y="-26.499999" fill-opacity="0"/><clipPath id="bcaad5fbb3"><path d="M 0.34375 0.796875 L 42 0.796875 L 42 54.046875 L 0.34375 54.046875 Z M 0.34375 0.796875 " clip-rule="nonzero"/></clipPath><g clip-path="url(#bcaad5fbb3)"><rect x="-250.8" width="345.6" fill="#ffffff" height="107.999996" y="-26.499999" fill-opacity="1"/></g></g></g></mask><mask id="a164245d7d"><g filter="url(#0a2588f3f7)"><g transform="translate(250.8, 26.499999)"><rect x="-250.8" width="345.6" fill="#000000" height="107.999996" y="-26.499999" fill-opacity="0"/><g clip-path="url(#bcaad5fbb3)"><rect x="-250.8" width="345.6" fill="#ffffff" height="107.999996" y="-26.499999" fill-opacity="1"/></g></g></g></mask><mask id="2626777cb6"><g transform="translate(250.8, 26.499999)"><g mask="url(#ee7b73b370)"><rect x="-250.8" width="345.6" fill="#ffffff" y="-26.499999" height="107.999996" fill-opacity="1"/></g></g></mask><g id="e2a77c7f04" mask="url(#2626777cb6)"><g transform="translate(250.8, 26.499999)"><g transform="matrix(1, 0, 0, 1, 0, -0.000000000000001776)"><g clip-path="url(#6fe0098289)"><g clip-path="url(#8f868a6eec)"><path stroke-linecap="butt" transform="matrix(0.899534, 0, 0, 0.899534, 0.344066, 1.187281)" fill="none" stroke-linejoin="miter" d="M 14.338667 48.549673 L 30.740384 28.109408 L 13.869674 4.99849 L 23.518764 4.99849 L 40.220116 27.879254 L 23.640355 48.549673 Z M 14.338667 48.549673 " stroke="#2f215b" stroke-width="3" stroke-opacity="1" stroke-miterlimit="10"/></g></g></g></g></g><g id="135b5f22b4" transform="translate(250.8, 26.499999)"><g transform="translate(-250.8, -26.499999)" filter="url(#97a91a6605)"><rect x="0" width="345.6" fill="#000000" y="0" height="107.999996" fill-opacity="1"/></g><path fill="#a5502b" d="M 22.425781 2.988281 L 4.839844 2.988281 L 22.5625 27.273438 L 4.839844 49.347656 L 22.425781 49.347656 L 40.15625 27.273438 Z M 22.425781 2.988281 " fill-opacity="1" fill-rule="nonzero"/><path fill="#5cfb98" d="M 24.226562 1.1875 L 6.640625 1.1875 L 24.363281 25.476562 L 6.640625 47.550781 L 24.226562 47.550781 L 41.957031 25.476562 Z M 24.226562 1.1875 " fill-opacity="1" fill-rule="nonzero"/></g><g id="d461489c82" mask="url(#8c09aa2c99)" filter="url(#84415d8ea9)"><rect x="0" width="345.6" fill="#000000" y="0" height="107.999996" fill-opacity="1"/></g><g id="e5d3d2cfb5" mask="url(#a164245d7d)"><g><g transform="translate(250.8, 26.499999)"><g transform="translate(-250.8, -26.499999)" filter="url(#97a91a6605)"><rect x="0" width="345.6" fill="#000000" height="107.999996" y="0" fill-opacity="1"/></g><path fill="#a5502b" d="M 22.425781 2.988281 L 4.839844 2.988281 L 22.5625 27.273438 L 4.839844 49.347656 L 22.425781 49.347656 L 40.15625 27.273438 Z M 22.425781 2.988281 " fill-opacity="1" fill-rule="nonzero"/><path fill="#5cfb98" d="M 24.226562 1.1875 L 6.640625 1.1875 L 24.363281 25.476562 L 6.640625 47.550781 L 24.226562 47.550781 L 41.957031 25.476562 Z M 24.226562 1.1875 " fill-opacity="1" fill-rule="nonzero"/></g></g></g><clipPath id="7010c0883b"><path d="M 0.34375 0.796875 L 42 0.796875 L 42 54.046875 L 0.34375 54.046875 Z M 0.34375 0.796875 " clip-rule="nonzero"/></clipPath><clipPath id="d55733cbac"><rect x="0" width="42" y="0" height="55"/></clipPath><clipPath id="58b79d4cd6"><path d="M 0 10.796875 L 166.5 10.796875 L 166.5 64.046875 L 0 64.046875 Z M 0 10.796875 " clip-rule="nonzero"/></clipPath><mask id="06ebcb7581"><g filter="url(#38087b1442)"><rect x="-52.8" width="345.6" fill="#000000" y="-26.499999" height="107.999996" fill-opacity="0.35"/></g></mask><clipPath id="b8a7d3abc9"><path d="M 0 0.28125 L 160 0.28125 L 160 47.046875 L 0 47.046875 Z M 0 0.28125 " clip-rule="nonzero"/></clipPath><clipPath id="d625fe767d"><rect x="0" width="161" y="0" height="48"/></clipPath><mask id="bfe7e5728a"><g><g transform="translate(52.8, 26.499999)"><rect x="-52.8" width="345.6" fill="#000000" height="107.999996" y="-26.499999" fill-opacity="0"/><clipPath id="d2a24d2319"><path d="M 0 7 L 161 7 L 161 54.046875 L 0 54.046875 Z M 0 7 " clip-rule="nonzero"/></clipPath><g clip-path="url(#d2a24d2319)"><rect x="-52.8" width="345.6" fill="#ffffff" height="107.999996" y="-26.499999" fill-opacity="1"/></g></g></g></mask><mask id="2e378a66c7"><g filter="url(#0a2588f3f7)"><g transform="translate(52.8, 26.499999)"><rect x="-52.8" width="345.6" fill="#000000" height="107.999996" y="-26.499999" fill-opacity="0"/><g clip-path="url(#d2a24d2319)"><rect x="-52.8" width="345.6" fill="#ffffff" height="107.999996" y="-26.499999" fill-opacity="1"/></g></g></g></mask><mask id="4ef8d69e67"><g transform="translate(52.8, 26.499999)"><g mask="url(#06ebcb7581)"><rect x="-52.8" width="345.6" fill="#ffffff" y="-26.499999" height="107.999996" fill-opacity="1"/></g></g></mask><g id="e901d42ffb" mask="url(#4ef8d69e67)"><g transform="translate(52.8, 26.499999)"><g transform="matrix(1, 0, 0, 1, 0, 7)"><g clip-path="url(#d625fe767d)"><g clip-path="url(#b8a7d3abc9)"><path fill="#acace8" d="M 142.023438 47.003906 L 0 47.003906 L 0 0.363281 L 142.023438 0.363281 L 159.859375 24.796875 Z M 142.023438 47.003906 " fill-opacity="1" fill-rule="nonzero"/></g></g></g></g></g><g id="a3dc6bc118" transform="translate(52.8, 26.499999)"/><g id="59ce623f3b" mask="url(#bfe7e5728a)" filter="url(#bc4ad72468)"><rect x="0" width="345.6" fill="#000000" y="0" height="107.999996" fill-opacity="1"/></g><g id="32140d41f4" mask="url(#2e378a66c7)"><g><g transform="translate(52.8, 26.499999)"/></g></g><clipPath id="078226b357"><path d="M 6 1 L 166.5 1 L 166.5 48 L 6 48 Z M 6 1 " clip-rule="nonzero"/></clipPath><mask id="e31646d31c"><g filter="url(#38087b1442)"><rect x="-52.8" width="345.6" fill="#000000" y="-26.499999" height="107.999996" fill-opacity="0.5"/></g></mask><clipPath id="0bd4603dd0"><path d="M 0 0.796875 L 166.5 0.796875 L 166.5 54.046875 L 0 54.046875 Z M 0 0.796875 " clip-rule="nonzero"/></clipPath><clipPath id="fbef0b3a80"><rect x="0" width="167" y="0" height="55"/></clipPath><mask id="bca2ec7791"><g><g transform="translate(52.8, 26.499999)"><rect x="-52.8" width="345.6" fill="#000000" height="107.999996" y="-26.499999" fill-opacity="0"/><clipPath id="f08f08dadb"><path d="M 0 0.796875 L 166.5 0.796875 L 166.5 54.046875 L 0 54.046875 Z M 0 0.796875 " clip-rule="nonzero"/></clipPath><g clip-path="url(#f08f08dadb)"><rect x="-52.8" width="345.6" fill="#ffffff" height="107.999996" y="-26.499999" fill-opacity="1"/></g></g></g></mask><mask id="564d9f8607"><g filter="url(#0a2588f3f7)"><g transform="translate(52.8, 26.499999)"><rect x="-52.8" width="345.6" fill="#000000" height="107.999996" y="-26.499999" fill-opacity="0"/><g clip-path="url(#f08f08dadb)"><rect x="-52.8" width="345.6" fill="#ffffff" height="107.999996" y="-26.499999" fill-opacity="1"/></g></g></g></mask><mask id="952a59c330"><g transform="translate(52.8, 26.499999)"><g mask="url(#e31646d31c)"><rect x="-52.8" width="345.6" fill="#ffffff" y="-26.499999" height="107.999996" fill-opacity="1"/></g></g></mask><g id="72bb7292ea" mask="url(#952a59c330)"><g transform="translate(52.8, 26.499999)"><g transform="matrix(1, 0, 0, 1, 0, -0.000000000000001776)"><g clip-path="url(#fbef0b3a80)"><g clip-path="url(#0bd4603dd0)"><path stroke-linecap="butt" transform="matrix(0.904902, 0, 0, 0.904902, 0.0000048, 1.030279)" fill="none" stroke-linejoin="miter" d="M 10.001943 48.55175 L 10.001943 4.999889 L 160.920429 4.999889 L 177.622 27.878753 L 161.028348 48.55175 Z M 10.001943 48.55175 " stroke="#2f215b" stroke-width="3" stroke-opacity="1" stroke-miterlimit="10"/></g></g></g></g></g><g id="029e62d040" transform="translate(52.8, 26.499999)"><g transform="translate(-52.8, -26.499999)" filter="url(#1d9223daa4)"><rect x="0" width="345.6" fill="#000000" y="0" height="107.999996" fill-opacity="1"/></g><path fill="#a5502b" d="M 146.550781 49.480469 L 4.523438 49.480469 L 4.523438 2.839844 L 146.550781 2.839844 L 164.382812 27.273438 Z M 146.550781 49.480469 " fill-opacity="1" fill-rule="nonzero"/><g clip-path="url(#078226b357)"><path fill="#5cfb98" d="M 148.359375 47.667969 L 6.335938 47.667969 L 6.335938 1.03125 L 148.359375 1.03125 L 166.195312 25.460938 Z M 148.359375 47.667969 " fill-opacity="1" fill-rule="nonzero"/></g></g><g id="1edf9b5ffb" mask="url(#bca2ec7791)" filter="url(#61d31d5d09)"><rect x="0" width="345.6" fill="#000000" y="0" height="107.999996" fill-opacity="1"/></g><g id="90e07d93a0" mask="url(#564d9f8607)"><g><g transform="translate(52.8, 26.499999)"><g transform="translate(-52.8, -26.499999)" filter="url(#1d9223daa4)"><rect x="0" width="345.6" fill="#000000" height="107.999996" y="0" fill-opacity="1"/></g><path fill="#a5502b" d="M 146.550781 49.480469 L 4.523438 49.480469 L 4.523438 2.839844 L 146.550781 2.839844 L 164.382812 27.273438 Z M 146.550781 49.480469 " fill-opacity="1" fill-rule="nonzero"/><g clip-path="url(#078226b357)"><path fill="#5cfb98" d="M 148.359375 47.667969 L 6.335938 47.667969 L 6.335938 1.03125 L 148.359375 1.03125 L 166.195312 25.460938 Z M 148.359375 47.667969 " fill-opacity="1" fill-rule="nonzero"/></g></g></g></g><clipPath id="a5b8baae21"><path d="M 0 0.796875 L 166.5 0.796875 L 166.5 54.046875 L 0 54.046875 Z M 0 0.796875 " clip-rule="nonzero"/></clipPath><clipPath id="5d69b78ed1"><rect x="0" width="167" y="0" height="55"/></clipPath></defs><g clip-path="url(#2037621ed1)"><g transform="matrix(1, 0, 0, 1, 149, 10)"><g clip-path="url(#008420f36a)"><g transform="translate(-201.8, -26.499999)" filter="url(#31cf0ac148)"><rect x="0" width="345.6" fill="#000000" height="107.999996" y="0" fill-opacity="1"/></g><g clip-path="url(#8f7c0df71d)"><path stroke-linecap="butt" transform="matrix(0.899534, 0, 0, 0.899534, 0.0376196, 1.187281)" fill="none" stroke-linejoin="miter" d="M 15.339402 47.550893 L 31.741119 27.110627 L 14.87041 3.999709 L 24.5195 3.999709 L 41.220851 26.880474 L 24.641091 47.550893 Z M 15.339402 47.550893 " stroke="#ffffff" stroke-width="3" stroke-opacity="1" stroke-miterlimit="10"/></g></g></g></g><g clip-path="url(#23aead89da)"><g transform="matrix(1, 0, 0, 1, 173, 10)"><g clip-path="url(#782875b69e)"><g transform="translate(-225.8, -26.499999)" filter="url(#8b366c02bd)"><rect x="0" width="345.6" fill="#000000" height="107.999996" y="0" fill-opacity="1"/></g><g clip-path="url(#e6a0717c9b)"><path stroke-linecap="butt" transform="matrix(0.899534, 0, 0, 0.899534, 0.529424, 1.187281)" fill="none" stroke-linejoin="miter" d="M 15.339828 47.550893 L 31.741545 27.110627 L 14.870835 3.999709 L 24.519926 3.999709 L 41.221277 26.880474 L 24.641517 47.550893 Z M 15.339828 47.550893 " stroke="#ffffff" stroke-width="3" stroke-opacity="1" stroke-miterlimit="10"/></g></g></g></g><g clip-path="url(#637448175c)"><g transform="matrix(1, 0, 0, 1, 198, 10)"><g clip-path="url(#d55733cbac)"><g transform="translate(-250.8, -26.499999)" filter="url(#b0f1fa2bae)"><rect x="0" width="345.6" fill="#000000" height="107.999996" y="0" fill-opacity="1"/></g><g clip-path="url(#7010c0883b)"><path stroke-linecap="butt" transform="matrix(0.899534, 0, 0, 0.899534, 0.344066, 1.187281)" fill="none" stroke-linejoin="miter" d="M 15.34179 47.550893 L 31.739164 27.110627 L 14.868455 3.999709 L 24.521888 3.999709 L 41.218896 26.880474 L 24.639136 47.550893 Z M 15.34179 47.550893 " stroke="#ffffff" stroke-width="3" stroke-opacity="1" stroke-miterlimit="10"/></g></g></g></g><g clip-path="url(#58b79d4cd6)"><g transform="matrix(1, 0, 0, 1, 0, 10)"><g clip-path="url(#5d69b78ed1)"><g transform="translate(-52.8, -26.499999)" filter="url(#47b521bef7)"><rect x="0" width="345.6" fill="#000000" height="107.999996" y="0" fill-opacity="1"/></g><g clip-path="url(#a5b8baae21)"><path stroke-linecap="butt" transform="matrix(0.904902, 0, 0, 0.904902, 0.0000048, 1.030279)" fill="none" stroke-linejoin="miter" d="M 10.999117 47.55026 L 10.999117 3.998399 L 161.921919 3.998399 L 178.619173 26.88158 L 162.029838 47.55026 Z M 10.999117 47.55026 " stroke="#ffffff" stroke-width="3" stroke-opacity="1" stroke-miterlimit="10"/></g></g></g></g><g fill="#0a0a0a" fill-opacity="1"><g transform="translate(28.700265, 41.843208)"><g><path d="M 4.28125 0.046875 L 3.8125 0.015625 L 3.5625 0 L 3.296875 0.015625 L 2.984375 -0.015625 L 2.75 0 L 2.59375 -0.015625 L 2.40625 -0.015625 L 2.125 -0.0625 L 2 -0.078125 L 1.84375 -0.078125 L 1.703125 -0.0625 L 1.09375 -0.0625 L 0.8125 -0.09375 L 0.640625 -0.140625 L 0.640625 -0.609375 L 0.671875 -0.78125 L 0.765625 -1.03125 L 0.8125 -1.3125 L 0.828125 -1.4375 L 0.890625 -1.71875 L 0.921875 -1.921875 L 0.96875 -2.078125 L 0.96875 -2.25 L 1.015625 -2.53125 L 1.03125 -2.6875 L 1.078125 -2.90625 L 1.15625 -3.078125 L 1.1875 -3.265625 L 1.1875 -3.4375 L 1.25 -3.71875 L 1.296875 -3.875 L 1.3125 -4.140625 L 1.328125 -4.265625 L 1.421875 -4.40625 L 1.421875 -4.84375 L 1.46875 -5.125 L 1.5 -5.296875 L 1.5625 -5.578125 L 1.578125 -5.71875 L 1.609375 -5.984375 L 1.65625 -6.125 L 1.71875 -6.359375 L 1.734375 -6.484375 L 1.8125 -6.734375 L 1.8125 -7.125 L 1.859375 -7.265625 L 1.90625 -7.390625 L 1.953125 -7.671875 L 2 -7.796875 L 2.09375 -8.359375 L 2.15625 -8.5 L 2.203125 -8.640625 L 2.21875 -8.78125 L 2.21875 -8.90625 L 2.25 -9.046875 L 2.28125 -9.296875 L 2.296875 -9.4375 L 2.359375 -9.671875 L 2.359375 -9.796875 L 2.40625 -10.046875 L 2.484375 -10.28125 L 2.484375 -10.5625 L 2.5 -10.734375 L 2.546875 -11.15625 L 2.59375 -11.390625 L 2.6875 -11.765625 L 2.734375 -11.90625 L 2.734375 -12.015625 L 2.75 -12.15625 L 2.8125 -12.421875 L 2.84375 -12.703125 L 2.890625 -12.953125 L 2.953125 -13.078125 L 2.96875 -13.21875 L 2.984375 -13.453125 L 3.03125 -13.59375 L 3.09375 -13.796875 L 3.125 -13.859375 L 3.1875 -14.078125 L 3.390625 -14.140625 L 3.53125 -14.140625 L 3.78125 -14.125 L 3.921875 -14.109375 L 4.25 -14.140625 L 4.40625 -14.140625 L 4.84375 -14.125 L 5.25 -14.140625 L 5.765625 -14.140625 L 5.984375 -14.125 L 6.09375 -14.140625 L 6.421875 -14.140625 L 6.765625 -14.109375 L 7.078125 -14.0625 L 7.21875 -14.0625 L 7.375 -14 L 7.65625 -13.921875 L 7.703125 -13.921875 L 7.8125 -13.875 L 8.15625 -13.78125 L 8.265625 -13.71875 L 8.34375 -13.671875 L 8.546875 -13.5625 L 8.6875 -13.453125 L 8.8125 -13.359375 L 9.109375 -12.953125 L 9.265625 -12.703125 L 9.359375 -12.609375 L 9.453125 -12.421875 L 9.53125 -12.140625 L 9.65625 -11.84375 L 9.734375 -11.703125 L 9.796875 -11.359375 L 9.796875 -11.21875 L 9.90625 -10.9375 L 9.875 -10.78125 L 9.921875 -10.390625 L 9.9375 -10.125 L 9.875 -10 L 9.9375 -9.71875 L 9.953125 -9.59375 L 9.9375 -9.453125 L 9.984375 -9.3125 L 9.953125 -9.171875 L 9.953125 -9.046875 L 9.90625 -8.734375 L 9.90625 -8.59375 L 9.859375 -8.25 L 9.84375 -8.09375 L 9.84375 -7.53125 L 9.734375 -7.21875 L 9.734375 -7.078125 L 9.65625 -6.6875 L 9.609375 -6.390625 L 9.578125 -5.921875 L 9.53125 -5.765625 L 9.46875 -5.59375 L 9.453125 -5.390625 L 9.328125 -4.96875 L 9.3125 -4.703125 L 9.265625 -4.46875 L 9.21875 -4.328125 L 9.078125 -4.0625 L 9.03125 -3.9375 L 9.015625 -3.71875 L 8.890625 -3.453125 L 8.875 -3.328125 L 8.78125 -3.046875 L 8.640625 -2.765625 L 8.5 -2.359375 L 8.40625 -2.15625 L 8.25 -2 L 8.21875 -1.875 L 8.125 -1.734375 L 8.015625 -1.609375 L 7.875 -1.375 L 7.59375 -1.03125 L 7.3125 -0.8125 L 7.125 -0.640625 L 7.015625 -0.5625 L 6.75 -0.4375 L 6.53125 -0.390625 L 6.328125 -0.25 L 6.046875 -0.15625 L 5.84375 -0.125 L 5.515625 -0.078125 L 5.296875 0 L 4.671875 0 L 4.53125 0.015625 L 4.421875 0.015625 Z M 4.203125 -2.703125 L 4.8125 -2.703125 L 5.015625 -2.765625 L 5.171875 -2.84375 L 5.390625 -2.96875 L 5.5 -3.046875 L 5.65625 -3.21875 L 5.796875 -3.375 L 5.859375 -3.5 L 5.9375 -3.640625 L 6.015625 -3.84375 L 6.125 -4.046875 L 6.21875 -4.296875 L 6.34375 -4.6875 L 6.40625 -4.90625 L 6.46875 -5.1875 L 6.546875 -5.453125 L 6.5625 -5.578125 L 6.609375 -5.671875 L 6.703125 -6.046875 L 6.734375 -6.1875 L 6.765625 -6.4375 L 6.8125 -6.734375 L 6.84375 -7.03125 L 6.875 -7.171875 L 6.90625 -7.328125 L 7.015625 -7.609375 L 7.015625 -7.90625 L 7.078125 -8.328125 L 7.09375 -8.4375 L 7.125 -8.875 L 7.109375 -9.296875 L 7.125 -9.875 L 7.09375 -10.421875 L 7.078125 -10.59375 L 6.953125 -10.9375 L 6.8125 -11.1875 L 6.6875 -11.296875 L 6.59375 -11.375 L 6.25 -11.46875 L 5.921875 -11.515625 L 5.65625 -11.53125 L 5.46875 -11.515625 L 5.421875 -11.359375 L 5.359375 -11.21875 L 5.359375 -11.09375 L 5.3125 -10.953125 L 5.25 -10.640625 L 5.171875 -10.359375 L 5.125 -10.09375 L 5.09375 -9.8125 L 5.046875 -9.375 L 5.03125 -9.25 L 4.984375 -9.109375 L 4.984375 -8.96875 L 4.96875 -8.8125 L 4.90625 -8.6875 L 4.90625 -8.5625 L 4.84375 -8.28125 L 4.8125 -7.953125 L 4.8125 -7.8125 L 4.75 -7.53125 L 4.703125 -7.421875 L 4.640625 -7.125 L 4.640625 -7.015625 L 4.59375 -6.734375 L 4.546875 -6.59375 L 4.5625 -6.46875 L 4.53125 -6.328125 L 4.4375 -5.796875 L 4.4375 -5.53125 L 4.421875 -5.421875 L 4.328125 -5.125 L 4.328125 -5.015625 L 4.265625 -4.703125 L 4.1875 -4.34375 L 4.15625 -4.203125 L 4.078125 -3.921875 L 4.046875 -3.609375 L 4.015625 -3.3125 L 3.953125 -2.96875 L 3.921875 -2.78125 Z M 4.203125 -2.703125 "/></g></g></g><g fill="#0a0a0a" fill-opacity="1"><g transform="translate(38.518974, 41.843208)"><g><path d="M 4.890625 0.328125 L 4.359375 0.265625 L 4.09375 0.28125 L 3.953125 0.265625 L 3.78125 0.25 L 3.3125 0.09375 L 3.15625 0.078125 L 2.84375 0 L 2.703125 -0.078125 L 2.421875 -0.265625 L 2.0625 -0.5625 L 1.78125 -0.890625 L 1.71875 -0.984375 L 1.609375 -1.09375 L 1.5625 -1.21875 L 1.453125 -1.359375 L 1.296875 -1.609375 L 1.296875 -1.734375 L 1.234375 -1.875 L 1.21875 -2 L 1.171875 -2.09375 L 1.125 -2.21875 L 1.109375 -2.359375 L 1.078125 -2.484375 L 1.046875 -2.765625 L 1.03125 -2.890625 L 0.96875 -3.296875 L 1.015625 -3.4375 L 1.015625 -3.8125 L 1.078125 -4.015625 L 1.046875 -4.1875 L 1.046875 -4.328125 L 1.09375 -4.765625 L 1.171875 -5.046875 L 1.171875 -5.21875 L 1.21875 -5.5 L 1.21875 -5.640625 L 1.296875 -5.921875 L 1.25 -6.015625 L 1.296875 -6.28125 L 1.328125 -6.421875 L 1.390625 -6.78125 L 1.453125 -7.03125 L 1.453125 -7.296875 L 1.515625 -7.53125 L 1.515625 -7.671875 L 1.578125 -7.796875 L 1.609375 -7.9375 L 1.609375 -8.0625 L 1.65625 -8.203125 L 1.640625 -8.328125 L 1.75 -8.53125 L 1.796875 -8.671875 L 1.796875 -8.953125 L 1.84375 -9.1875 L 1.90625 -9.328125 L 1.921875 -9.453125 L 1.953125 -9.734375 L 2.046875 -10.25 L 2.140625 -10.390625 L 2.1875 -10.640625 L 2.296875 -10.90625 L 2.359375 -11.046875 L 2.4375 -11.296875 L 2.546875 -11.578125 L 2.671875 -11.8125 L 2.75 -11.953125 L 2.921875 -12.21875 L 2.953125 -12.359375 L 3.03125 -12.484375 L 3.1875 -12.75 L 3.359375 -12.984375 L 3.5 -13.09375 L 3.59375 -13.21875 L 3.875 -13.515625 L 4.140625 -13.703125 L 4.296875 -13.765625 L 4.4375 -13.859375 L 4.6875 -14 L 4.921875 -14.125 L 5.234375 -14.203125 L 5.359375 -14.21875 L 5.65625 -14.296875 L 5.859375 -14.328125 L 6.21875 -14.390625 L 6.5 -14.40625 L 6.75 -14.421875 L 7.109375 -14.40625 L 7.234375 -14.390625 L 7.453125 -14.359375 L 7.78125 -14.328125 L 7.9375 -14.265625 L 8.09375 -14.25 L 8.21875 -14.203125 L 8.53125 -14.0625 L 8.890625 -13.8125 L 9.046875 -13.71875 L 9.15625 -13.59375 L 9.375 -13.421875 L 9.59375 -13.21875 L 9.703125 -13.09375 L 9.765625 -12.953125 L 9.875 -12.6875 L 9.9375 -12.5625 L 9.984375 -12.4375 L 10.015625 -12.296875 L 10.078125 -12 L 10.125 -11.609375 L 10.140625 -11.453125 L 10.140625 -11.3125 L 10.125 -11.046875 L 10.09375 -10.9375 L 10.125 -10.671875 L 10.125 -10.53125 L 10.09375 -10.265625 L 10.0625 -10.125 L 10.046875 -10 L 10.0625 -9.859375 L 10.0625 -9.65625 L 10.046875 -9.53125 L 10 -9.25 L 9.984375 -8.953125 L 9.953125 -8.625 L 9.921875 -8.484375 L 9.875 -8.15625 L 9.90625 -7.953125 L 9.796875 -7.734375 L 9.8125 -7.5 L 9.734375 -7.234375 L 9.703125 -6.96875 L 9.640625 -6.703125 L 9.609375 -6.46875 L 9.5625 -6.203125 L 9.5 -6.078125 L 9.4375 -5.71875 L 9.4375 -5.53125 L 9.390625 -5.390625 L 9.359375 -5.109375 L 9.296875 -4.984375 L 9.09375 -4.28125 L 9.109375 -4.15625 L 9.015625 -3.921875 L 8.953125 -3.796875 L 8.9375 -3.578125 L 8.828125 -3.359375 L 8.765625 -3.109375 L 8.765625 -2.96875 L 8.703125 -2.75 L 8.609375 -2.609375 L 8.59375 -2.40625 L 8.4375 -2.125 L 8.28125 -1.75 L 8.1875 -1.609375 L 8 -1.359375 L 7.921875 -1.234375 L 7.8125 -1.109375 L 7.78125 -0.984375 L 7.53125 -0.75 L 7.3125 -0.53125 L 7.078125 -0.34375 L 6.828125 -0.1875 L 6.75 -0.125 L 6.28125 0.0625 L 6.140625 0.078125 L 5.984375 0.125 L 5.703125 0.1875 L 5.5625 0.203125 L 5.328125 0.265625 Z M 4.734375 -2.421875 L 4.984375 -2.421875 L 5.265625 -2.5 L 5.453125 -2.59375 L 5.734375 -2.78125 L 5.875 -3.078125 L 6 -3.359375 L 6.046875 -3.5 L 6.046875 -3.65625 L 6.09375 -3.953125 L 6.140625 -4.09375 L 6.1875 -4.390625 L 6.25 -4.546875 L 6.265625 -4.828125 L 6.328125 -4.96875 L 6.390625 -5.234375 L 6.40625 -5.390625 L 6.46875 -5.515625 L 6.46875 -5.671875 L 6.4375 -5.734375 L 6.5 -5.921875 L 6.5625 -6.21875 L 6.609375 -6.6875 L 6.671875 -6.875 L 6.734375 -7.03125 L 6.765625 -7.421875 L 6.828125 -7.53125 L 6.8125 -7.875 L 6.890625 -8.1875 L 6.921875 -8.421875 L 6.96875 -8.59375 L 7.015625 -8.734375 L 6.984375 -8.875 L 7.015625 -9.125 L 7.046875 -9.296875 L 7.109375 -9.578125 L 7.15625 -9.765625 L 7.15625 -10.015625 L 7.1875 -10.390625 L 7.21875 -10.640625 L 7.25 -10.9375 L 7.171875 -11.328125 L 7.09375 -11.453125 L 6.953125 -11.640625 L 6.625 -11.78125 L 6.25 -11.765625 L 6.078125 -11.71875 L 5.765625 -11.59375 L 5.5625 -11.421875 L 5.421875 -11.1875 L 5.328125 -10.953125 L 5.25 -10.8125 L 5.125 -10.546875 L 5.09375 -10.40625 L 5.046875 -10.25 L 4.921875 -9.8125 L 4.921875 -9.78125 L 4.90625 -9.609375 L 4.84375 -9.328125 L 4.828125 -9.21875 L 4.75 -8.9375 L 4.6875 -8.640625 L 4.625 -8.328125 L 4.609375 -8.1875 L 4.5625 -8.046875 L 4.53125 -7.734375 L 4.46875 -7.578125 L 4.390625 -7.25 L 4.34375 -7.109375 L 4.296875 -6.828125 L 4.296875 -6.6875 L 4.28125 -6.546875 L 4.296875 -6.390625 L 4.25 -6.25 L 4.140625 -5.953125 L 4.15625 -5.796875 L 4.125 -5.65625 L 4.140625 -5.578125 L 4.09375 -5.390625 L 4.09375 -5.234375 L 4.0625 -5.09375 L 4.0625 -4.921875 L 4 -4.625 L 4 -4.484375 L 3.9375 -4.34375 L 4 -4.203125 L 3.984375 -3.953125 L 3.90625 -3.75 L 3.953125 -3.609375 L 3.953125 -3.046875 L 4.015625 -2.90625 L 4.0625 -2.828125 L 4.1875 -2.640625 L 4.28125 -2.546875 L 4.4375 -2.484375 L 4.609375 -2.4375 Z M 4.734375 -2.421875 "/></g></g></g><g fill="#0a0a0a" fill-opacity="1"><g transform="translate(48.317485, 41.843208)"><g><path d="M 1.03125 0.046875 L 0.734375 0 L 0.625 -0.25 L 0.671875 -0.40625 L 0.671875 -0.734375 L 0.703125 -1.046875 L 0.78125 -1.328125 L 0.875 -1.75 L 0.90625 -1.859375 L 0.96875 -2.140625 L 1.015625 -2.328125 L 1.078125 -2.640625 L 1.078125 -2.78125 L 1.109375 -2.953125 L 1.109375 -3.21875 L 1.1875 -3.359375 L 1.21875 -3.59375 L 1.234375 -3.734375 L 1.296875 -3.984375 L 1.3125 -4.09375 L 1.296875 -4.25 L 1.328125 -4.5 L 1.421875 -4.828125 L 1.453125 -5.078125 L 1.5 -5.25 L 1.5625 -5.46875 L 1.59375 -5.71875 L 1.609375 -5.859375 L 1.65625 -5.984375 L 1.671875 -6.25 L 1.703125 -6.359375 L 1.703125 -6.484375 L 1.796875 -6.734375 L 1.8125 -6.84375 L 1.84375 -6.984375 L 1.859375 -7.265625 L 1.875 -7.46875 L 1.984375 -7.71875 L 2.015625 -7.875 L 2.0625 -8.078125 L 2.0625 -8.359375 L 2.078125 -8.53125 L 2.140625 -8.6875 L 2.140625 -8.84375 L 2.203125 -8.984375 L 2.203125 -9.125 L 2.25 -9.265625 L 2.28125 -9.53125 L 2.34375 -9.765625 L 2.40625 -9.9375 L 2.40625 -10.1875 L 2.421875 -10.328125 L 2.46875 -10.4375 L 2.5625 -11.015625 L 2.5625 -11.15625 L 2.640625 -11.328125 L 2.6875 -11.515625 L 2.703125 -11.78125 L 2.734375 -11.921875 L 2.75 -12.046875 L 2.765625 -12.1875 L 2.8125 -12.296875 L 2.828125 -12.4375 L 2.875 -12.703125 L 2.90625 -12.953125 L 2.96875 -13.21875 L 2.96875 -13.375 L 3.03125 -13.640625 L 3.078125 -13.765625 L 3.125 -13.859375 L 3.25 -14.078125 L 3.453125 -14.125 L 3.734375 -14.140625 L 4.078125 -14.125 L 4.265625 -14.125 L 4.53125 -14.140625 L 4.90625 -14.125 L 5.15625 -14.140625 L 5.453125 -14.125 L 5.734375 -14.125 L 5.953125 -14.0625 L 6.078125 -13.875 L 6.09375 -13.734375 L 6.1875 -13.53125 L 6.21875 -13.296875 L 6.25 -13.078125 L 6.328125 -12.78125 L 6.40625 -12.296875 L 6.46875 -11.984375 L 6.53125 -11.640625 L 6.59375 -11.359375 L 6.671875 -10.953125 L 6.703125 -10.78125 L 6.734375 -10.640625 L 6.765625 -10.34375 L 6.828125 -10.078125 L 6.828125 -9.953125 L 6.890625 -9.734375 L 6.890625 -9.59375 L 6.90625 -9.375 L 6.96875 -9.078125 L 7.015625 -8.734375 L 7.078125 -8.390625 L 7.09375 -8.0625 L 7.125 -7.78125 L 7.171875 -7.609375 L 7.234375 -7.078125 L 7.3125 -6.609375 L 7.359375 -6.15625 L 7.359375 -6.015625 L 7.390625 -5.875 L 7.4375 -5.640625 L 7.5 -5.09375 L 7.5625 -4.640625 L 7.609375 -4.640625 L 7.640625 -5.046875 L 7.671875 -5.53125 L 7.671875 -5.8125 L 7.734375 -6.78125 L 7.796875 -7.21875 L 7.796875 -7.90625 L 7.859375 -8.1875 L 7.875 -8.296875 L 7.90625 -8.4375 L 7.921875 -8.609375 L 7.9375 -8.890625 L 7.984375 -9.015625 L 8.015625 -9.296875 L 8.015625 -9.421875 L 8.09375 -9.671875 L 8.09375 -9.921875 L 8.125 -10.15625 L 8.125 -10.296875 L 8.25 -10.546875 L 8.21875 -10.6875 L 8.28125 -11.046875 L 8.28125 -11.171875 L 8.34375 -11.4375 L 8.359375 -11.578125 L 8.40625 -11.703125 L 8.4375 -11.984375 L 8.46875 -12.140625 L 8.5625 -12.5625 L 8.625 -12.734375 L 8.625 -12.90625 L 8.640625 -13.03125 L 8.703125 -13.359375 L 8.78125 -13.78125 L 8.953125 -14.0625 L 9.03125 -14.125 L 9.421875 -14.203125 L 9.84375 -14.15625 L 9.984375 -14.1875 L 10.1875 -14.1875 L 10.640625 -14.15625 L 10.84375 -14.15625 L 11.125 -14.1875 L 11.421875 -14.125 L 11.53125 -14.0625 L 11.5625 -13.90625 L 11.5625 -13.734375 L 11.5 -13.453125 L 11.515625 -13.296875 L 11.453125 -12.84375 L 11.421875 -12.5625 L 11.296875 -12.078125 L 11.234375 -11.859375 L 11.171875 -11.5 L 11.125 -11.328125 L 11.078125 -10.90625 L 10.984375 -10.59375 L 10.953125 -10.265625 L 10.890625 -10.078125 L 10.84375 -9.921875 L 10.8125 -9.78125 L 10.8125 -9.515625 L 10.765625 -9.375 L 10.6875 -8.765625 L 10.625 -8.59375 L 10.609375 -8.359375 L 10.59375 -8.21875 L 10.546875 -8.0625 L 10.484375 -7.796875 L 10.4375 -7.65625 L 10.390625 -7.390625 L 10.34375 -7.109375 L 10.296875 -6.953125 L 10.328125 -6.765625 L 10.28125 -6.640625 L 10.265625 -6.5 L 10.21875 -6.390625 L 10.203125 -6.25 L 10.1875 -6.125 L 10.1875 -5.859375 L 10.125 -5.734375 L 10.0625 -5.453125 L 10.015625 -5.265625 L 10 -5.09375 L 9.984375 -4.96875 L 9.953125 -4.828125 L 9.9375 -4.703125 L 9.9375 -4.59375 L 9.859375 -4.296875 L 9.8125 -4.015625 L 9.78125 -3.8125 L 9.703125 -3.640625 L 9.609375 -3.390625 L 9.59375 -3.171875 L 9.578125 -2.90625 L 9.53125 -2.640625 L 9.46875 -2.484375 L 9.390625 -2.203125 L 9.390625 -1.875 L 9.296875 -1.609375 L 9.296875 -1.5 L 9.25 -1.359375 L 9.1875 -1.09375 L 9.09375 -0.4375 L 8.90625 -0.203125 L 8.703125 -0.0625 L 8.421875 -0.046875 L 8.203125 0 L 8.125 0 L 7.734375 -0.015625 L 7.59375 0 L 7.390625 -0.015625 L 7.265625 0 L 6.875 0 L 6.609375 -0.015625 L 6.265625 -0.015625 L 6.09375 -0.15625 L 5.9375 -0.484375 L 5.84375 -0.765625 L 5.8125 -0.875 L 5.796875 -1.109375 L 5.78125 -1.234375 L 5.734375 -1.65625 L 5.71875 -1.78125 L 5.640625 -2.203125 L 5.609375 -2.328125 L 5.578125 -2.609375 L 5.5625 -2.90625 L 5.5 -3.125 L 5.4375 -3.4375 L 5.4375 -3.5625 L 5.375 -3.84375 L 5.359375 -3.953125 L 5.296875 -4.25 L 5.265625 -4.359375 L 5.265625 -4.671875 L 5.1875 -5.078125 L 5.15625 -5.453125 L 5.078125 -6.015625 L 4.96875 -6.671875 L 4.90625 -7.234375 L 4.78125 -7.953125 L 4.671875 -8.734375 L 4.609375 -8.734375 L 4.59375 -8.15625 L 4.5625 -7.765625 L 4.546875 -7.53125 L 4.5 -7.1875 L 4.484375 -6.6875 L 4.34375 -5.71875 L 4.265625 -4.921875 L 4.21875 -4.8125 L 4.15625 -4.546875 L 4.203125 -4.40625 L 4.140625 -4.15625 L 4.09375 -4.015625 L 4.125 -3.875 L 4.09375 -3.75 L 4.0625 -3.46875 L 3.984375 -3.171875 L 3.90625 -2.765625 L 3.859375 -2.484375 L 3.84375 -2.359375 L 3.796875 -2.21875 L 3.71875 -1.640625 L 3.65625 -1.375 L 3.640625 -1.234375 L 3.640625 -0.96875 L 3.59375 -0.84375 L 3.53125 -0.484375 L 3.453125 -0.25 L 3.390625 -0.046875 L 3.171875 0.046875 Z M 1.03125 0.046875 "/></g></g></g><g fill="#0a0a0a" fill-opacity="1"><g transform="translate(59.206961, 41.843208)"><g><path d="M 1.640625 0.046875 L 1.328125 0.015625 L 1.1875 0 L -0.28125 -0.015625 L -0.46875 -0.0625 L -0.5 -0.21875 L -0.46875 -0.359375 L -0.4375 -0.484375 L -0.328125 -0.734375 L -0.15625 -0.984375 L 0.046875 -1.59375 L 0.15625 -1.84375 L 0.265625 -2.078125 L 0.484375 -2.5625 L 0.5625 -2.828125 L 0.734375 -3.1875 L 0.765625 -3.3125 L 0.875 -3.453125 L 0.96875 -3.703125 L 1.015625 -3.8125 L 1.03125 -3.953125 L 1.09375 -4.078125 L 1.1875 -4.34375 L 1.25 -4.484375 L 1.390625 -4.765625 L 1.4375 -4.90625 L 1.46875 -5.09375 L 1.578125 -5.25 L 1.703125 -5.5 L 1.734375 -5.640625 L 1.859375 -5.921875 L 1.875 -6.046875 L 1.9375 -6.1875 L 2 -6.296875 L 2.09375 -6.59375 L 2.15625 -6.703125 L 2.328125 -7.265625 L 2.390625 -7.4375 L 2.53125 -7.703125 L 2.625 -8.046875 L 2.75 -8.265625 L 2.8125 -8.390625 L 2.875 -8.640625 L 2.96875 -8.78125 L 3.03125 -9.046875 L 3.078125 -9.15625 L 3.1875 -9.421875 L 3.25 -9.703125 L 3.359375 -9.84375 L 3.4375 -9.953125 L 3.59375 -10.390625 L 3.703125 -10.640625 L 3.75 -10.765625 L 3.875 -10.953125 L 3.9375 -11.15625 L 4 -11.296875 L 4.1875 -11.65625 L 4.21875 -11.796875 L 4.28125 -11.921875 L 4.328125 -12.046875 L 4.359375 -12.1875 L 4.484375 -12.40625 L 4.5625 -12.53125 L 4.609375 -12.625 L 4.734375 -12.984375 L 4.875 -13.25 L 5.046875 -13.609375 L 5.109375 -13.765625 L 5.171875 -13.875 L 5.25 -14.109375 L 5.390625 -14.125 L 5.59375 -14.125 L 5.984375 -14.109375 L 6.1875 -14.125 L 6.5 -14.125 L 6.890625 -14.140625 L 7.078125 -14.140625 L 7.21875 -14.109375 L 7.390625 -14.125 L 7.71875 -14.125 L 7.8125 -14.078125 L 7.953125 -13.984375 L 8.015625 -13.109375 L 8.015625 -12.671875 L 8.0625 -12.546875 L 8.0625 -12.1875 L 8.078125 -11.453125 L 8.078125 -11.171875 L 8.09375 -10.90625 L 8.140625 -10.5 L 8.140625 -10.21875 L 8.15625 -9.921875 L 8.140625 -9.78125 L 8.140625 -9.328125 L 8.1875 -9.046875 L 8.1875 -8.640625 L 8.203125 -8.359375 L 8.1875 -8.25 L 8.203125 -7.984375 L 8.203125 -7.859375 L 8.21875 -7.53125 L 8.265625 -7.3125 L 8.265625 -6.53125 L 8.28125 -6.28125 L 8.296875 -6.125 L 8.296875 -5.515625 L 8.328125 -4.59375 L 8.328125 -4.4375 L 8.34375 -4.140625 L 8.328125 -3.84375 L 8.34375 -3.5625 L 8.328125 -3.421875 L 8.359375 -2.640625 L 8.359375 -2.53125 L 8.390625 -2.265625 L 8.40625 -2.125 L 8.40625 -1.8125 L 8.390625 -1.53125 L 8.40625 -1.375 L 8.40625 -1.1875 L 8.421875 -0.75 L 8.421875 -0.328125 C 8.429688 -0.285156 8.4375 -0.226562 8.4375 -0.15625 C 8.4375 -0.0820312 8.410156 -0.03125 8.359375 0 C 8.316406 0.0078125 8.28125 0.0078125 8.25 0 C 8.21875 0 8.179688 0 8.140625 0 L 8 0.015625 L 7.84375 0 L 7.5625 0 L 7.109375 0.015625 L 6.953125 0.015625 L 6.703125 0 L 6.5625 0.015625 L 6.359375 0.046875 L 6.09375 0.015625 L 5.796875 0.015625 L 5.71875 -0.046875 L 5.671875 -0.25 L 5.65625 -0.609375 L 5.640625 -0.8125 L 5.65625 -1.015625 L 5.65625 -1.953125 L 5.640625 -2.125 L 5.1875 -2.140625 L 4.875 -2.1875 L 3.984375 -2.203125 L 3.4375 -2.203125 L 3.328125 -1.984375 L 3.1875 -1.71875 L 3.15625 -1.578125 L 3.09375 -1.4375 L 3.015625 -1.1875 L 2.8125 -0.8125 L 2.6875 -0.5 L 2.625 -0.28125 L 2.5625 -0.1875 L 2.484375 -0.046875 L 2.359375 0.046875 L 1.796875 0.015625 Z M 4.96875 -4.828125 L 5.578125 -4.828125 L 5.703125 -4.921875 L 5.71875 -5.21875 L 5.703125 -5.375 L 5.71875 -5.53125 L 5.71875 -6.0625 L 5.734375 -6.203125 L 5.734375 -6.546875 L 5.78125 -6.703125 L 5.765625 -7.1875 L 5.78125 -7.953125 L 5.796875 -8.6875 L 5.78125 -9.15625 L 5.609375 -9.09375 L 5.53125 -8.828125 L 5.4375 -8.5 L 5.375 -8.296875 L 5.265625 -7.984375 L 5.1875 -7.8125 L 5.109375 -7.609375 L 5.09375 -7.46875 L 5.015625 -7.328125 L 4.953125 -7.15625 L 4.890625 -7.015625 L 4.828125 -6.828125 L 4.703125 -6.390625 L 4.6875 -6.25 L 4.59375 -5.9375 L 4.5 -5.796875 L 4.40625 -5.453125 L 4.359375 -5.3125 L 4.328125 -5.125 L 4.265625 -4.984375 L 4.40625 -4.875 L 4.5625 -4.875 L 4.78125 -4.84375 Z M 4.96875 -4.828125 "/></g></g></g><g fill="#0a0a0a" fill-opacity="1"><g transform="translate(68.217546, 41.843208)"><g><path d="M 2.5 0.0625 L 2.328125 0 L 2.1875 0 L 2 -0.15625 L 2.046875 -0.46875 L 2.0625 -0.890625 L 2.25 -1.453125 L 2.265625 -1.75 L 2.296875 -1.875 L 2.328125 -2.15625 L 2.328125 -2.296875 L 2.421875 -2.59375 L 2.4375 -2.734375 L 2.421875 -2.890625 L 2.53125 -3.3125 L 2.53125 -3.46875 L 2.59375 -3.71875 L 2.640625 -4.015625 L 2.6875 -4.15625 L 2.703125 -4.296875 L 2.75 -4.5625 L 2.78125 -4.6875 L 2.8125 -4.96875 L 2.90625 -5.171875 L 2.875 -5.375 L 2.890625 -5.515625 L 2.921875 -5.65625 L 3.03125 -5.9375 L 3.109375 -6.25 L 3.15625 -6.390625 L 3.109375 -6.53125 L 3.21875 -6.765625 L 3.25 -6.890625 L 3.25 -7.171875 L 3.3125 -7.375 L 3.3125 -7.5625 L 3.359375 -7.703125 L 3.4375 -7.8125 L 3.4375 -7.953125 L 3.46875 -8.078125 L 3.53125 -8.390625 L 3.515625 -8.53125 L 3.609375 -8.75 L 3.609375 -8.953125 L 3.65625 -9.046875 L 3.65625 -9.21875 L 3.671875 -9.359375 L 3.71875 -9.5 L 3.8125 -9.8125 L 3.84375 -9.9375 L 3.84375 -10.0625 L 3.859375 -10.203125 L 3.859375 -10.328125 L 3.921875 -10.59375 L 3.953125 -10.734375 L 4 -11.03125 L 4.015625 -11.359375 L 2.921875 -11.359375 L 2.640625 -11.375 L 2.5 -11.359375 L 2.328125 -11.359375 L 2.125 -11.375 L 1.953125 -11.375 L 1.78125 -11.4375 L 1.71875 -11.609375 L 1.75 -11.859375 L 1.8125 -12.015625 L 1.8125 -12.1875 L 1.796875 -12.328125 L 1.875 -12.609375 L 1.921875 -12.734375 L 1.9375 -13.015625 L 2.015625 -13.28125 L 2.078125 -13.390625 L 2.078125 -13.671875 L 2.09375 -13.796875 L 2.203125 -14.015625 L 2.390625 -14.15625 L 2.53125 -14.1875 L 3.046875 -14.1875 L 3.15625 -14.15625 L 3.296875 -14.15625 L 3.4375 -14.1875 L 4.921875 -14.1875 L 5.078125 -14.15625 L 5.515625 -14.15625 L 6.8125 -14.1875 L 7.109375 -14.15625 L 7.53125 -14.1875 L 7.71875 -14.15625 L 8.96875 -14.15625 L 9.25 -14.140625 L 9.4375 -14.109375 L 9.46875 -13.9375 L 9.46875 -13.8125 L 9.453125 -13.671875 L 9.421875 -13.515625 L 9.421875 -13.375 L 9.390625 -13.25 L 9.359375 -13.109375 L 9.359375 -12.984375 L 9.3125 -12.75 L 9.265625 -12.609375 L 9.25 -12.484375 L 9.234375 -12.25 L 9.15625 -11.984375 L 9.109375 -11.84375 L 9.09375 -11.5625 L 9.015625 -11.375 L 8.8125 -11.359375 L 8.625 -11.375 L 8.390625 -11.375 L 8.203125 -11.359375 L 8 -11.359375 L 7.15625 -11.375 L 6.96875 -11.359375 L 6.921875 -11.21875 L 6.953125 -11.09375 L 6.890625 -10.953125 L 6.890625 -10.828125 L 6.84375 -10.703125 L 6.8125 -10.4375 L 6.78125 -10.296875 L 6.703125 -9.9375 L 6.625 -9.78125 L 6.671875 -9.671875 L 6.5625 -9.390625 L 6.484375 -9.125 L 6.484375 -9.015625 L 6.46875 -8.765625 L 6.4375 -8.640625 L 6.4375 -8.5 L 6.34375 -8.265625 L 6.296875 -7.953125 L 6.203125 -7.53125 L 6.140625 -7.421875 L 6.140625 -7.265625 L 6.125 -7.015625 L 6.0625 -6.765625 L 5.984375 -6.625 L 5.953125 -6.34375 L 5.921875 -6.21875 L 5.921875 -6.09375 L 5.859375 -5.8125 L 5.796875 -5.515625 L 5.765625 -5.328125 L 5.765625 -5.125 L 5.734375 -5.015625 L 5.703125 -4.890625 L 5.671875 -4.75 L 5.59375 -4.5 L 5.578125 -4.359375 L 5.5625 -4.25 L 5.578125 -4.09375 L 5.515625 -3.8125 L 5.453125 -3.5 L 5.375 -3.234375 L 5.359375 -3.09375 L 5.296875 -2.828125 L 5.1875 -2.40625 L 5.15625 -2.25 L 5.09375 -1.953125 L 5.109375 -1.796875 L 5.015625 -1.359375 L 4.890625 -0.78125 L 4.84375 -0.5 L 4.78125 -0.21875 L 4.75 -0.09375 L 4.5 0 L 2.75 0 Z M 2.5 0.0625 "/></g></g></g><g fill="#0a0a0a" fill-opacity="1"><g transform="translate(76.096757, 41.843208)"><g><path d="M 2.96875 0.015625 L 2.59375 0 L 2.0625 0 L 1.921875 -0.015625 L 0.84375 -0.015625 L 0.671875 -0.0625 L 0.609375 -0.25 L 0.671875 -0.421875 L 0.703125 -0.609375 L 0.75 -0.90625 L 0.78125 -1.234375 L 0.875 -1.53125 L 0.890625 -1.859375 L 0.953125 -2.015625 L 0.953125 -2.203125 L 0.984375 -2.34375 L 0.984375 -2.484375 L 1.03125 -2.640625 L 1.046875 -2.78125 L 1.078125 -3.078125 L 1.109375 -3.328125 L 1.1875 -3.5 L 1.234375 -3.8125 L 1.234375 -3.953125 L 1.265625 -4.125 L 1.3125 -4.390625 L 1.3125 -4.484375 L 1.390625 -4.734375 L 1.375 -4.84375 L 1.4375 -5.109375 L 1.5 -5.25 L 1.515625 -5.390625 L 1.578125 -5.703125 L 1.703125 -6.265625 L 1.703125 -6.5625 L 1.78125 -6.84375 L 1.8125 -7.15625 L 1.875 -7.296875 L 1.90625 -7.453125 L 1.921875 -7.59375 L 1.921875 -7.734375 L 2 -7.859375 L 2.125 -8.46875 L 2.1875 -8.625 L 2.21875 -8.765625 L 2.203125 -8.890625 L 2.265625 -9.171875 L 2.34375 -9.46875 L 2.359375 -10.046875 L 2.421875 -10.1875 L 2.4375 -10.609375 L 2.53125 -10.734375 L 2.5625 -10.890625 L 2.59375 -11.03125 L 2.5625 -11.15625 L 2.59375 -11.296875 L 2.671875 -11.5625 L 2.703125 -11.84375 L 2.765625 -11.953125 L 2.765625 -12.109375 L 2.828125 -12.25 L 2.8125 -12.359375 L 2.84375 -12.5 L 2.875 -12.765625 L 2.90625 -12.890625 L 2.921875 -13.015625 L 2.953125 -13.28125 L 2.96875 -13.390625 L 2.921875 -13.53125 L 2.984375 -13.78125 L 3.046875 -13.90625 L 3.078125 -14.015625 L 3.234375 -14.140625 L 3.578125 -14.140625 L 3.703125 -14.15625 L 3.84375 -14.140625 L 4.078125 -14.15625 L 4.21875 -14.15625 L 4.390625 -14.140625 L 4.59375 -14.140625 L 5.03125 -14.15625 L 6.546875 -14.1875 L 7.015625 -14.15625 L 7.171875 -14.140625 L 7.765625 -14.15625 L 8.203125 -14.15625 L 8.390625 -14.1875 L 8.59375 -14.15625 L 8.765625 -14.140625 L 8.875 -14 L 8.8125 -13.78125 L 8.8125 -13.65625 L 8.765625 -13.15625 L 8.765625 -13.03125 L 8.703125 -12.890625 L 8.6875 -12.75 L 8.671875 -12.625 L 8.609375 -12.328125 L 8.609375 -12.15625 L 8.53125 -11.875 L 8.5 -11.765625 L 8.4375 -11.5 L 8.25 -11.46875 L 7.390625 -11.46875 L 7.15625 -11.453125 L 5.84375 -11.453125 L 5.359375 -11.4375 L 5.296875 -11.1875 L 5.265625 -11.046875 L 5.265625 -10.765625 L 5.21875 -10.640625 L 5.21875 -10.484375 L 5.15625 -10.09375 L 5.109375 -9.8125 L 5.015625 -9.390625 L 5.03125 -9.234375 L 4.96875 -9.03125 L 4.921875 -8.671875 L 5.296875 -8.671875 L 6 -8.640625 L 6.390625 -8.6875 L 6.90625 -8.6875 L 7.078125 -8.640625 L 7.1875 -8.484375 L 7.15625 -8.25 L 7.15625 -8.078125 L 7.109375 -7.859375 L 7.015625 -7.4375 L 6.953125 -7.125 L 6.953125 -6.984375 L 6.890625 -6.828125 L 6.84375 -6.546875 L 6.78125 -6.21875 L 6.75 -5.9375 L 6.703125 -5.90625 L 6.5 -5.90625 L 6.203125 -5.875 L 6.015625 -5.875 L 5.515625 -5.859375 L 5.171875 -5.875 L 4.953125 -5.875 L 4.6875 -5.859375 L 4.5 -5.859375 L 4.421875 -5.640625 L 4.359375 -5.375 L 4.28125 -4.8125 L 4.21875 -4.609375 L 4.1875 -4.421875 L 4.15625 -4.21875 L 4.125 -4.078125 L 4.0625 -3.71875 L 3.984375 -3.1875 L 3.984375 -3.03125 L 4.0625 -2.953125 L 4.34375 -2.90625 L 5.53125 -2.90625 L 5.8125 -2.890625 L 6.265625 -2.875 L 6.828125 -2.890625 L 6.96875 -2.828125 L 6.953125 -2.671875 L 6.921875 -2.59375 L 6.890625 -2.359375 L 6.875 -2.203125 L 6.78125 -1.75 L 6.78125 -1.5 L 6.75 -1.359375 L 6.703125 -1.234375 L 6.6875 -1.09375 L 6.625 -0.78125 L 6.609375 -0.4375 L 6.5625 -0.265625 L 6.5 -0.046875 L 4.59375 -0.046875 L 4.265625 -0.015625 L 4 -0.046875 L 3.875 -0.015625 L 3.453125 -0.015625 L 3.125 0 Z M 2.96875 0.015625 "/></g></g></g><g fill="#0a0a0a" fill-opacity="1"><g transform="translate(83.713326, 41.843208)"><g/></g></g><g fill="#0a0a0a" fill-opacity="1"><g transform="translate(88.238823, 41.843208)"><g><path d="M 1.03125 0.046875 L 0.734375 0 L 0.625 -0.25 L 0.671875 -0.40625 L 0.671875 -0.734375 L 0.703125 -1.046875 L 0.78125 -1.328125 L 0.875 -1.75 L 0.90625 -1.859375 L 0.96875 -2.140625 L 1.015625 -2.328125 L 1.078125 -2.640625 L 1.078125 -2.78125 L 1.109375 -2.953125 L 1.109375 -3.21875 L 1.1875 -3.359375 L 1.21875 -3.59375 L 1.234375 -3.734375 L 1.296875 -3.984375 L 1.3125 -4.09375 L 1.296875 -4.25 L 1.328125 -4.5 L 1.421875 -4.828125 L 1.453125 -5.078125 L 1.5 -5.25 L 1.5625 -5.46875 L 1.59375 -5.71875 L 1.609375 -5.859375 L 1.65625 -5.984375 L 1.671875 -6.25 L 1.703125 -6.359375 L 1.703125 -6.484375 L 1.796875 -6.734375 L 1.8125 -6.84375 L 1.84375 -6.984375 L 1.859375 -7.265625 L 1.875 -7.46875 L 1.984375 -7.71875 L 2.015625 -7.875 L 2.0625 -8.078125 L 2.0625 -8.359375 L 2.078125 -8.53125 L 2.140625 -8.6875 L 2.140625 -8.84375 L 2.203125 -8.984375 L 2.203125 -9.125 L 2.25 -9.265625 L 2.28125 -9.53125 L 2.34375 -9.765625 L 2.40625 -9.9375 L 2.40625 -10.1875 L 2.421875 -10.328125 L 2.46875 -10.4375 L 2.5625 -11.015625 L 2.5625 -11.15625 L 2.640625 -11.328125 L 2.6875 -11.515625 L 2.703125 -11.78125 L 2.734375 -11.921875 L 2.75 -12.046875 L 2.765625 -12.1875 L 2.8125 -12.296875 L 2.828125 -12.4375 L 2.875 -12.703125 L 2.90625 -12.953125 L 2.96875 -13.21875 L 2.96875 -13.375 L 3.03125 -13.640625 L 3.078125 -13.765625 L 3.125 -13.859375 L 3.25 -14.078125 L 3.453125 -14.125 L 3.734375 -14.140625 L 4.078125 -14.125 L 4.265625 -14.125 L 4.53125 -14.140625 L 4.90625 -14.125 L 5.15625 -14.140625 L 5.453125 -14.125 L 5.734375 -14.125 L 5.953125 -14.0625 L 6.078125 -13.875 L 6.09375 -13.734375 L 6.1875 -13.53125 L 6.21875 -13.296875 L 6.25 -13.078125 L 6.328125 -12.78125 L 6.40625 -12.296875 L 6.46875 -11.984375 L 6.53125 -11.640625 L 6.59375 -11.359375 L 6.671875 -10.953125 L 6.703125 -10.78125 L 6.734375 -10.640625 L 6.765625 -10.34375 L 6.828125 -10.078125 L 6.828125 -9.953125 L 6.890625 -9.734375 L 6.890625 -9.59375 L 6.90625 -9.375 L 6.96875 -9.078125 L 7.015625 -8.734375 L 7.078125 -8.390625 L 7.09375 -8.0625 L 7.125 -7.78125 L 7.171875 -7.609375 L 7.234375 -7.078125 L 7.3125 -6.609375 L 7.359375 -6.15625 L 7.359375 -6.015625 L 7.390625 -5.875 L 7.4375 -5.640625 L 7.5 -5.09375 L 7.5625 -4.640625 L 7.609375 -4.640625 L 7.640625 -5.046875 L 7.671875 -5.53125 L 7.671875 -5.8125 L 7.734375 -6.78125 L 7.796875 -7.21875 L 7.796875 -7.90625 L 7.859375 -8.1875 L 7.875 -8.296875 L 7.90625 -8.4375 L 7.921875 -8.609375 L 7.9375 -8.890625 L 7.984375 -9.015625 L 8.015625 -9.296875 L 8.015625 -9.421875 L 8.09375 -9.671875 L 8.09375 -9.921875 L 8.125 -10.15625 L 8.125 -10.296875 L 8.25 -10.546875 L 8.21875 -10.6875 L 8.28125 -11.046875 L 8.28125 -11.171875 L 8.34375 -11.4375 L 8.359375 -11.578125 L 8.40625 -11.703125 L 8.4375 -11.984375 L 8.46875 -12.140625 L 8.5625 -12.5625 L 8.625 -12.734375 L 8.625 -12.90625 L 8.640625 -13.03125 L 8.703125 -13.359375 L 8.78125 -13.78125 L 8.953125 -14.0625 L 9.03125 -14.125 L 9.421875 -14.203125 L 9.84375 -14.15625 L 9.984375 -14.1875 L 10.1875 -14.1875 L 10.640625 -14.15625 L 10.84375 -14.15625 L 11.125 -14.1875 L 11.421875 -14.125 L 11.53125 -14.0625 L 11.5625 -13.90625 L 11.5625 -13.734375 L 11.5 -13.453125 L 11.515625 -13.296875 L 11.453125 -12.84375 L 11.421875 -12.5625 L 11.296875 -12.078125 L 11.234375 -11.859375 L 11.171875 -11.5 L 11.125 -11.328125 L 11.078125 -10.90625 L 10.984375 -10.59375 L 10.953125 -10.265625 L 10.890625 -10.078125 L 10.84375 -9.921875 L 10.8125 -9.78125 L 10.8125 -9.515625 L 10.765625 -9.375 L 10.6875 -8.765625 L 10.625 -8.59375 L 10.609375 -8.359375 L 10.59375 -8.21875 L 10.546875 -8.0625 L 10.484375 -7.796875 L 10.4375 -7.65625 L 10.390625 -7.390625 L 10.34375 -7.109375 L 10.296875 -6.953125 L 10.328125 -6.765625 L 10.28125 -6.640625 L 10.265625 -6.5 L 10.21875 -6.390625 L 10.203125 -6.25 L 10.1875 -6.125 L 10.1875 -5.859375 L 10.125 -5.734375 L 10.0625 -5.453125 L 10.015625 -5.265625 L 10 -5.09375 L 9.984375 -4.96875 L 9.953125 -4.828125 L 9.9375 -4.703125 L 9.9375 -4.59375 L 9.859375 -4.296875 L 9.8125 -4.015625 L 9.78125 -3.8125 L 9.703125 -3.640625 L 9.609375 -3.390625 L 9.59375 -3.171875 L 9.578125 -2.90625 L 9.53125 -2.640625 L 9.46875 -2.484375 L 9.390625 -2.203125 L 9.390625 -1.875 L 9.296875 -1.609375 L 9.296875 -1.5 L 9.25 -1.359375 L 9.1875 -1.09375 L 9.09375 -0.4375 L 8.90625 -0.203125 L 8.703125 -0.0625 L 8.421875 -0.046875 L 8.203125 0 L 8.125 0 L 7.734375 -0.015625 L 7.59375 0 L 7.390625 -0.015625 L 7.265625 0 L 6.875 0 L 6.609375 -0.015625 L 6.265625 -0.015625 L 6.09375 -0.15625 L 5.9375 -0.484375 L 5.84375 -0.765625 L 5.8125 -0.875 L 5.796875 -1.109375 L 5.78125 -1.234375 L 5.734375 -1.65625 L 5.71875 -1.78125 L 5.640625 -2.203125 L 5.609375 -2.328125 L 5.578125 -2.609375 L 5.5625 -2.90625 L 5.5 -3.125 L 5.4375 -3.4375 L 5.4375 -3.5625 L 5.375 -3.84375 L 5.359375 -3.953125 L 5.296875 -4.25 L 5.265625 -4.359375 L 5.265625 -4.671875 L 5.1875 -5.078125 L 5.15625 -5.453125 L 5.078125 -6.015625 L 4.96875 -6.671875 L 4.90625 -7.234375 L 4.78125 -7.953125 L 4.671875 -8.734375 L 4.609375 -8.734375 L 4.59375 -8.15625 L 4.5625 -7.765625 L 4.546875 -7.53125 L 4.5 -7.1875 L 4.484375 -6.6875 L 4.34375 -5.71875 L 4.265625 -4.921875 L 4.21875 -4.8125 L 4.15625 -4.546875 L 4.203125 -4.40625 L 4.140625 -4.15625 L 4.09375 -4.015625 L 4.125 -3.875 L 4.09375 -3.75 L 4.0625 -3.46875 L 3.984375 -3.171875 L 3.90625 -2.765625 L 3.859375 -2.484375 L 3.84375 -2.359375 L 3.796875 -2.21875 L 3.71875 -1.640625 L 3.65625 -1.375 L 3.640625 -1.234375 L 3.640625 -0.96875 L 3.59375 -0.84375 L 3.53125 -0.484375 L 3.453125 -0.25 L 3.390625 -0.046875 L 3.171875 0.046875 Z M 1.03125 0.046875 "/></g></g></g><g fill="#0a0a0a" fill-opacity="1"><g transform="translate(99.128299, 41.843208)"><g><path d="M 4.890625 0.328125 L 4.359375 0.265625 L 4.09375 0.28125 L 3.953125 0.265625 L 3.78125 0.25 L 3.3125 0.09375 L 3.15625 0.078125 L 2.84375 0 L 2.703125 -0.078125 L 2.421875 -0.265625 L 2.0625 -0.5625 L 1.78125 -0.890625 L 1.71875 -0.984375 L 1.609375 -1.09375 L 1.5625 -1.21875 L 1.453125 -1.359375 L 1.296875 -1.609375 L 1.296875 -1.734375 L 1.234375 -1.875 L 1.21875 -2 L 1.171875 -2.09375 L 1.125 -2.21875 L 1.109375 -2.359375 L 1.078125 -2.484375 L 1.046875 -2.765625 L 1.03125 -2.890625 L 0.96875 -3.296875 L 1.015625 -3.4375 L 1.015625 -3.8125 L 1.078125 -4.015625 L 1.046875 -4.1875 L 1.046875 -4.328125 L 1.09375 -4.765625 L 1.171875 -5.046875 L 1.171875 -5.21875 L 1.21875 -5.5 L 1.21875 -5.640625 L 1.296875 -5.921875 L 1.25 -6.015625 L 1.296875 -6.28125 L 1.328125 -6.421875 L 1.390625 -6.78125 L 1.453125 -7.03125 L 1.453125 -7.296875 L 1.515625 -7.53125 L 1.515625 -7.671875 L 1.578125 -7.796875 L 1.609375 -7.9375 L 1.609375 -8.0625 L 1.65625 -8.203125 L 1.640625 -8.328125 L 1.75 -8.53125 L 1.796875 -8.671875 L 1.796875 -8.953125 L 1.84375 -9.1875 L 1.90625 -9.328125 L 1.921875 -9.453125 L 1.953125 -9.734375 L 2.046875 -10.25 L 2.140625 -10.390625 L 2.1875 -10.640625 L 2.296875 -10.90625 L 2.359375 -11.046875 L 2.4375 -11.296875 L 2.546875 -11.578125 L 2.671875 -11.8125 L 2.75 -11.953125 L 2.921875 -12.21875 L 2.953125 -12.359375 L 3.03125 -12.484375 L 3.1875 -12.75 L 3.359375 -12.984375 L 3.5 -13.09375 L 3.59375 -13.21875 L 3.875 -13.515625 L 4.140625 -13.703125 L 4.296875 -13.765625 L 4.4375 -13.859375 L 4.6875 -14 L 4.921875 -14.125 L 5.234375 -14.203125 L 5.359375 -14.21875 L 5.65625 -14.296875 L 5.859375 -14.328125 L 6.21875 -14.390625 L 6.5 -14.40625 L 6.75 -14.421875 L 7.109375 -14.40625 L 7.234375 -14.390625 L 7.453125 -14.359375 L 7.78125 -14.328125 L 7.9375 -14.265625 L 8.09375 -14.25 L 8.21875 -14.203125 L 8.53125 -14.0625 L 8.890625 -13.8125 L 9.046875 -13.71875 L 9.15625 -13.59375 L 9.375 -13.421875 L 9.59375 -13.21875 L 9.703125 -13.09375 L 9.765625 -12.953125 L 9.875 -12.6875 L 9.9375 -12.5625 L 9.984375 -12.4375 L 10.015625 -12.296875 L 10.078125 -12 L 10.125 -11.609375 L 10.140625 -11.453125 L 10.140625 -11.3125 L 10.125 -11.046875 L 10.09375 -10.9375 L 10.125 -10.671875 L 10.125 -10.53125 L 10.09375 -10.265625 L 10.0625 -10.125 L 10.046875 -10 L 10.0625 -9.859375 L 10.0625 -9.65625 L 10.046875 -9.53125 L 10 -9.25 L 9.984375 -8.953125 L 9.953125 -8.625 L 9.921875 -8.484375 L 9.875 -8.15625 L 9.90625 -7.953125 L 9.796875 -7.734375 L 9.8125 -7.5 L 9.734375 -7.234375 L 9.703125 -6.96875 L 9.640625 -6.703125 L 9.609375 -6.46875 L 9.5625 -6.203125 L 9.5 -6.078125 L 9.4375 -5.71875 L 9.4375 -5.53125 L 9.390625 -5.390625 L 9.359375 -5.109375 L 9.296875 -4.984375 L 9.09375 -4.28125 L 9.109375 -4.15625 L 9.015625 -3.921875 L 8.953125 -3.796875 L 8.9375 -3.578125 L 8.828125 -3.359375 L 8.765625 -3.109375 L 8.765625 -2.96875 L 8.703125 -2.75 L 8.609375 -2.609375 L 8.59375 -2.40625 L 8.4375 -2.125 L 8.28125 -1.75 L 8.1875 -1.609375 L 8 -1.359375 L 7.921875 -1.234375 L 7.8125 -1.109375 L 7.78125 -0.984375 L 7.53125 -0.75 L 7.3125 -0.53125 L 7.078125 -0.34375 L 6.828125 -0.1875 L 6.75 -0.125 L 6.28125 0.0625 L 6.140625 0.078125 L 5.984375 0.125 L 5.703125 0.1875 L 5.5625 0.203125 L 5.328125 0.265625 Z M 4.734375 -2.421875 L 4.984375 -2.421875 L 5.265625 -2.5 L 5.453125 -2.59375 L 5.734375 -2.78125 L 5.875 -3.078125 L 6 -3.359375 L 6.046875 -3.5 L 6.046875 -3.65625 L 6.09375 -3.953125 L 6.140625 -4.09375 L 6.1875 -4.390625 L 6.25 -4.546875 L 6.265625 -4.828125 L 6.328125 -4.96875 L 6.390625 -5.234375 L 6.40625 -5.390625 L 6.46875 -5.515625 L 6.46875 -5.671875 L 6.4375 -5.734375 L 6.5 -5.921875 L 6.5625 -6.21875 L 6.609375 -6.6875 L 6.671875 -6.875 L 6.734375 -7.03125 L 6.765625 -7.421875 L 6.828125 -7.53125 L 6.8125 -7.875 L 6.890625 -8.1875 L 6.921875 -8.421875 L 6.96875 -8.59375 L 7.015625 -8.734375 L 6.984375 -8.875 L 7.015625 -9.125 L 7.046875 -9.296875 L 7.109375 -9.578125 L 7.15625 -9.765625 L 7.15625 -10.015625 L 7.1875 -10.390625 L 7.21875 -10.640625 L 7.25 -10.9375 L 7.171875 -11.328125 L 7.09375 -11.453125 L 6.953125 -11.640625 L 6.625 -11.78125 L 6.25 -11.765625 L 6.078125 -11.71875 L 5.765625 -11.59375 L 5.5625 -11.421875 L 5.421875 -11.1875 L 5.328125 -10.953125 L 5.25 -10.8125 L 5.125 -10.546875 L 5.09375 -10.40625 L 5.046875 -10.25 L 4.921875 -9.8125 L 4.921875 -9.78125 L 4.90625 -9.609375 L 4.84375 -9.328125 L 4.828125 -9.21875 L 4.75 -8.9375 L 4.6875 -8.640625 L 4.625 -8.328125 L 4.609375 -8.1875 L 4.5625 -8.046875 L 4.53125 -7.734375 L 4.46875 -7.578125 L 4.390625 -7.25 L 4.34375 -7.109375 L 4.296875 -6.828125 L 4.296875 -6.6875 L 4.28125 -6.546875 L 4.296875 -6.390625 L 4.25 -6.25 L 4.140625 -5.953125 L 4.15625 -5.796875 L 4.125 -5.65625 L 4.140625 -5.578125 L 4.09375 -5.390625 L 4.09375 -5.234375 L 4.0625 -5.09375 L 4.0625 -4.921875 L 4 -4.625 L 4 -4.484375 L 3.9375 -4.34375 L 4 -4.203125 L 3.984375 -3.953125 L 3.90625 -3.75 L 3.953125 -3.609375 L 3.953125 -3.046875 L 4.015625 -2.90625 L 4.0625 -2.828125 L 4.1875 -2.640625 L 4.28125 -2.546875 L 4.4375 -2.484375 L 4.609375 -2.4375 Z M 4.734375 -2.421875 "/></g></g></g><g fill="#0a0a0a" fill-opacity="1"><g transform="translate(108.926809, 41.843208)"><g><path d="M 9.359375 0.046875 L 9.046875 0.015625 L 7.609375 0.015625 L 7.515625 -0.0625 L 7.453125 -0.28125 L 7.4375 -0.5625 L 7.453125 -0.6875 L 7.421875 -0.96875 L 7.375 -1.296875 L 7.3125 -1.453125 L 7.328125 -1.71875 L 7.359375 -1.84375 L 7.3125 -2.265625 L 7.3125 -2.671875 L 7.25 -2.8125 L 7.296875 -2.921875 L 7.265625 -3.078125 L 7.296875 -3.359375 L 7.234375 -3.59375 L 7.265625 -3.8125 L 7.3125 -4.125 L 7.265625 -4.390625 L 7.234375 -4.5625 L 7.1875 -4.921875 L 7.1875 -5.078125 L 7.265625 -5.578125 L 7.25 -5.921875 L 7.234375 -6.28125 L 7.25 -6.640625 L 7.21875 -7.015625 L 7.109375 -7.015625 L 6.984375 -6.8125 L 6.953125 -6.671875 L 6.875 -6.546875 L 6.765625 -6.1875 L 6.625 -5.84375 L 6.5 -5.578125 L 6.015625 -4.40625 L 5.9375 -4.265625 L 5.578125 -3.453125 L 5.5625 -3.3125 L 5.4375 -3.078125 L 5.421875 -2.953125 L 5.359375 -2.734375 L 5.234375 -2.46875 L 5.109375 -2.21875 L 5.078125 -2.09375 L 5.015625 -1.859375 L 4.953125 -1.71875 L 4.875 -1.59375 L 4.8125 -1.3125 L 4.75 -1.171875 L 4.671875 -0.96875 L 4.609375 -0.78125 L 4.5625 -0.5625 L 4.421875 -0.34375 L 4.359375 -0.21875 L 4.328125 -0.125 L 4.046875 -0.015625 L 3.921875 -0.015625 L 3.734375 -0.078125 L 3.640625 -0.046875 L 3.171875 -0.0625 L 2.921875 0 L 2.734375 -0.078125 L 2.609375 -0.0625 L 2.40625 -0.0625 L 2.265625 -0.046875 L 2.0625 -0.046875 L 1.921875 -0.0625 L 1.796875 -0.25 L 1.8125 -0.40625 L 1.78125 -0.546875 L 1.796875 -0.75 L 1.796875 -0.921875 L 1.78125 -1.078125 L 1.796875 -1.3125 L 1.78125 -1.4375 L 1.796875 -1.578125 L 1.78125 -1.75 L 1.796875 -1.90625 L 1.8125 -2.125 L 1.8125 -2.328125 L 1.84375 -2.4375 L 1.859375 -2.734375 L 1.84375 -2.875 L 1.859375 -3.015625 L 1.84375 -3.296875 L 1.84375 -3.703125 L 1.859375 -3.8125 L 1.875 -4.09375 L 1.875 -5.21875 L 1.90625 -5.5 L 1.90625 -5.65625 L 1.9375 -6.015625 L 1.90625 -6.28125 L 1.921875 -6.46875 L 1.953125 -6.734375 L 1.953125 -6.875 L 2 -7.03125 L 1.984375 -7.171875 L 1.984375 -7.515625 L 2 -7.65625 L 2.015625 -7.90625 L 2 -8.046875 L 2.015625 -8.296875 L 2 -8.421875 L 2.015625 -8.703125 L 2 -8.875 L 2.046875 -9.015625 L 2.015625 -9.3125 L 2 -9.453125 L 2.015625 -10.046875 L 2.046875 -10.328125 L 2.015625 -10.59375 L 2.0625 -10.96875 L 2.078125 -11.109375 L 2.09375 -11.3125 L 2.09375 -11.5625 L 2.125 -11.859375 L 2.09375 -12.28125 L 2.09375 -12.421875 L 2.140625 -12.828125 L 2.140625 -12.953125 L 2.15625 -13.09375 L 2.140625 -13.328125 L 2.140625 -13.46875 L 2.15625 -13.59375 L 2.15625 -13.78125 L 2.203125 -14.0625 L 2.4375 -14.125 L 2.96875 -14.125 L 3.1875 -14.140625 L 3.390625 -14.125 L 3.5 -14.125 L 3.65625 -14.140625 L 4.0625 -14.140625 L 4.328125 -14.109375 L 4.546875 -14.125 L 4.6875 -14.125 L 4.90625 -14 L 4.953125 -13.65625 L 4.953125 -13.46875 L 4.96875 -13.328125 L 4.890625 -12.703125 L 4.890625 -12.59375 L 4.90625 -12.4375 L 4.890625 -11.703125 L 4.84375 -11.578125 L 4.828125 -11.109375 L 4.828125 -10.75 L 4.8125 -10.609375 L 4.75 -10.328125 L 4.75 -10.0625 L 4.78125 -9.78125 L 4.765625 -9.640625 L 4.75 -9.515625 L 4.734375 -9.234375 L 4.703125 -9.09375 L 4.703125 -8.96875 L 4.671875 -8.828125 L 4.671875 -8.703125 L 4.640625 -8.5625 L 4.671875 -8.4375 L 4.640625 -8 L 4.609375 -7.71875 L 4.625 -7.578125 L 4.609375 -7.421875 L 4.609375 -7.125 L 4.5625 -6.875 L 4.59375 -6.671875 L 4.671875 -6.671875 L 4.96875 -7.265625 L 5.015625 -7.421875 L 5.125 -7.671875 L 5.1875 -7.921875 L 5.328125 -8.1875 L 5.359375 -8.296875 L 5.640625 -8.78125 L 5.671875 -9.03125 L 5.8125 -9.390625 L 5.859375 -9.53125 L 6.046875 -9.90625 L 6.125 -10.140625 L 6.1875 -10.25 L 6.28125 -10.484375 L 6.34375 -10.609375 L 6.40625 -10.828125 L 6.53125 -11.109375 L 6.734375 -11.609375 L 6.765625 -11.765625 L 6.90625 -12.15625 L 7.03125 -12.421875 L 7.078125 -12.59375 L 7.1875 -12.953125 L 7.25 -13.078125 L 7.390625 -13.328125 L 7.59375 -13.4375 L 8.25 -13.4375 L 8.484375 -13.421875 L 8.6875 -13.4375 L 8.84375 -13.4375 L 8.984375 -13.421875 L 9.125 -13.421875 L 9.234375 -13.28125 L 9.25 -12.765625 L 9.25 -12.15625 L 9.265625 -11.84375 L 9.25 -11.421875 L 9.25 -11.296875 L 9.265625 -11.015625 L 9.25 -10.890625 L 9.265625 -10.140625 L 9.265625 -10 L 9.234375 -9.734375 L 9.25 -9.515625 L 9.25 -9.109375 L 9.265625 -8.953125 L 9.234375 -8.828125 L 9.25 -8.671875 L 9.234375 -8.53125 L 9.21875 -8.359375 L 9.25 -7.953125 L 9.234375 -7.234375 L 9.265625 -6.953125 L 9.265625 -6.609375 L 9.375 -6.609375 L 9.4375 -6.828125 L 9.53125 -7.078125 L 9.609375 -7.328125 L 9.78125 -7.90625 L 9.796875 -8.046875 L 9.84375 -8.15625 L 10.015625 -8.625 L 10.078125 -8.875 L 10.140625 -8.984375 L 10.1875 -9.125 L 10.21875 -9.25 L 10.28125 -9.390625 L 10.34375 -9.515625 L 10.421875 -9.78125 L 10.46875 -9.9375 L 10.546875 -10.1875 L 10.5625 -10.328125 L 10.609375 -10.4375 L 10.640625 -10.59375 L 10.78125 -10.828125 L 10.8125 -10.96875 L 10.875 -11.21875 L 10.96875 -11.734375 L 11.109375 -12 L 11.1875 -12.265625 L 11.25 -12.484375 L 11.359375 -12.703125 L 11.453125 -12.984375 L 11.515625 -13.109375 L 11.609375 -13.390625 L 11.640625 -13.53125 L 11.671875 -13.65625 L 11.796875 -13.921875 L 11.859375 -14.015625 L 12.109375 -14.125 L 12.25 -14.125 L 12.390625 -14.15625 L 13.015625 -14.140625 L 13.421875 -14.140625 L 13.84375 -14.15625 L 14.125 -14.140625 L 14.265625 -14.15625 L 14.40625 -14.140625 L 14.609375 -14.140625 L 14.734375 -14.015625 L 14.6875 -13.671875 L 14.640625 -13.5625 L 14.5625 -13.328125 L 14.5 -13.21875 L 14.296875 -12.734375 L 14.21875 -12.484375 L 14.15625 -12.203125 L 14.078125 -11.9375 L 14.015625 -11.796875 L 14 -11.671875 L 13.84375 -11.421875 L 13.796875 -11.265625 L 13.65625 -10.890625 L 13.609375 -10.75 L 13.515625 -10.5 L 13.5 -10.359375 L 13.328125 -10 L 13.296875 -9.8125 L 13.25 -9.71875 L 13.125 -9.453125 L 13.09375 -9.328125 L 12.984375 -9.015625 L 12.90625 -8.890625 L 12.8125 -8.625 L 12.75 -8.484375 L 12.703125 -8.34375 L 12.640625 -8.0625 L 12.609375 -7.9375 L 12.53125 -7.796875 L 12.4375 -7.578125 L 12.296875 -7.328125 L 12.203125 -7.046875 L 12.140625 -6.828125 L 12 -6.640625 L 11.953125 -6.53125 L 11.9375 -6.40625 L 11.8125 -5.921875 L 11.71875 -5.65625 L 11.65625 -5.53125 L 11.578125 -5.296875 L 11.421875 -4.96875 L 11.359375 -4.6875 L 11.1875 -4.40625 L 11.125 -4.125 L 11.046875 -3.984375 L 11.03125 -3.84375 L 10.875 -3.421875 L 10.828125 -3.296875 L 10.734375 -3.015625 L 10.6875 -2.890625 L 10.609375 -2.75 L 10.5625 -2.484375 L 10.53125 -2.34375 L 10.40625 -2.09375 L 10.328125 -1.84375 L 10.265625 -1.671875 L 10.15625 -1.390625 L 10.140625 -1.265625 L 10.078125 -1.015625 L 9.796875 -0.53125 L 9.65625 -0.015625 Z M 9.359375 0.046875 "/></g></g></g></svg>