<svg xmlns="http://www.w3.org/2000/svg" xmlns:xlink="http://www.w3.org/1999/xlink" width="50" zoomAndPan="magnify" viewBox="0 0 37.5 37.499999" height="50" preserveAspectRatio="xMidYMid meet" version="1.0"><defs><g/><clipPath id="e2f7b79f56"><path d="M 2.34375 2.089844 L 34.65625 2.089844 L 34.65625 34.65625 L 2.34375 34.65625 Z M 2.34375 2.089844 " clip-rule="nonzero"/></clipPath></defs><g clip-path="url(#e2f7b79f56)"><path fill="#00bf63" d="M 4.292969 4.292969 C 5.296875 6.847656 7.664062 12.363281 10.277344 14.976562 C 11.617188 16.316406 13.351562 17.695312 15.089844 18.804688 C 15.089844 18.804688 11.523438 14.839844 7.875 7.875 C 14.839844 11.523438 18.804688 15.089844 18.804688 15.089844 C 17.695312 13.351562 16.316406 11.617188 14.976562 10.277344 C 12.363281 7.664062 6.847656 5.296875 4.292969 4.292969 Z M 12.953125 23.589844 C 12.816406 22.398438 12.867188 20.972656 13.59375 19.945312 C 12.382812 19.132812 11.1875 18.210938 10.128906 17.273438 C 10.253906 18.949219 10.886719 21.226562 12.953125 23.589844 Z M 23.589844 12.953125 C 21.226562 10.886719 18.949219 10.253906 17.273438 10.128906 C 18.210938 11.1875 19.132812 12.382812 19.945312 13.59375 C 20.972656 12.867188 22.398438 12.816406 23.589844 12.953125 Z M 3.382812 2.542969 C 3.726562 2.664062 11.511719 5.425781 15.394531 8.863281 L 15.707031 8.835938 C 17.855469 8.628906 22.070312 8.984375 26.125 13.644531 L 27.753906 15.519531 L 25.410156 14.695312 C 24.351562 14.324219 21.375 13.65625 20.347656 15.011719 L 20.324219 15.042969 L 20.472656 15.285156 L 15.285156 20.472656 L 15.042969 20.324219 L 15.015625 20.347656 C 13.664062 21.371094 14.328125 24.347656 14.695312 25.410156 L 15.519531 27.753906 L 13.644531 26.125 C 8.984375 22.070312 8.628906 17.855469 8.835938 15.707031 L 8.863281 15.394531 C 5.425781 11.511719 2.664062 3.726562 2.542969 3.382812 L 2.089844 2.089844 Z M 34.910156 34.910156 L 17.910156 21.054688 L 21.054688 17.910156 Z M 20.699219 17.113281 L 17.113281 20.699219 C 16.777344 20.535156 16.429688 20.355469 16.078125 20.160156 L 20.160156 16.078125 C 20.355469 16.429688 20.535156 16.777344 20.699219 17.113281 " fill-opacity="1" fill-rule="nonzero"/></g><g fill="#000000" fill-opacity="1"><g transform="translate(28.627132, 35.645792)"><g><path d="M 1.046875 0.03125 C 0.898438 0.03125 0.765625 0.0078125 0.640625 -0.03125 C 0.523438 -0.0703125 0.425781 -0.125 0.34375 -0.1875 C 0.257812 -0.257812 0.203125 -0.332031 0.171875 -0.40625 L 0.3125 -0.59375 L 0.359375 -0.59375 C 0.503906 -0.34375 0.734375 -0.21875 1.046875 -0.21875 C 1.234375 -0.21875 1.367188 -0.253906 1.453125 -0.328125 C 1.546875 -0.410156 1.59375 -0.519531 1.59375 -0.65625 C 1.59375 -0.726562 1.578125 -0.789062 1.546875 -0.84375 C 1.515625 -0.90625 1.460938 -0.953125 1.390625 -0.984375 C 1.328125 -1.023438 1.238281 -1.0625 1.125 -1.09375 L 0.84375 -1.15625 C 0.632812 -1.207031 0.476562 -1.289062 0.375 -1.40625 C 0.28125 -1.519531 0.234375 -1.660156 0.234375 -1.828125 C 0.234375 -1.941406 0.265625 -2.046875 0.328125 -2.140625 C 0.390625 -2.234375 0.476562 -2.304688 0.59375 -2.359375 C 0.71875 -2.410156 0.859375 -2.4375 1.015625 -2.4375 C 1.203125 -2.4375 1.359375 -2.410156 1.484375 -2.359375 C 1.609375 -2.316406 1.707031 -2.242188 1.78125 -2.140625 L 1.640625 -1.953125 L 1.59375 -1.953125 C 1.53125 -2.035156 1.453125 -2.097656 1.359375 -2.140625 C 1.265625 -2.179688 1.148438 -2.203125 1.015625 -2.203125 C 0.847656 -2.203125 0.722656 -2.164062 0.640625 -2.09375 C 0.554688 -2.03125 0.515625 -1.941406 0.515625 -1.828125 C 0.515625 -1.722656 0.546875 -1.632812 0.609375 -1.5625 C 0.671875 -1.5 0.773438 -1.453125 0.921875 -1.421875 L 1.21875 -1.359375 C 1.445312 -1.296875 1.613281 -1.207031 1.71875 -1.09375 C 1.820312 -0.976562 1.875 -0.835938 1.875 -0.671875 C 1.875 -0.523438 1.84375 -0.398438 1.78125 -0.296875 C 1.726562 -0.191406 1.640625 -0.109375 1.515625 -0.046875 C 1.390625 0.00390625 1.234375 0.03125 1.046875 0.03125 Z M 1.046875 0.03125 "/></g></g><g transform="translate(30.687366, 35.645792)"><g><path d="M 1.78125 -2.40625 L 1.78125 -2.171875 L 0.640625 -2.171875 L 0.640625 -1.296875 L 1.671875 -1.296875 L 1.671875 -1.0625 L 0.640625 -1.0625 L 0.640625 0 L 0.359375 0 L 0.359375 -2.40625 Z M 1.78125 -2.40625 "/></g></g></g></svg>