<svg xmlns="http://www.w3.org/2000/svg" xmlns:xlink="http://www.w3.org/1999/xlink" width="180" zoomAndPan="magnify" viewBox="0 0 135 52.499999" height="70" preserveAspectRatio="xMidYMid meet" version="1.0"><defs><g/><clipPath id="ddad3a68b3"><path d="M 0.636719 0 L 134.363281 0 L 134.363281 52.003906 L 0.636719 52.003906 Z M 0.636719 0 " clip-rule="nonzero"/></clipPath><clipPath id="03c87eeaa2"><path d="M 8.789062 7.851562 L 44.867188 7.851562 L 44.867188 44.253906 L 8.789062 44.253906 Z M 8.789062 7.851562 " clip-rule="nonzero"/></clipPath></defs><g clip-path="url(#ddad3a68b3)"><path fill="#ffffff" d="M 0.636719 0 L 134.363281 0 L 134.363281 52.003906 L 0.636719 52.003906 Z M 0.636719 0 " fill-opacity="1" fill-rule="nonzero"/><path fill="#ffffff" d="M 0.636719 0 L 134.363281 0 L 134.363281 52.003906 L 0.636719 52.003906 Z M 0.636719 0 " fill-opacity="1" fill-rule="nonzero"/></g><g fill="#00bf63" fill-opacity="1"><g transform="translate(43.758943, 30.481177)"><g><path d="M 3.8125 -5.875 L 3.671875 -4.71875 C 3.671875 -3.5 4.082031 -2.664062 4.90625 -2.21875 C 5.1875 -2.070312 5.519531 -2 5.90625 -2 C 6.300781 -2 6.65625 -2.066406 6.96875 -2.203125 C 7.28125 -2.335938 7.539062 -2.515625 7.75 -2.734375 C 8.164062 -3.191406 8.375 -3.71875 8.375 -4.3125 C 8.375 -4.90625 8.253906 -5.441406 8.015625 -5.921875 C 7.773438 -6.410156 7.472656 -6.894531 7.109375 -7.375 L 5.890625 -8.859375 C 4.921875 -10.023438 4.269531 -11.085938 3.9375 -12.046875 C 3.601562 -13.015625 3.4375 -13.898438 3.4375 -14.703125 C 3.4375 -15.515625 3.53125 -16.28125 3.71875 -17 C 3.914062 -17.71875 4.191406 -18.398438 4.546875 -19.046875 C 4.898438 -19.703125 5.320312 -20.300781 5.8125 -20.84375 C 6.3125 -21.394531 6.863281 -21.867188 7.46875 -22.265625 C 8.726562 -23.109375 9.976562 -23.53125 11.21875 -23.53125 C 12.457031 -23.53125 13.425781 -23.359375 14.125 -23.015625 C 14.820312 -22.671875 15.378906 -22.238281 15.796875 -21.71875 C 16.585938 -20.726562 16.984375 -19.53125 16.984375 -18.125 C 16.984375 -16.832031 16.613281 -15.609375 15.875 -14.453125 C 15.195312 -13.410156 14.441406 -12.742188 13.609375 -12.453125 C 13.429688 -12.367188 13.179688 -12.328125 12.859375 -12.328125 C 12.546875 -12.328125 12.28125 -12.375 12.0625 -12.46875 C 11.84375 -12.5625 11.65625 -12.691406 11.5 -12.859375 C 11.144531 -13.203125 10.96875 -13.582031 10.96875 -14 C 10.96875 -14.28125 11.050781 -14.46875 11.21875 -14.5625 C 11.988281 -14.976562 12.65625 -15.578125 13.21875 -16.359375 C 13.832031 -17.210938 14.15625 -18.066406 14.1875 -18.921875 C 14.21875 -19.773438 14.007812 -20.40625 13.5625 -20.8125 C 13.125 -21.21875 12.539062 -21.421875 11.8125 -21.421875 C 11.09375 -21.421875 10.441406 -21.253906 9.859375 -20.921875 C 9.273438 -20.597656 8.769531 -20.160156 8.34375 -19.609375 C 7.4375 -18.421875 6.984375 -17.015625 6.984375 -15.390625 C 6.984375 -14.316406 7.359375 -13.175781 8.109375 -11.96875 C 8.421875 -11.457031 8.757812 -10.953125 9.125 -10.453125 C 9.488281 -9.953125 9.832031 -9.441406 10.15625 -8.921875 C 10.894531 -7.703125 11.265625 -6.609375 11.265625 -5.640625 C 11.265625 -4.671875 11.085938 -3.851562 10.734375 -3.1875 C 10.390625 -2.519531 9.929688 -1.941406 9.359375 -1.453125 C 8.117188 -0.378906 6.707031 0.15625 5.125 0.15625 C 3.632812 0.15625 2.484375 -0.285156 1.671875 -1.171875 C 1.023438 -1.890625 0.703125 -2.671875 0.703125 -3.515625 C 0.703125 -4.421875 0.960938 -5.1875 1.484375 -5.8125 C 1.878906 -6.28125 2.253906 -6.5625 2.609375 -6.65625 C 3.410156 -6.863281 3.8125 -6.601562 3.8125 -5.875 Z M 3.8125 -5.875 "/></g></g></g><g fill="#00bf63" fill-opacity="1"><g transform="translate(58.434548, 30.481177)"><g><path d="M 11.28125 -3.4375 C 11.28125 -4.789062 11.671875 -6.875 12.453125 -9.6875 C 10.015625 -9.632812 8.148438 -9.566406 6.859375 -9.484375 C 6.472656 -8.765625 6.117188 -8.082031 5.796875 -7.4375 L 4.859375 -5.578125 C 3.617188 -3.140625 2.503906 -1.53125 1.515625 -0.75 C 0.753906 -0.144531 -0.046875 0.15625 -0.890625 0.15625 C -1.535156 0.15625 -2.023438 -0.0546875 -2.359375 -0.484375 C -2.484375 -0.648438 -2.550781 -0.8125 -2.5625 -0.96875 C -2.582031 -1.125 -2.550781 -1.226562 -2.46875 -1.28125 C -1.300781 -1.71875 -0.359375 -2.378906 0.359375 -3.265625 C 0.992188 -4.054688 1.628906 -5.03125 2.265625 -6.1875 L 3.984375 -9.234375 L 3.03125 -9.109375 C 2.425781 -8.992188 2.125 -9.085938 2.125 -9.390625 C 2.125 -9.691406 2.300781 -9.976562 2.65625 -10.25 C 3.289062 -10.726562 3.910156 -11.039062 4.515625 -11.1875 L 5.171875 -11.34375 C 6.828125 -14.070312 8.085938 -15.976562 8.953125 -17.0625 C 9.828125 -18.15625 10.625 -19.0625 11.34375 -19.78125 C 12.070312 -20.507812 12.832031 -21.15625 13.625 -21.71875 C 15.363281 -22.914062 17.082031 -23.515625 18.78125 -23.515625 C 19.289062 -23.515625 19.640625 -23.410156 19.828125 -23.203125 C 20.128906 -22.867188 20.222656 -22.507812 20.109375 -22.125 C 20.003906 -21.75 19.820312 -21.207031 19.5625 -20.5 C 17.957031 -16.101562 16.976562 -13.382812 16.625 -12.34375 C 16.78125 -12.351562 16.925781 -12.359375 17.0625 -12.359375 L 17.390625 -12.359375 C 18.515625 -12.359375 19.117188 -12.242188 19.203125 -12.015625 C 19.222656 -11.953125 19.234375 -11.828125 19.234375 -11.640625 C 19.234375 -11.453125 19.175781 -11.234375 19.0625 -10.984375 C 18.945312 -10.742188 18.757812 -10.539062 18.5 -10.375 C 17.957031 -10.007812 17.054688 -9.796875 15.796875 -9.734375 C 15.117188 -7.367188 14.726562 -5.734375 14.625 -4.828125 C 14.53125 -3.921875 14.5625 -3.304688 14.71875 -2.984375 C 14.875 -2.671875 15.09375 -2.515625 15.375 -2.515625 C 15.664062 -2.515625 15.898438 -2.539062 16.078125 -2.59375 C 16.265625 -2.644531 16.429688 -2.707031 16.578125 -2.78125 L 16.96875 -2.96875 C 17.070312 -3.019531 17.175781 -3.046875 17.28125 -3.046875 C 17.382812 -3.046875 17.46875 -2.976562 17.53125 -2.84375 C 17.601562 -2.707031 17.640625 -2.53125 17.640625 -2.3125 C 17.640625 -2.09375 17.546875 -1.828125 17.359375 -1.515625 C 17.179688 -1.210938 16.941406 -0.941406 16.640625 -0.703125 C 15.929688 -0.128906 15.132812 0.15625 14.25 0.15625 C 12.882812 0.15625 11.976562 -0.445312 11.53125 -1.65625 C 11.363281 -2.082031 11.28125 -2.460938 11.28125 -2.796875 Z M 8.25 -11.875 C 10.050781 -12.101562 11.71875 -12.238281 13.25 -12.28125 C 13.53125 -13.144531 13.832031 -14 14.15625 -14.84375 L 15.09375 -17.265625 C 15.414062 -18.035156 15.734375 -18.765625 16.046875 -19.453125 L 16.921875 -21.3125 C 14.828125 -20.757812 12.753906 -18.945312 10.703125 -15.875 C 10.273438 -15.226562 9.851562 -14.5625 9.4375 -13.875 Z M 8.25 -11.875 "/></g></g></g><g fill="#00bf63" fill-opacity="1"><g transform="translate(77.493182, 30.481177)"><g><path d="M 15.59375 -3.96875 C 15.59375 -3 15.945312 -2.515625 16.65625 -2.515625 C 17.082031 -2.515625 17.46875 -2.601562 17.8125 -2.78125 C 18.164062 -2.957031 18.394531 -3.046875 18.5 -3.046875 C 18.707031 -3.046875 18.8125 -2.9375 18.8125 -2.71875 C 18.8125 -1.832031 18.335938 -1.085938 17.390625 -0.484375 C 16.742188 -0.0546875 16.128906 0.15625 15.546875 0.15625 C 14.960938 0.15625 14.488281 0.0859375 14.125 -0.046875 C 13.769531 -0.179688 13.460938 -0.398438 13.203125 -0.703125 C 12.648438 -1.304688 12.375 -2.207031 12.375 -3.40625 C 12.375 -4.351562 12.546875 -5.453125 12.890625 -6.703125 C 13.242188 -7.953125 13.503906 -8.835938 13.671875 -9.359375 L 12.09375 -6.96875 C 8.84375 -2.21875 6.097656 0.15625 3.859375 0.15625 C 2.335938 0.15625 1.332031 -0.476562 0.84375 -1.75 C 0.695312 -2.164062 0.625 -2.53125 0.625 -2.84375 L 0.625 -3.421875 C 0.625 -4.691406 1.332031 -7.019531 2.75 -10.40625 L 5.890625 -17.71875 C 6.492188 -19.175781 6.796875 -20.070312 6.796875 -20.40625 C 6.796875 -20.75 6.734375 -21.003906 6.609375 -21.171875 C 6.492188 -21.347656 6.363281 -21.488281 6.21875 -21.59375 L 5.8125 -21.890625 C 5.6875 -21.972656 5.625 -22.09375 5.625 -22.25 C 5.625 -22.414062 5.703125 -22.578125 5.859375 -22.734375 C 6.023438 -22.898438 6.238281 -23.046875 6.5 -23.171875 C 7.019531 -23.398438 7.535156 -23.515625 8.046875 -23.515625 C 8.554688 -23.515625 8.945312 -23.460938 9.21875 -23.359375 C 9.5 -23.253906 9.734375 -23.117188 9.921875 -22.953125 C 10.273438 -22.617188 10.453125 -22.21875 10.453125 -21.75 C 10.453125 -21.28125 10.363281 -20.726562 10.1875 -20.09375 C 10.007812 -19.457031 9.773438 -18.765625 9.484375 -18.015625 C 9.203125 -17.265625 8.875 -16.472656 8.5 -15.640625 L 6.203125 -10.578125 C 4.734375 -7.367188 4 -5.242188 4 -4.203125 L 4 -3.984375 C 4 -3.023438 4.363281 -2.546875 5.09375 -2.546875 C 6.425781 -2.546875 8.15625 -4.210938 10.28125 -7.546875 C 10.914062 -8.535156 11.550781 -9.578125 12.1875 -10.671875 L 14.03125 -14.0625 C 16.675781 -19.175781 18.195312 -22.085938 18.59375 -22.796875 C 18.800781 -23.160156 19.085938 -23.34375 19.453125 -23.34375 C 19.828125 -23.34375 20.140625 -23.289062 20.390625 -23.1875 C 20.648438 -23.082031 20.867188 -22.941406 21.046875 -22.765625 C 21.472656 -22.367188 21.578125 -21.96875 21.359375 -21.5625 C 20.410156 -19.738281 19.25 -16.820312 17.875 -12.8125 C 16.351562 -8.394531 15.59375 -5.445312 15.59375 -3.96875 Z M 15.59375 -3.96875 "/></g></g></g><g fill="#00bf63" fill-opacity="1"><g transform="translate(96.823866, 30.481177)"><g><path d="M 1.484375 -3.5625 C 1.578125 -4.21875 1.769531 -5.125 2.0625 -6.28125 C 2.363281 -7.4375 2.75 -8.671875 3.21875 -9.984375 C 4.269531 -12.984375 5.523438 -15.660156 6.984375 -18.015625 C 7.179688 -18.335938 7.4375 -18.519531 7.75 -18.5625 C 8.195312 -18.625 8.585938 -18.65625 8.921875 -18.65625 C 9.253906 -18.65625 9.554688 -18.617188 9.828125 -18.546875 C 10.097656 -18.472656 10.304688 -18.375 10.453125 -18.25 C 10.753906 -18 10.804688 -17.734375 10.609375 -17.453125 C 8.785156 -14.703125 7.191406 -11.34375 5.828125 -7.375 C 5.316406 -5.863281 5.007812 -4.8125 4.90625 -4.21875 C 4.800781 -3.632812 4.726562 -3.234375 4.6875 -3.015625 C 4.644531 -2.796875 4.625 -2.609375 4.625 -2.453125 C 4.625 -2.117188 4.832031 -1.953125 5.25 -1.953125 C 5.675781 -1.953125 6.148438 -2.050781 6.671875 -2.25 C 7.203125 -2.445312 7.769531 -2.722656 8.375 -3.078125 C 8.976562 -3.429688 9.601562 -3.863281 10.25 -4.375 C 10.90625 -4.894531 11.546875 -5.472656 12.171875 -6.109375 C 12.796875 -6.753906 13.382812 -7.445312 13.9375 -8.1875 C 14.488281 -8.9375 14.972656 -9.726562 15.390625 -10.5625 C 16.304688 -12.375 16.765625 -14.160156 16.765625 -15.921875 C 16.765625 -18.335938 15.78125 -19.945312 13.8125 -20.75 C 13.125 -21.019531 12.410156 -21.15625 11.671875 -21.15625 C 10.929688 -21.15625 10.300781 -21.109375 9.78125 -21.015625 C 9.269531 -20.921875 8.78125 -20.785156 8.3125 -20.609375 C 7.351562 -20.265625 6.546875 -19.804688 5.890625 -19.234375 C 5.710938 -19.128906 5.503906 -19.078125 5.265625 -19.078125 C 5.023438 -19.078125 4.765625 -19.144531 4.484375 -19.28125 C 4.210938 -19.425781 3.96875 -19.609375 3.75 -19.828125 C 3.238281 -20.316406 3.035156 -20.789062 3.140625 -21.25 C 3.242188 -21.894531 4.210938 -22.453125 6.046875 -22.921875 C 7.578125 -23.316406 9.117188 -23.515625 10.671875 -23.515625 C 12.222656 -23.515625 13.617188 -23.300781 14.859375 -22.875 C 16.109375 -22.457031 17.117188 -21.890625 17.890625 -21.171875 C 19.347656 -19.816406 20.078125 -18.003906 20.078125 -15.734375 C 20.078125 -12.734375 19.035156 -9.835938 16.953125 -7.046875 C 15.046875 -4.453125 12.78125 -2.488281 10.15625 -1.15625 C 8.445312 -0.28125 6.878906 0.15625 5.453125 0.15625 C 4.328125 0.15625 3.363281 -0.171875 2.5625 -0.828125 C 1.695312 -1.523438 1.335938 -2.4375 1.484375 -3.5625 Z M 1.484375 -3.5625 "/></g></g></g><g fill="#00bf63" fill-opacity="1"><g transform="translate(116.335917, 30.481177)"><g><path d="M -0.125 -1.390625 C 1.625 -2.671875 3.382812 -5.96875 5.15625 -11.28125 C 6.1875 -14.375 6.898438 -17.164062 7.296875 -19.65625 C 7.410156 -20.351562 7.46875 -20.890625 7.46875 -21.265625 C 7.050781 -21.242188 6.671875 -21.128906 6.328125 -20.921875 L 5.1875 -20.28125 C 4.875 -20.101562 4.457031 -20.234375 3.9375 -20.671875 C 3.414062 -21.117188 3.175781 -21.5 3.21875 -21.8125 C 3.269531 -22.125 3.441406 -22.375 3.734375 -22.5625 C 4.035156 -22.757812 4.382812 -22.929688 4.78125 -23.078125 C 5.601562 -23.367188 6.296875 -23.515625 6.859375 -23.515625 C 7.421875 -23.515625 7.914062 -23.46875 8.34375 -23.375 C 8.769531 -23.289062 9.160156 -23.148438 9.515625 -22.953125 C 10.316406 -22.492188 10.726562 -21.828125 10.75 -20.953125 C 10.789062 -19.453125 10.28125 -16.90625 9.21875 -13.3125 C 7.550781 -7.613281 5.585938 -3.609375 3.328125 -1.296875 C 2.710938 -0.660156 2.070312 -0.226562 1.40625 0 C 1.226562 0.0703125 1.046875 0.109375 0.859375 0.109375 C 0.671875 0.109375 0.5 0.0703125 0.34375 0 C 0.195312 -0.0625 0.0703125 -0.140625 -0.03125 -0.234375 C -0.238281 -0.429688 -0.34375 -0.644531 -0.34375 -0.875 C -0.34375 -1.101562 -0.269531 -1.273438 -0.125 -1.390625 Z M -0.125 -1.390625 "/></g></g></g><g clip-path="url(#03c87eeaa2)"><path fill="#00bf63" d="M 10.933594 10.320312 C 12.058594 13.179688 14.703125 19.351562 17.628906 22.277344 C 19.125 23.777344 21.066406 25.316406 23.015625 26.558594 C 23.015625 26.558594 19.023438 22.121094 14.941406 14.328125 C 22.734375 18.410156 27.171875 22.402344 27.171875 22.402344 C 25.929688 20.453125 24.386719 18.515625 22.886719 17.015625 C 19.964844 14.089844 13.789062 11.445312 10.933594 10.320312 Z M 20.625 31.914062 C 20.46875 30.578125 20.527344 28.984375 21.34375 27.832031 C 19.984375 26.925781 18.644531 25.890625 17.464844 24.84375 C 17.601562 26.722656 18.3125 29.269531 20.625 31.914062 Z M 32.527344 20.011719 C 29.882812 17.699219 27.335938 16.988281 25.457031 16.851562 C 26.503906 18.03125 27.539062 19.375 28.445312 20.730469 C 29.597656 19.917969 31.191406 19.855469 32.527344 20.011719 Z M 9.910156 8.359375 C 10.296875 8.496094 19.011719 11.585938 23.355469 15.433594 L 23.703125 15.402344 C 26.109375 15.171875 30.824219 15.566406 35.363281 20.785156 L 37.1875 22.882812 L 34.5625 21.960938 C 33.378906 21.546875 30.046875 20.796875 28.898438 22.316406 L 28.871094 22.351562 L 29.035156 22.617188 L 23.230469 28.421875 L 22.964844 28.257812 L 22.929688 28.285156 C 21.417969 29.429688 22.160156 32.761719 22.574219 33.949219 L 23.496094 36.574219 L 21.394531 34.75 C 16.179688 30.210938 15.785156 25.496094 16.015625 23.089844 L 16.046875 22.742188 C 12.199219 18.398438 9.109375 9.683594 8.972656 9.300781 L 8.464844 7.851562 Z M 45.195312 44.582031 L 26.171875 29.074219 L 29.6875 25.558594 Z M 29.289062 24.664062 L 25.277344 28.675781 C 24.902344 28.496094 24.515625 28.296875 24.121094 28.078125 L 28.691406 23.507812 C 28.90625 23.902344 29.109375 24.289062 29.289062 24.664062 " fill-opacity="1" fill-rule="nonzero"/></g><g fill="#0a0a0a" fill-opacity="1"><g transform="translate(43.758943, 43.697904)"><g><path d="M 8.015625 -12.3125 L 8.015625 -9.84375 L 3.703125 -9.84375 L 3.703125 -7.40625 L 7.6875 -7.40625 L 7.6875 -4.9375 L 3.703125 -4.9375 L 3.703125 0 L 0.890625 0 L 0.890625 -12.3125 Z M 8.015625 -12.3125 "/></g></g></g><g fill="#0a0a0a" fill-opacity="1"><g transform="translate(51.231205, 43.697904)"><g><path d="M 0.34375 -6.15625 C 0.34375 -7.9375 0.945312 -9.441406 2.15625 -10.671875 C 3.375 -11.910156 4.835938 -12.53125 6.546875 -12.53125 C 8.265625 -12.53125 9.726562 -11.914062 10.9375 -10.6875 C 12.144531 -9.457031 12.75 -7.945312 12.75 -6.15625 C 12.75 -4.363281 12.15625 -2.851562 10.96875 -1.625 C 9.78125 -0.394531 8.304688 0.21875 6.546875 0.21875 C 4.742188 0.21875 3.257812 -0.390625 2.09375 -1.609375 C 0.925781 -2.828125 0.34375 -4.34375 0.34375 -6.15625 Z M 3.375 -6.15625 C 3.375 -5.507812 3.472656 -4.921875 3.671875 -4.390625 C 3.867188 -3.859375 4.21875 -3.40625 4.71875 -3.03125 C 5.21875 -2.664062 5.828125 -2.484375 6.546875 -2.484375 C 7.597656 -2.484375 8.390625 -2.84375 8.921875 -3.5625 C 9.453125 -4.28125 9.71875 -5.144531 9.71875 -6.15625 C 9.71875 -7.164062 9.445312 -8.03125 8.90625 -8.75 C 8.363281 -9.46875 7.578125 -9.828125 6.546875 -9.828125 C 5.535156 -9.828125 4.753906 -9.46875 4.203125 -8.75 C 3.648438 -8.03125 3.375 -7.164062 3.375 -6.15625 Z M 3.375 -6.15625 "/></g></g></g><g fill="#0a0a0a" fill-opacity="1"><g transform="translate(63.327489, 43.697904)"><g><path d="M 10.359375 -12.3125 L 10.359375 -4.375 C 10.359375 -2.863281 9.945312 -1.71875 9.125 -0.9375 C 8.3125 -0.164062 7.117188 0.21875 5.546875 0.21875 C 3.972656 0.21875 2.78125 -0.164062 1.96875 -0.9375 C 1.15625 -1.71875 0.75 -2.863281 0.75 -4.375 L 0.75 -12.3125 L 3.546875 -12.3125 L 3.546875 -5.1875 C 3.546875 -4.195312 3.703125 -3.503906 4.015625 -3.109375 C 4.328125 -2.722656 4.835938 -2.53125 5.546875 -2.53125 C 6.253906 -2.53125 6.765625 -2.722656 7.078125 -3.109375 C 7.390625 -3.503906 7.546875 -4.195312 7.546875 -5.1875 L 7.546875 -12.3125 Z M 10.359375 -12.3125 "/></g></g></g><g fill="#0a0a0a" fill-opacity="1"><g transform="translate(73.439914, 43.697904)"><g><path d="M 3.703125 -7.640625 L 3.703125 0 L 0.890625 0 L 0.890625 -12.3125 L 3.703125 -12.3125 L 8.59375 -4.671875 L 8.625 -4.671875 L 8.625 -12.3125 L 11.4375 -12.3125 L 11.4375 0 L 8.625 0 L 3.734375 -7.640625 Z M 3.703125 -7.640625 "/></g></g></g><g fill="#0a0a0a" fill-opacity="1"><g transform="translate(84.77547, 43.697904)"><g><path d="M 0.890625 -12.3125 L 4.46875 -12.3125 C 6.175781 -12.3125 7.632812 -11.722656 8.84375 -10.546875 C 10.0625 -9.378906 10.671875 -7.914062 10.671875 -6.15625 C 10.671875 -4.382812 10.066406 -2.914062 8.859375 -1.75 C 7.648438 -0.582031 6.1875 0 4.46875 0 L 0.890625 0 Z M 3.703125 -2.5 L 4.140625 -2.5 C 5.160156 -2.5 5.992188 -2.84375 6.640625 -3.53125 C 7.296875 -4.226562 7.628906 -5.097656 7.640625 -6.140625 C 7.640625 -7.191406 7.3125 -8.0625 6.65625 -8.75 C 6.007812 -9.445312 5.171875 -9.796875 4.140625 -9.796875 L 3.703125 -9.796875 Z M 3.703125 -2.5 "/></g></g></g><g fill="#0a0a0a" fill-opacity="1"><g transform="translate(94.798398, 43.697904)"><g><path d="M 7.9375 -12.3125 L 7.9375 -9.84375 L 3.703125 -9.84375 L 3.703125 -7.40625 L 7.765625 -7.40625 L 7.765625 -4.9375 L 3.703125 -4.9375 L 3.703125 -2.46875 L 7.9375 -2.46875 L 7.9375 0 L 0.890625 0 L 0.890625 -12.3125 Z M 7.9375 -12.3125 "/></g></g></g><g fill="#0a0a0a" fill-opacity="1"><g transform="translate(102.464564, 43.697904)"><g><path d="M 0.890625 -12.3125 L 5.296875 -12.3125 C 6.484375 -12.3125 7.445312 -11.992188 8.1875 -11.359375 C 8.9375 -10.734375 9.3125 -9.832031 9.3125 -8.65625 C 9.3125 -7.75 9.082031 -6.988281 8.625 -6.375 C 8.175781 -5.769531 7.566406 -5.34375 6.796875 -5.09375 L 11.03125 0 L 7.46875 0 L 3.703125 -4.859375 L 3.703125 0 L 0.890625 0 Z M 3.703125 -6.84375 L 4.03125 -6.84375 C 4.289062 -6.84375 4.507812 -6.847656 4.6875 -6.859375 C 4.863281 -6.867188 5.066406 -6.90625 5.296875 -6.96875 C 5.523438 -7.03125 5.707031 -7.113281 5.84375 -7.21875 C 5.988281 -7.332031 6.109375 -7.492188 6.203125 -7.703125 C 6.304688 -7.910156 6.359375 -8.160156 6.359375 -8.453125 C 6.359375 -8.753906 6.304688 -9.007812 6.203125 -9.21875 C 6.109375 -9.425781 5.988281 -9.582031 5.84375 -9.6875 C 5.707031 -9.800781 5.523438 -9.890625 5.296875 -9.953125 C 5.066406 -10.015625 4.863281 -10.050781 4.6875 -10.0625 C 4.507812 -10.070312 4.289062 -10.078125 4.03125 -10.078125 L 3.703125 -10.078125 Z M 3.703125 -6.84375 "/></g></g></g><g fill="#0a0a0a" fill-opacity="1"><g transform="translate(112.15934, 43.697904)"><g><path d="M 5.4375 -12.53125 C 6.101562 -12.53125 6.753906 -12.429688 7.390625 -12.234375 C 8.023438 -12.046875 8.492188 -11.859375 8.796875 -11.671875 L 9.25 -11.375 L 8.125 -9.125 C 8.03125 -9.1875 7.898438 -9.265625 7.734375 -9.359375 C 7.578125 -9.453125 7.28125 -9.578125 6.84375 -9.734375 C 6.40625 -9.898438 6 -9.984375 5.625 -9.984375 C 5.15625 -9.984375 4.789062 -9.882812 4.53125 -9.6875 C 4.28125 -9.488281 4.15625 -9.21875 4.15625 -8.875 C 4.15625 -8.707031 4.210938 -8.550781 4.328125 -8.40625 C 4.453125 -8.257812 4.660156 -8.101562 4.953125 -7.9375 C 5.242188 -7.78125 5.5 -7.648438 5.71875 -7.546875 C 5.9375 -7.453125 6.273438 -7.304688 6.734375 -7.109375 C 7.523438 -6.765625 8.203125 -6.300781 8.765625 -5.71875 C 9.328125 -5.132812 9.609375 -4.476562 9.609375 -3.75 C 9.609375 -3.039062 9.476562 -2.421875 9.21875 -1.890625 C 8.96875 -1.367188 8.617188 -0.957031 8.171875 -0.65625 C 7.734375 -0.351562 7.242188 -0.132812 6.703125 0 C 6.171875 0.144531 5.59375 0.21875 4.96875 0.21875 C 4.425781 0.21875 3.894531 0.160156 3.375 0.046875 C 2.863281 -0.0546875 2.429688 -0.1875 2.078125 -0.34375 C 1.734375 -0.507812 1.421875 -0.671875 1.140625 -0.828125 C 0.867188 -0.992188 0.664062 -1.128906 0.53125 -1.234375 L 0.34375 -1.40625 L 1.75 -3.765625 C 1.863281 -3.660156 2.023438 -3.53125 2.234375 -3.375 C 2.441406 -3.226562 2.8125 -3.023438 3.34375 -2.765625 C 3.875 -2.503906 4.347656 -2.375 4.765625 -2.375 C 5.941406 -2.375 6.53125 -2.773438 6.53125 -3.578125 C 6.53125 -3.742188 6.488281 -3.898438 6.40625 -4.046875 C 6.320312 -4.191406 6.171875 -4.335938 5.953125 -4.484375 C 5.742188 -4.628906 5.554688 -4.742188 5.390625 -4.828125 C 5.222656 -4.910156 4.953125 -5.035156 4.578125 -5.203125 C 4.210938 -5.378906 3.941406 -5.515625 3.765625 -5.609375 C 3.015625 -5.972656 2.4375 -6.429688 2.03125 -6.984375 C 1.625 -7.535156 1.421875 -8.132812 1.421875 -8.78125 C 1.421875 -9.882812 1.828125 -10.785156 2.640625 -11.484375 C 3.453125 -12.179688 4.382812 -12.53125 5.4375 -12.53125 Z M 5.4375 -12.53125 "/></g></g></g></svg>