<svg xmlns="http://www.w3.org/2000/svg" xmlns:xlink="http://www.w3.org/1999/xlink" width="300" zoomAndPan="magnify" viewBox="0 0 224.87999 89.999999" height="120" preserveAspectRatio="xMidYMid meet" version="1.0"><defs><g/><clipPath id="a022da1231"><path d="M 19.226562 17.3125 L 77.195312 17.3125 L 77.195312 75.296875 L 19.226562 75.296875 Z M 19.226562 17.3125 " clip-rule="nonzero"/></clipPath></defs><g fill="#00bf63" fill-opacity="1"><g transform="translate(74.947631, 53.049363)"><g><path d="M 6.015625 -9.28125 L 5.796875 -7.453125 C 5.796875 -5.523438 6.441406 -4.210938 7.734375 -3.515625 C 8.179688 -3.273438 8.710938 -3.15625 9.328125 -3.15625 C 9.953125 -3.15625 10.507812 -3.257812 11 -3.46875 C 11.5 -3.6875 11.90625 -3.972656 12.21875 -4.328125 C 12.882812 -5.035156 13.21875 -5.859375 13.21875 -6.796875 C 13.21875 -7.742188 13.023438 -8.597656 12.640625 -9.359375 C 12.265625 -10.117188 11.789062 -10.882812 11.21875 -11.65625 L 9.3125 -13.984375 C 7.769531 -15.835938 6.734375 -17.519531 6.203125 -19.03125 C 5.679688 -20.550781 5.421875 -21.945312 5.421875 -23.21875 C 5.421875 -24.5 5.570312 -25.707031 5.875 -26.84375 C 6.1875 -27.976562 6.617188 -29.054688 7.171875 -30.078125 C 7.734375 -31.109375 8.40625 -32.050781 9.1875 -32.90625 C 9.96875 -33.769531 10.835938 -34.515625 11.796875 -35.140625 C 13.785156 -36.472656 15.757812 -37.140625 17.71875 -37.140625 C 19.675781 -37.140625 21.203125 -36.867188 22.296875 -36.328125 C 23.390625 -35.785156 24.273438 -35.101562 24.953125 -34.28125 C 26.191406 -32.71875 26.8125 -30.832031 26.8125 -28.625 C 26.8125 -26.570312 26.226562 -24.640625 25.0625 -22.828125 C 24 -21.171875 22.804688 -20.117188 21.484375 -19.671875 C 21.203125 -19.523438 20.804688 -19.453125 20.296875 -19.453125 C 19.796875 -19.453125 19.375 -19.523438 19.03125 -19.671875 C 18.695312 -19.828125 18.398438 -20.035156 18.140625 -20.296875 C 17.585938 -20.847656 17.3125 -21.453125 17.3125 -22.109375 C 17.3125 -22.554688 17.445312 -22.847656 17.71875 -22.984375 C 18.925781 -23.640625 19.972656 -24.585938 20.859375 -25.828125 C 21.835938 -27.179688 22.347656 -28.53125 22.390625 -29.875 C 22.441406 -31.21875 22.117188 -32.210938 21.421875 -32.859375 C 20.734375 -33.503906 19.816406 -33.828125 18.671875 -33.828125 C 17.523438 -33.828125 16.488281 -33.566406 15.5625 -33.046875 C 14.644531 -32.535156 13.847656 -31.84375 13.171875 -30.96875 C 11.742188 -29.082031 11.03125 -26.859375 11.03125 -24.296875 C 11.03125 -22.597656 11.617188 -20.800781 12.796875 -18.90625 C 13.285156 -18.09375 13.820312 -17.289062 14.40625 -16.5 C 14.988281 -15.71875 15.535156 -14.910156 16.046875 -14.078125 C 17.203125 -12.160156 17.78125 -10.4375 17.78125 -8.90625 C 17.78125 -7.375 17.503906 -6.082031 16.953125 -5.03125 C 16.410156 -3.988281 15.6875 -3.078125 14.78125 -2.296875 C 12.820312 -0.609375 10.59375 0.234375 8.09375 0.234375 C 5.738281 0.234375 3.925781 -0.460938 2.65625 -1.859375 C 1.632812 -2.992188 1.125 -4.21875 1.125 -5.53125 C 1.125 -6.96875 1.53125 -8.179688 2.34375 -9.171875 C 2.957031 -9.910156 3.550781 -10.351562 4.125 -10.5 C 5.382812 -10.832031 6.015625 -10.425781 6.015625 -9.28125 Z M 6.015625 -9.28125 "/></g></g></g><g fill="#00bf63" fill-opacity="1"><g transform="translate(98.12365, 53.049363)"><g><path d="M 17.8125 -5.421875 C 17.8125 -7.566406 18.421875 -10.859375 19.640625 -15.296875 C 15.804688 -15.203125 12.875 -15.09375 10.84375 -14.96875 C 10.21875 -13.832031 9.648438 -12.757812 9.140625 -11.75 L 7.65625 -8.8125 C 5.695312 -4.957031 3.941406 -2.414062 2.390625 -1.1875 C 1.191406 -0.238281 -0.0703125 0.234375 -1.40625 0.234375 C -2.425781 0.234375 -3.195312 -0.0976562 -3.71875 -0.765625 C -3.914062 -1.035156 -4.03125 -1.289062 -4.0625 -1.53125 C -4.09375 -1.78125 -4.035156 -1.945312 -3.890625 -2.03125 C -2.054688 -2.71875 -0.566406 -3.757812 0.578125 -5.15625 C 1.578125 -6.414062 2.578125 -7.953125 3.578125 -9.765625 L 6.28125 -14.59375 L 4.78125 -14.375 C 3.820312 -14.195312 3.34375 -14.347656 3.34375 -14.828125 C 3.34375 -15.304688 3.628906 -15.757812 4.203125 -16.1875 C 5.203125 -16.9375 6.179688 -17.429688 7.140625 -17.671875 L 8.15625 -17.90625 C 10.769531 -22.21875 12.765625 -25.234375 14.140625 -26.953125 C 15.515625 -28.671875 16.769531 -30.101562 17.90625 -31.25 C 19.050781 -32.394531 20.253906 -33.40625 21.515625 -34.28125 C 24.265625 -36.175781 26.976562 -37.125 29.65625 -37.125 C 30.457031 -37.125 31.003906 -36.957031 31.296875 -36.625 C 31.773438 -36.09375 31.925781 -35.53125 31.75 -34.9375 C 31.570312 -34.34375 31.285156 -33.488281 30.890625 -32.375 C 28.347656 -25.4375 26.796875 -21.140625 26.234375 -19.484375 C 26.484375 -19.492188 26.710938 -19.5 26.921875 -19.5 L 27.453125 -19.5 C 29.234375 -19.5 30.1875 -19.328125 30.3125 -18.984375 C 30.34375 -18.867188 30.359375 -18.660156 30.359375 -18.359375 C 30.359375 -18.066406 30.265625 -17.726562 30.078125 -17.34375 C 29.898438 -16.96875 29.601562 -16.644531 29.1875 -16.375 C 28.351562 -15.800781 26.941406 -15.46875 24.953125 -15.375 C 23.867188 -11.632812 23.25 -9.046875 23.09375 -7.609375 C 22.945312 -6.179688 22.992188 -5.21875 23.234375 -4.71875 C 23.484375 -4.21875 23.832031 -3.96875 24.28125 -3.96875 C 24.738281 -3.96875 25.109375 -4.007812 25.390625 -4.09375 C 25.679688 -4.175781 25.9375 -4.273438 26.15625 -4.390625 L 26.78125 -4.671875 C 26.9375 -4.773438 27.097656 -4.828125 27.265625 -4.828125 C 27.441406 -4.828125 27.582031 -4.71875 27.6875 -4.5 C 27.800781 -4.28125 27.859375 -3.992188 27.859375 -3.640625 C 27.859375 -3.296875 27.707031 -2.878906 27.40625 -2.390625 C 27.113281 -1.910156 26.734375 -1.476562 26.265625 -1.09375 C 25.148438 -0.207031 23.890625 0.234375 22.484375 0.234375 C 20.335938 0.234375 18.90625 -0.71875 18.1875 -2.625 C 17.9375 -3.289062 17.8125 -3.890625 17.8125 -4.421875 Z M 13.03125 -18.734375 C 15.863281 -19.097656 18.488281 -19.316406 20.90625 -19.390625 C 21.351562 -20.753906 21.832031 -22.101562 22.34375 -23.4375 L 23.828125 -27.265625 C 24.335938 -28.472656 24.835938 -29.617188 25.328125 -30.703125 L 26.71875 -33.640625 C 23.40625 -32.773438 20.132812 -29.914062 16.90625 -25.0625 C 16.21875 -24.039062 15.546875 -22.992188 14.890625 -21.921875 Z M 13.03125 -18.734375 "/></g></g></g><g fill="#00bf63" fill-opacity="1"><g transform="translate(128.22144, 53.049363)"><g><path d="M 24.609375 -6.25 C 24.609375 -4.726562 25.175781 -3.96875 26.3125 -3.96875 C 26.976562 -3.96875 27.582031 -4.109375 28.125 -4.390625 C 28.675781 -4.679688 29.035156 -4.828125 29.203125 -4.828125 C 29.535156 -4.828125 29.703125 -4.648438 29.703125 -4.296875 C 29.703125 -2.898438 28.953125 -1.722656 27.453125 -0.765625 C 26.429688 -0.0976562 25.457031 0.234375 24.53125 0.234375 C 23.613281 0.234375 22.875 0.128906 22.3125 -0.078125 C 21.75 -0.296875 21.257812 -0.632812 20.84375 -1.09375 C 19.96875 -2.050781 19.53125 -3.476562 19.53125 -5.375 C 19.53125 -6.863281 19.804688 -8.59375 20.359375 -10.5625 C 20.921875 -12.539062 21.328125 -13.945312 21.578125 -14.78125 L 19.09375 -11 C 13.957031 -3.507812 9.625 0.234375 6.09375 0.234375 C 3.6875 0.234375 2.101562 -0.765625 1.34375 -2.765625 C 1.101562 -3.421875 0.984375 -3.992188 0.984375 -4.484375 L 0.984375 -5.390625 C 0.984375 -7.398438 2.101562 -11.078125 4.34375 -16.421875 L 9.3125 -27.984375 C 10.269531 -30.273438 10.75 -31.691406 10.75 -32.234375 C 10.75 -32.773438 10.648438 -33.175781 10.453125 -33.4375 C 10.265625 -33.707031 10.050781 -33.925781 9.8125 -34.09375 L 9.171875 -34.5625 C 8.972656 -34.695312 8.875 -34.890625 8.875 -35.140625 C 8.875 -35.390625 9 -35.640625 9.25 -35.890625 C 9.507812 -36.148438 9.847656 -36.378906 10.265625 -36.578125 C 11.085938 -36.941406 11.898438 -37.125 12.703125 -37.125 C 13.515625 -37.125 14.140625 -37.039062 14.578125 -36.875 C 15.015625 -36.707031 15.375 -36.492188 15.65625 -36.234375 C 16.21875 -35.710938 16.5 -35.082031 16.5 -34.34375 C 16.5 -33.601562 16.359375 -32.726562 16.078125 -31.71875 C 15.796875 -30.71875 15.425781 -29.625 14.96875 -28.4375 C 14.519531 -27.257812 14.003906 -26.007812 13.421875 -24.6875 L 9.78125 -16.703125 C 7.476562 -11.628906 6.328125 -8.273438 6.328125 -6.640625 L 6.328125 -6.28125 C 6.328125 -4.769531 6.898438 -4.015625 8.046875 -4.015625 C 10.148438 -4.015625 12.878906 -6.644531 16.234375 -11.90625 C 17.234375 -13.46875 18.234375 -15.117188 19.234375 -16.859375 L 22.15625 -22.203125 C 26.320312 -30.265625 28.722656 -34.863281 29.359375 -36 C 29.679688 -36.570312 30.132812 -36.859375 30.71875 -36.859375 C 31.3125 -36.859375 31.804688 -36.773438 32.203125 -36.609375 C 32.597656 -36.441406 32.941406 -36.222656 33.234375 -35.953125 C 33.898438 -35.316406 34.066406 -34.679688 33.734375 -34.046875 C 32.222656 -31.160156 30.382812 -26.550781 28.21875 -20.21875 C 25.8125 -13.25 24.609375 -8.59375 24.609375 -6.25 Z M 24.609375 -6.25 "/></g></g></g><g fill="#00bf63" fill-opacity="1"><g transform="translate(158.748857, 53.049363)"><g><path d="M 2.34375 -5.640625 C 2.488281 -6.671875 2.796875 -8.097656 3.265625 -9.921875 C 3.734375 -11.742188 4.332031 -13.6875 5.0625 -15.75 C 6.726562 -20.5 8.707031 -24.726562 11 -28.4375 C 11.320312 -28.945312 11.726562 -29.238281 12.21875 -29.3125 C 12.925781 -29.40625 13.546875 -29.453125 14.078125 -29.453125 C 14.609375 -29.453125 15.082031 -29.390625 15.5 -29.265625 C 15.925781 -29.148438 16.257812 -29 16.5 -28.8125 C 16.976562 -28.414062 17.054688 -27.992188 16.734375 -27.546875 C 13.859375 -23.203125 11.34375 -17.90625 9.1875 -11.65625 C 8.375 -9.257812 7.890625 -7.597656 7.734375 -6.671875 C 7.578125 -5.742188 7.460938 -5.109375 7.390625 -4.765625 C 7.316406 -4.421875 7.28125 -4.125 7.28125 -3.875 C 7.28125 -3.34375 7.613281 -3.078125 8.28125 -3.078125 C 8.945312 -3.078125 9.691406 -3.234375 10.515625 -3.546875 C 11.347656 -3.859375 12.242188 -4.296875 13.203125 -4.859375 C 14.160156 -5.421875 15.148438 -6.109375 16.171875 -6.921875 C 17.203125 -7.734375 18.207031 -8.644531 19.1875 -9.65625 C 20.175781 -10.664062 21.109375 -11.757812 21.984375 -12.9375 C 22.859375 -14.113281 23.625 -15.351562 24.28125 -16.65625 C 25.726562 -19.519531 26.453125 -22.347656 26.453125 -25.140625 C 26.453125 -28.953125 24.898438 -31.488281 21.796875 -32.75 C 20.710938 -33.175781 19.585938 -33.390625 18.421875 -33.390625 C 17.253906 -33.390625 16.265625 -33.3125 15.453125 -33.15625 C 14.640625 -33.007812 13.859375 -32.800781 13.109375 -32.53125 C 11.597656 -31.988281 10.320312 -31.265625 9.28125 -30.359375 C 9.007812 -30.203125 8.679688 -30.125 8.296875 -30.125 C 7.921875 -30.125 7.515625 -30.234375 7.078125 -30.453125 C 6.640625 -30.679688 6.242188 -30.960938 5.890625 -31.296875 C 5.097656 -32.078125 4.78125 -32.828125 4.9375 -33.546875 C 5.113281 -34.554688 6.644531 -35.4375 9.53125 -36.1875 C 11.945312 -36.8125 14.378906 -37.125 16.828125 -37.125 C 19.273438 -37.125 21.484375 -36.785156 23.453125 -36.109375 C 25.421875 -35.441406 27.019531 -34.546875 28.25 -33.421875 C 30.539062 -31.285156 31.6875 -28.425781 31.6875 -24.84375 C 31.6875 -20.101562 30.046875 -15.53125 26.765625 -11.125 C 23.753906 -7.03125 20.171875 -3.925781 16.015625 -1.8125 C 13.328125 -0.445312 10.851562 0.234375 8.59375 0.234375 C 6.832031 0.234375 5.3125 -0.28125 4.03125 -1.3125 C 2.664062 -2.40625 2.101562 -3.847656 2.34375 -5.640625 Z M 2.34375 -5.640625 "/></g></g></g><g fill="#00bf63" fill-opacity="1"><g transform="translate(189.562692, 53.049363)"><g><path d="M -0.1875 -2.203125 C 2.5625 -4.222656 5.335938 -9.425781 8.140625 -17.8125 C 9.765625 -22.695312 10.894531 -27.101562 11.53125 -31.03125 C 11.707031 -32.132812 11.796875 -32.976562 11.796875 -33.5625 C 11.140625 -33.53125 10.535156 -33.359375 9.984375 -33.046875 L 8.1875 -32.015625 C 7.695312 -31.742188 7.039062 -31.957031 6.21875 -32.65625 C 5.394531 -33.351562 5.019531 -33.941406 5.09375 -34.421875 C 5.164062 -34.910156 5.4375 -35.3125 5.90625 -35.625 C 6.375 -35.9375 6.921875 -36.203125 7.546875 -36.421875 C 8.847656 -36.890625 9.941406 -37.125 10.828125 -37.125 C 11.710938 -37.125 12.492188 -37.054688 13.171875 -36.921875 C 13.847656 -36.785156 14.460938 -36.554688 15.015625 -36.234375 C 16.285156 -35.503906 16.9375 -34.457031 16.96875 -33.09375 C 17.03125 -30.71875 16.226562 -26.6875 14.5625 -21 C 11.914062 -12.007812 8.8125 -5.691406 5.25 -2.046875 C 4.28125 -1.046875 3.269531 -0.363281 2.21875 0 C 1.9375 0.113281 1.644531 0.171875 1.34375 0.171875 C 1.050781 0.171875 0.785156 0.117188 0.546875 0.015625 C 0.304688 -0.0859375 0.109375 -0.21875 -0.046875 -0.375 C -0.378906 -0.675781 -0.546875 -1.007812 -0.546875 -1.375 C -0.546875 -1.75 -0.425781 -2.023438 -0.1875 -2.203125 Z M -0.1875 -2.203125 "/></g></g></g><g clip-path="url(#a022da1231)"><path fill="#00bf63" d="M 23.109375 21.210938 C 24.882812 25.722656 29.0625 35.472656 33.679688 40.089844 C 36.046875 42.460938 39.109375 44.890625 42.1875 46.851562 C 42.1875 46.851562 35.882812 39.847656 29.441406 27.542969 L 29.4375 27.542969 L 29.441406 27.542969 C 41.742188 33.984375 48.75 40.289062 48.75 40.289062 C 46.789062 37.214844 44.355469 34.152344 41.988281 31.78125 C 37.371094 27.164062 27.621094 22.984375 23.105469 21.210938 C 23.109375 21.210938 23.109375 21.210938 23.109375 21.210938 Z M 38.410156 55.3125 C 38.167969 53.203125 38.261719 50.683594 39.546875 48.867188 C 37.40625 47.4375 35.289062 45.800781 33.421875 44.144531 C 33.636719 47.113281 34.761719 51.136719 38.410156 55.3125 Z M 57.207031 36.515625 C 53.035156 32.863281 49.011719 31.738281 46.042969 31.523438 C 47.699219 33.390625 49.335938 35.507812 50.765625 37.648438 C 52.582031 36.363281 55.101562 36.269531 57.207031 36.515625 Z M 21.496094 18.117188 C 22.105469 18.328125 35.863281 23.210938 42.726562 29.289062 L 43.273438 29.234375 C 47.074219 28.871094 54.519531 29.496094 61.6875 37.734375 L 64.566406 41.046875 L 60.425781 39.59375 C 58.550781 38.9375 53.296875 37.753906 51.480469 40.15625 L 51.4375 40.210938 L 51.695312 40.632812 L 42.53125 49.796875 L 42.105469 49.539062 L 42.050781 49.582031 C 39.667969 51.386719 40.839844 56.652344 41.492188 58.527344 L 42.945312 62.671875 L 39.632812 59.789062 C 31.394531 52.625 30.769531 45.175781 31.132812 41.375 L 31.183594 40.828125 C 25.109375 33.964844 20.226562 20.207031 20.011719 19.597656 L 19.210938 17.3125 Z M 77.210938 75.316406 L 47.171875 50.828125 L 52.726562 45.273438 Z M 52.097656 43.863281 L 45.761719 50.199219 C 45.167969 49.914062 44.554688 49.597656 43.9375 49.253906 L 51.148438 42.039062 C 51.492188 42.660156 51.8125 43.269531 52.097656 43.863281 " fill-opacity="1" fill-rule="nonzero"/></g><g fill="#ff3131" fill-opacity="1"><g transform="translate(74.947631, 73.921489)"><g><path d="M 12.65625 -19.4375 L 12.65625 -15.546875 L 5.84375 -15.546875 L 5.84375 -11.6875 L 12.140625 -11.6875 L 12.140625 -7.796875 L 5.84375 -7.796875 L 5.84375 0 L 1.40625 0 L 1.40625 -19.4375 Z M 12.65625 -19.4375 "/></g></g></g><g fill="#ff3131" fill-opacity="1"><g transform="translate(86.74798, 73.921489)"><g><path d="M 0.546875 -9.734375 C 0.546875 -12.546875 1.503906 -14.925781 3.421875 -16.875 C 5.335938 -18.820312 7.644531 -19.796875 10.34375 -19.796875 C 13.0625 -19.796875 15.367188 -18.820312 17.265625 -16.875 C 19.171875 -14.9375 20.125 -12.554688 20.125 -9.734375 C 20.125 -6.890625 19.1875 -4.492188 17.3125 -2.546875 C 15.445312 -0.609375 13.125 0.359375 10.34375 0.359375 C 7.5 0.359375 5.15625 -0.601562 3.3125 -2.53125 C 1.46875 -4.457031 0.546875 -6.859375 0.546875 -9.734375 Z M 5.328125 -9.734375 C 5.328125 -8.710938 5.484375 -7.78125 5.796875 -6.9375 C 6.109375 -6.09375 6.65625 -5.378906 7.4375 -4.796875 C 8.226562 -4.222656 9.195312 -3.9375 10.34375 -3.9375 C 11.988281 -3.9375 13.234375 -4.5 14.078125 -5.625 C 14.921875 -6.757812 15.34375 -8.128906 15.34375 -9.734375 C 15.34375 -11.316406 14.910156 -12.675781 14.046875 -13.8125 C 13.191406 -14.957031 11.957031 -15.53125 10.34375 -15.53125 C 8.738281 -15.53125 7.5 -14.957031 6.625 -13.8125 C 5.757812 -12.675781 5.328125 -11.316406 5.328125 -9.734375 Z M 5.328125 -9.734375 "/></g></g></g><g fill="#ff3131" fill-opacity="1"><g transform="translate(105.850681, 73.921489)"><g><path d="M 16.359375 -19.4375 L 16.359375 -6.90625 C 16.359375 -4.519531 15.710938 -2.710938 14.421875 -1.484375 C 13.128906 -0.253906 11.242188 0.359375 8.765625 0.359375 C 6.285156 0.359375 4.398438 -0.253906 3.109375 -1.484375 C 1.816406 -2.710938 1.171875 -4.519531 1.171875 -6.90625 L 1.171875 -19.4375 L 5.609375 -19.4375 L 5.609375 -8.203125 C 5.609375 -6.628906 5.851562 -5.535156 6.34375 -4.921875 C 6.84375 -4.304688 7.648438 -4 8.765625 -4 C 9.878906 -4 10.679688 -4.304688 11.171875 -4.921875 C 11.671875 -5.535156 11.921875 -6.628906 11.921875 -8.203125 L 11.921875 -19.4375 Z M 16.359375 -19.4375 "/></g></g></g><g fill="#ff3131" fill-opacity="1"><g transform="translate(121.820432, 73.921489)"><g><path d="M 5.84375 -12.0625 L 5.84375 0 L 1.40625 0 L 1.40625 -19.4375 L 5.84375 -19.4375 L 13.578125 -7.375 L 13.625 -7.375 L 13.625 -19.4375 L 18.046875 -19.4375 L 18.046875 0 L 13.625 0 L 5.890625 -12.0625 Z M 5.84375 -12.0625 "/></g></g></g><g fill="#ff3131" fill-opacity="1"><g transform="translate(139.721776, 73.921489)"><g><path d="M 1.40625 -19.4375 L 7.046875 -19.4375 C 9.742188 -19.4375 12.050781 -18.515625 13.96875 -16.671875 C 15.882812 -14.828125 16.84375 -12.515625 16.84375 -9.734375 C 16.84375 -6.929688 15.890625 -4.609375 13.984375 -2.765625 C 12.078125 -0.921875 9.765625 0 7.046875 0 L 1.40625 0 Z M 5.84375 -3.953125 L 6.53125 -3.953125 C 8.144531 -3.953125 9.46875 -4.5 10.5 -5.59375 C 11.53125 -6.6875 12.050781 -8.054688 12.0625 -9.703125 C 12.0625 -11.359375 11.546875 -12.734375 10.515625 -13.828125 C 9.492188 -14.929688 8.164062 -15.484375 6.53125 -15.484375 L 5.84375 -15.484375 Z M 5.84375 -3.953125 "/></g></g></g><g fill="#ff3131" fill-opacity="1"><g transform="translate(155.55019, 73.921489)"><g><path d="M 12.53125 -19.4375 L 12.53125 -15.546875 L 5.84375 -15.546875 L 5.84375 -11.6875 L 12.25 -11.6875 L 12.25 -7.796875 L 5.84375 -7.796875 L 5.84375 -3.890625 L 12.53125 -3.890625 L 12.53125 0 L 1.40625 0 L 1.40625 -19.4375 Z M 12.53125 -19.4375 "/></g></g></g><g fill="#ff3131" fill-opacity="1"><g transform="translate(167.656757, 73.921489)"><g><path d="M 1.40625 -19.4375 L 8.359375 -19.4375 C 10.234375 -19.4375 11.757812 -18.9375 12.9375 -17.9375 C 14.113281 -16.945312 14.703125 -15.523438 14.703125 -13.671875 C 14.703125 -12.234375 14.34375 -11.03125 13.625 -10.0625 C 12.914062 -9.101562 11.945312 -8.425781 10.71875 -8.03125 L 17.40625 0 L 11.78125 0 L 5.84375 -7.6875 L 5.84375 0 L 1.40625 0 Z M 5.84375 -10.8125 L 6.359375 -10.8125 C 6.765625 -10.8125 7.109375 -10.816406 7.390625 -10.828125 C 7.679688 -10.847656 8.003906 -10.90625 8.359375 -11 C 8.722656 -11.09375 9.015625 -11.222656 9.234375 -11.390625 C 9.453125 -11.566406 9.640625 -11.820312 9.796875 -12.15625 C 9.953125 -12.488281 10.03125 -12.890625 10.03125 -13.359375 C 10.03125 -13.828125 9.953125 -14.226562 9.796875 -14.5625 C 9.640625 -14.894531 9.453125 -15.144531 9.234375 -15.3125 C 9.015625 -15.488281 8.722656 -15.625 8.359375 -15.71875 C 8.003906 -15.8125 7.679688 -15.863281 7.390625 -15.875 C 7.109375 -15.894531 6.765625 -15.90625 6.359375 -15.90625 L 5.84375 -15.90625 Z M 5.84375 -10.8125 "/></g></g></g><g fill="#ff3131" fill-opacity="1"><g transform="translate(182.966947, 73.921489)"><g><path d="M 8.578125 -19.796875 C 9.628906 -19.796875 10.65625 -19.640625 11.65625 -19.328125 C 12.664062 -19.023438 13.414062 -18.722656 13.90625 -18.421875 L 14.609375 -17.953125 L 12.8125 -14.421875 C 12.675781 -14.515625 12.484375 -14.632812 12.234375 -14.78125 C 11.984375 -14.9375 11.507812 -15.140625 10.8125 -15.390625 C 10.125 -15.640625 9.484375 -15.765625 8.890625 -15.765625 C 8.148438 -15.765625 7.578125 -15.609375 7.171875 -15.296875 C 6.773438 -14.984375 6.578125 -14.554688 6.578125 -14.015625 C 6.578125 -13.753906 6.671875 -13.507812 6.859375 -13.28125 C 7.046875 -13.050781 7.363281 -12.804688 7.8125 -12.546875 C 8.269531 -12.285156 8.671875 -12.078125 9.015625 -11.921875 C 9.367188 -11.765625 9.90625 -11.53125 10.625 -11.21875 C 11.882812 -10.6875 12.957031 -9.957031 13.84375 -9.03125 C 14.726562 -8.113281 15.171875 -7.078125 15.171875 -5.921875 C 15.171875 -4.796875 14.96875 -3.816406 14.5625 -2.984375 C 14.164062 -2.160156 13.617188 -1.507812 12.921875 -1.03125 C 12.222656 -0.5625 11.445312 -0.210938 10.59375 0.015625 C 9.75 0.242188 8.832031 0.359375 7.84375 0.359375 C 7 0.359375 6.164062 0.269531 5.34375 0.09375 C 4.53125 -0.0820312 3.847656 -0.296875 3.296875 -0.546875 C 2.742188 -0.804688 2.25 -1.0625 1.8125 -1.3125 C 1.375 -1.570312 1.050781 -1.785156 0.84375 -1.953125 L 0.546875 -2.21875 L 2.75 -5.9375 C 2.945312 -5.78125 3.207031 -5.578125 3.53125 -5.328125 C 3.863281 -5.085938 4.445312 -4.765625 5.28125 -4.359375 C 6.125 -3.953125 6.867188 -3.75 7.515625 -3.75 C 9.390625 -3.75 10.328125 -4.382812 10.328125 -5.65625 C 10.328125 -5.925781 10.257812 -6.171875 10.125 -6.390625 C 9.988281 -6.617188 9.75 -6.847656 9.40625 -7.078125 C 9.070312 -7.304688 8.773438 -7.488281 8.515625 -7.625 C 8.253906 -7.757812 7.828125 -7.960938 7.234375 -8.234375 C 6.648438 -8.503906 6.21875 -8.710938 5.9375 -8.859375 C 4.757812 -9.441406 3.847656 -10.164062 3.203125 -11.03125 C 2.554688 -11.90625 2.234375 -12.847656 2.234375 -13.859375 C 2.234375 -15.597656 2.878906 -17.019531 4.171875 -18.125 C 5.460938 -19.238281 6.929688 -19.796875 8.578125 -19.796875 Z M 8.578125 -19.796875 "/></g></g></g></svg>