<svg xmlns="http://www.w3.org/2000/svg" xmlns:xlink="http://www.w3.org/1999/xlink" width="120" zoomAndPan="magnify" viewBox="0 0 90 37.5" height="50" preserveAspectRatio="xMidYMid meet" version="1.0"><defs><g/><clipPath id="d4ef25e270"><path d="M 6.203125 6.804688 L 29.457031 6.804688 L 29.457031 30.269531 L 6.203125 30.269531 Z M 6.203125 6.804688 " clip-rule="nonzero"/></clipPath></defs><g fill="#00bf63" fill-opacity="1"><g transform="translate(28.741863, 21.390082)"><g><path d="M 2.453125 -3.796875 L 2.375 -3.046875 C 2.375 -2.253906 2.632812 -1.71875 3.15625 -1.4375 C 3.332031 -1.332031 3.546875 -1.28125 3.796875 -1.28125 C 4.054688 -1.28125 4.285156 -1.320312 4.484375 -1.40625 C 4.691406 -1.5 4.859375 -1.617188 4.984375 -1.765625 C 5.253906 -2.054688 5.390625 -2.390625 5.390625 -2.765625 C 5.390625 -3.148438 5.3125 -3.5 5.15625 -3.8125 C 5.007812 -4.125 4.816406 -4.4375 4.578125 -4.75 L 3.796875 -5.703125 C 3.171875 -6.460938 2.75 -7.148438 2.53125 -7.765625 C 2.320312 -8.390625 2.21875 -8.960938 2.21875 -9.484375 C 2.21875 -10.003906 2.28125 -10.492188 2.40625 -10.953125 C 2.53125 -11.421875 2.707031 -11.863281 2.9375 -12.28125 C 3.164062 -12.695312 3.4375 -13.082031 3.75 -13.4375 C 4.070312 -13.789062 4.425781 -14.09375 4.8125 -14.34375 C 5.625 -14.882812 6.425781 -15.15625 7.21875 -15.15625 C 8.019531 -15.15625 8.644531 -15.046875 9.09375 -14.828125 C 9.539062 -14.609375 9.90625 -14.328125 10.1875 -13.984375 C 10.6875 -13.347656 10.9375 -12.582031 10.9375 -11.6875 C 10.9375 -10.84375 10.703125 -10.050781 10.234375 -9.3125 C 9.796875 -8.632812 9.304688 -8.207031 8.765625 -8.03125 C 8.648438 -7.96875 8.488281 -7.9375 8.28125 -7.9375 C 8.082031 -7.9375 7.910156 -7.96875 7.765625 -8.03125 C 7.628906 -8.09375 7.507812 -8.175781 7.40625 -8.28125 C 7.175781 -8.507812 7.0625 -8.753906 7.0625 -9.015625 C 7.0625 -9.203125 7.117188 -9.320312 7.234375 -9.375 C 7.722656 -9.644531 8.148438 -10.035156 8.515625 -10.546875 C 8.910156 -11.097656 9.117188 -11.644531 9.140625 -12.1875 C 9.160156 -12.738281 9.023438 -13.144531 8.734375 -13.40625 C 8.453125 -13.675781 8.078125 -13.8125 7.609375 -13.8125 C 7.148438 -13.8125 6.726562 -13.703125 6.34375 -13.484375 C 5.96875 -13.273438 5.644531 -12.992188 5.375 -12.640625 C 4.789062 -11.867188 4.5 -10.960938 4.5 -9.921875 C 4.5 -9.222656 4.738281 -8.488281 5.21875 -7.71875 C 5.425781 -7.382812 5.644531 -7.054688 5.875 -6.734375 C 6.113281 -6.410156 6.335938 -6.082031 6.546875 -5.75 C 7.023438 -4.957031 7.265625 -4.25 7.265625 -3.625 C 7.265625 -3.007812 7.148438 -2.484375 6.921875 -2.046875 C 6.703125 -1.617188 6.40625 -1.25 6.03125 -0.9375 C 5.226562 -0.25 4.316406 0.09375 3.296875 0.09375 C 2.335938 0.09375 1.597656 -0.191406 1.078125 -0.765625 C 0.660156 -1.222656 0.453125 -1.722656 0.453125 -2.265625 C 0.453125 -2.847656 0.617188 -3.335938 0.953125 -3.734375 C 1.203125 -4.046875 1.445312 -4.226562 1.6875 -4.28125 C 2.195312 -4.414062 2.453125 -4.253906 2.453125 -3.796875 Z M 2.453125 -3.796875 "/></g></g></g><g fill="#00bf63" fill-opacity="1"><g transform="translate(38.200921, 21.390082)"><g><path d="M 7.265625 -2.21875 C 7.265625 -3.09375 7.515625 -4.4375 8.015625 -6.25 C 6.453125 -6.207031 5.253906 -6.160156 4.421875 -6.109375 C 4.171875 -5.648438 3.941406 -5.210938 3.734375 -4.796875 L 3.125 -3.59375 C 2.320312 -2.019531 1.601562 -0.984375 0.96875 -0.484375 C 0.476562 -0.0976562 -0.0351562 0.09375 -0.578125 0.09375 C -0.992188 0.09375 -1.3125 -0.0390625 -1.53125 -0.3125 C -1.601562 -0.425781 -1.644531 -0.53125 -1.65625 -0.625 C -1.664062 -0.726562 -1.644531 -0.796875 -1.59375 -0.828125 C -0.84375 -1.109375 -0.234375 -1.535156 0.234375 -2.109375 C 0.640625 -2.617188 1.046875 -3.242188 1.453125 -3.984375 L 2.5625 -5.953125 L 1.9375 -5.859375 C 1.550781 -5.796875 1.359375 -5.859375 1.359375 -6.046875 C 1.359375 -6.242188 1.472656 -6.429688 1.703125 -6.609375 C 2.117188 -6.910156 2.519531 -7.109375 2.90625 -7.203125 L 3.328125 -7.3125 C 4.390625 -9.070312 5.203125 -10.300781 5.765625 -11 C 6.328125 -11.695312 6.835938 -12.28125 7.296875 -12.75 C 7.765625 -13.21875 8.257812 -13.628906 8.78125 -13.984375 C 9.894531 -14.765625 11 -15.15625 12.09375 -15.15625 C 12.425781 -15.15625 12.648438 -15.085938 12.765625 -14.953125 C 12.960938 -14.734375 13.023438 -14.5 12.953125 -14.25 C 12.878906 -14.007812 12.765625 -13.664062 12.609375 -13.21875 C 11.566406 -10.382812 10.929688 -8.628906 10.703125 -7.953125 C 10.804688 -7.953125 10.898438 -7.953125 10.984375 -7.953125 L 11.203125 -7.953125 C 11.929688 -7.953125 12.320312 -7.882812 12.375 -7.75 C 12.382812 -7.695312 12.390625 -7.609375 12.390625 -7.484375 C 12.390625 -7.367188 12.351562 -7.234375 12.28125 -7.078125 C 12.207031 -6.921875 12.082031 -6.789062 11.90625 -6.6875 C 11.5625 -6.445312 10.984375 -6.3125 10.171875 -6.28125 C 9.734375 -4.75 9.484375 -3.691406 9.421875 -3.109375 C 9.359375 -2.523438 9.375 -2.128906 9.46875 -1.921875 C 9.570312 -1.722656 9.71875 -1.625 9.90625 -1.625 C 10.09375 -1.625 10.242188 -1.640625 10.359375 -1.671875 C 10.472656 -1.703125 10.578125 -1.742188 10.671875 -1.796875 L 10.921875 -1.90625 C 10.992188 -1.945312 11.0625 -1.96875 11.125 -1.96875 C 11.195312 -1.96875 11.253906 -1.921875 11.296875 -1.828125 C 11.335938 -1.742188 11.359375 -1.628906 11.359375 -1.484375 C 11.359375 -1.347656 11.296875 -1.179688 11.171875 -0.984375 C 11.054688 -0.785156 10.90625 -0.609375 10.71875 -0.453125 C 10.257812 -0.0859375 9.742188 0.09375 9.171875 0.09375 C 8.296875 0.09375 7.710938 -0.296875 7.421875 -1.078125 C 7.316406 -1.347656 7.265625 -1.585938 7.265625 -1.796875 Z M 5.3125 -7.640625 C 6.46875 -7.796875 7.539062 -7.882812 8.53125 -7.90625 C 8.707031 -8.46875 8.898438 -9.019531 9.109375 -9.5625 L 9.71875 -11.125 C 9.925781 -11.613281 10.128906 -12.082031 10.328125 -12.53125 L 10.890625 -13.734375 C 9.546875 -13.378906 8.210938 -12.210938 6.890625 -10.234375 C 6.609375 -9.816406 6.335938 -9.382812 6.078125 -8.9375 Z M 5.3125 -7.640625 "/></g></g></g><g fill="#00bf63" fill-opacity="1"><g transform="translate(50.48503, 21.390082)"><g><path d="M 10.046875 -2.546875 C 10.046875 -1.929688 10.273438 -1.625 10.734375 -1.625 C 11.003906 -1.625 11.25 -1.679688 11.46875 -1.796875 C 11.695312 -1.910156 11.847656 -1.96875 11.921875 -1.96875 C 12.054688 -1.96875 12.125 -1.894531 12.125 -1.75 C 12.125 -1.175781 11.816406 -0.695312 11.203125 -0.3125 C 10.785156 -0.0390625 10.390625 0.09375 10.015625 0.09375 C 9.640625 0.09375 9.335938 0.0507812 9.109375 -0.03125 C 8.878906 -0.125 8.675781 -0.265625 8.5 -0.453125 C 8.144531 -0.835938 7.96875 -1.414062 7.96875 -2.1875 C 7.96875 -2.800781 8.082031 -3.507812 8.3125 -4.3125 C 8.539062 -5.125 8.707031 -5.695312 8.8125 -6.03125 L 7.796875 -4.484375 C 5.691406 -1.429688 3.921875 0.09375 2.484375 0.09375 C 1.503906 0.09375 0.859375 -0.3125 0.546875 -1.125 C 0.453125 -1.394531 0.40625 -1.628906 0.40625 -1.828125 L 0.40625 -2.203125 C 0.40625 -3.015625 0.859375 -4.515625 1.765625 -6.703125 L 3.796875 -11.421875 C 4.191406 -12.359375 4.390625 -12.9375 4.390625 -13.15625 C 4.390625 -13.375 4.347656 -13.535156 4.265625 -13.640625 C 4.191406 -13.753906 4.101562 -13.84375 4 -13.90625 L 3.734375 -14.109375 C 3.660156 -14.160156 3.625 -14.238281 3.625 -14.34375 C 3.625 -14.445312 3.675781 -14.550781 3.78125 -14.65625 C 3.882812 -14.757812 4.019531 -14.847656 4.1875 -14.921875 C 4.53125 -15.078125 4.863281 -15.15625 5.1875 -15.15625 C 5.519531 -15.15625 5.773438 -15.117188 5.953125 -15.046875 C 6.128906 -14.984375 6.273438 -14.898438 6.390625 -14.796875 C 6.617188 -14.578125 6.734375 -14.316406 6.734375 -14.015625 C 6.734375 -13.710938 6.675781 -13.351562 6.5625 -12.9375 C 6.445312 -12.53125 6.296875 -12.082031 6.109375 -11.59375 C 5.921875 -11.113281 5.707031 -10.609375 5.46875 -10.078125 L 4 -6.8125 C 3.050781 -4.75 2.578125 -3.378906 2.578125 -2.703125 L 2.578125 -2.5625 C 2.578125 -1.945312 2.8125 -1.640625 3.28125 -1.640625 C 4.132812 -1.640625 5.25 -2.710938 6.625 -4.859375 C 7.03125 -5.492188 7.441406 -6.164062 7.859375 -6.875 L 9.046875 -9.0625 C 10.742188 -12.351562 11.722656 -14.226562 11.984375 -14.6875 C 12.109375 -14.925781 12.289062 -15.046875 12.53125 -15.046875 C 12.78125 -15.046875 12.984375 -15.007812 13.140625 -14.9375 C 13.304688 -14.875 13.445312 -14.785156 13.5625 -14.671875 C 13.832031 -14.410156 13.898438 -14.148438 13.765625 -13.890625 C 13.148438 -12.710938 12.398438 -10.832031 11.515625 -8.25 C 10.535156 -5.40625 10.046875 -3.503906 10.046875 -2.546875 Z M 10.046875 -2.546875 "/></g></g></g><g fill="#00bf63" fill-opacity="1"><g transform="translate(62.944486, 21.390082)"><g><path d="M 0.953125 -2.296875 C 1.003906 -2.722656 1.125 -3.304688 1.3125 -4.046875 C 1.507812 -4.785156 1.757812 -5.582031 2.0625 -6.4375 C 2.738281 -8.363281 3.546875 -10.085938 4.484375 -11.609375 C 4.617188 -11.816406 4.785156 -11.9375 4.984375 -11.96875 C 5.265625 -12 5.515625 -12.015625 5.734375 -12.015625 C 5.953125 -12.015625 6.144531 -11.988281 6.3125 -11.9375 C 6.488281 -11.894531 6.628906 -11.835938 6.734375 -11.765625 C 6.921875 -11.597656 6.953125 -11.425781 6.828125 -11.25 C 5.648438 -9.46875 4.625 -7.300781 3.75 -4.75 C 3.414062 -3.78125 3.210938 -3.101562 3.140625 -2.71875 C 3.078125 -2.34375 3.03125 -2.082031 3 -1.9375 C 2.976562 -1.800781 2.96875 -1.679688 2.96875 -1.578125 C 2.96875 -1.359375 3.101562 -1.25 3.375 -1.25 C 3.644531 -1.25 3.945312 -1.3125 4.28125 -1.4375 C 4.625 -1.570312 4.988281 -1.753906 5.375 -1.984375 C 5.769531 -2.210938 6.175781 -2.492188 6.59375 -2.828125 C 7.007812 -3.160156 7.421875 -3.53125 7.828125 -3.9375 C 8.234375 -4.351562 8.613281 -4.800781 8.96875 -5.28125 C 9.320312 -5.757812 9.632812 -6.265625 9.90625 -6.796875 C 10.5 -7.960938 10.796875 -9.117188 10.796875 -10.265625 C 10.796875 -11.816406 10.160156 -12.847656 8.890625 -13.359375 C 8.453125 -13.535156 7.992188 -13.625 7.515625 -13.625 C 7.035156 -13.625 6.628906 -13.59375 6.296875 -13.53125 C 5.960938 -13.46875 5.644531 -13.382812 5.34375 -13.28125 C 4.726562 -13.0625 4.207031 -12.765625 3.78125 -12.390625 C 3.675781 -12.328125 3.546875 -12.296875 3.390625 -12.296875 C 3.234375 -12.296875 3.0625 -12.335938 2.875 -12.421875 C 2.695312 -12.515625 2.539062 -12.628906 2.40625 -12.765625 C 2.070312 -13.085938 1.941406 -13.394531 2.015625 -13.6875 C 2.085938 -14.101562 2.707031 -14.460938 3.875 -14.765625 C 4.863281 -15.023438 5.859375 -15.15625 6.859375 -15.15625 C 7.859375 -15.15625 8.757812 -15.015625 9.5625 -14.734375 C 10.363281 -14.460938 11.015625 -14.097656 11.515625 -13.640625 C 12.453125 -12.765625 12.921875 -11.597656 12.921875 -10.140625 C 12.921875 -8.203125 12.253906 -6.335938 10.921875 -4.546875 C 9.691406 -2.867188 8.226562 -1.597656 6.53125 -0.734375 C 5.4375 -0.179688 4.425781 0.09375 3.5 0.09375 C 2.78125 0.09375 2.160156 -0.113281 1.640625 -0.53125 C 1.078125 -0.976562 0.847656 -1.566406 0.953125 -2.296875 Z M 0.953125 -2.296875 "/></g></g></g><g fill="#00bf63" fill-opacity="1"><g transform="translate(75.520842, 21.390082)"><g><path d="M -0.078125 -0.890625 C 1.046875 -1.722656 2.179688 -3.847656 3.328125 -7.265625 C 3.984375 -9.265625 4.441406 -11.066406 4.703125 -12.671875 C 4.773438 -13.117188 4.8125 -13.460938 4.8125 -13.703125 C 4.539062 -13.679688 4.296875 -13.609375 4.078125 -13.484375 L 3.34375 -13.0625 C 3.144531 -12.957031 2.875 -13.046875 2.53125 -13.328125 C 2.195312 -13.609375 2.046875 -13.847656 2.078125 -14.046875 C 2.109375 -14.242188 2.21875 -14.40625 2.40625 -14.53125 C 2.601562 -14.664062 2.828125 -14.78125 3.078125 -14.875 C 3.609375 -15.0625 4.050781 -15.15625 4.40625 -15.15625 C 4.769531 -15.15625 5.085938 -15.125 5.359375 -15.0625 C 5.640625 -15.007812 5.894531 -14.921875 6.125 -14.796875 C 6.644531 -14.492188 6.910156 -14.0625 6.921875 -13.5 C 6.953125 -12.53125 6.625 -10.890625 5.9375 -8.578125 C 4.863281 -4.898438 3.597656 -2.320312 2.140625 -0.84375 C 1.742188 -0.425781 1.332031 -0.144531 0.90625 0 C 0.789062 0.0390625 0.671875 0.0625 0.546875 0.0625 C 0.429688 0.0625 0.320312 0.0390625 0.21875 0 C 0.125 -0.0390625 0.046875 -0.09375 -0.015625 -0.15625 C -0.148438 -0.28125 -0.21875 -0.414062 -0.21875 -0.5625 C -0.21875 -0.71875 -0.171875 -0.828125 -0.078125 -0.890625 Z M -0.078125 -0.890625 "/></g></g></g><g clip-path="url(#d4ef25e270)"><path fill="#00bf63" d="M 7.582031 8.394531 C 8.308594 10.238281 10.015625 14.214844 11.898438 16.101562 C 12.867188 17.066406 14.117188 18.058594 15.371094 18.863281 C 15.371094 18.863281 12.796875 16 10.167969 10.980469 C 15.191406 13.609375 18.050781 16.183594 18.050781 16.183594 C 17.25 14.925781 16.257812 13.675781 15.289062 12.710938 C 13.40625 10.824219 9.425781 9.121094 7.582031 8.394531 Z M 13.832031 22.3125 C 13.730469 21.453125 13.769531 20.425781 14.292969 19.683594 C 13.417969 19.097656 12.554688 18.433594 11.792969 17.757812 C 11.882812 18.96875 12.339844 20.609375 13.832031 22.3125 Z M 21.5 14.640625 C 19.796875 13.152344 18.15625 12.691406 16.945312 12.605469 C 17.621094 13.367188 18.289062 14.230469 18.871094 15.105469 C 19.613281 14.582031 20.640625 14.542969 21.5 14.640625 Z M 6.925781 7.132812 C 7.175781 7.21875 12.789062 9.210938 15.589844 11.691406 L 15.816406 11.671875 C 17.367188 11.523438 20.40625 11.777344 23.328125 15.140625 L 24.503906 16.492188 L 22.816406 15.898438 C 22.050781 15.628906 19.90625 15.148438 19.164062 16.128906 L 19.144531 16.148438 L 19.253906 16.324219 L 15.511719 20.0625 L 15.339844 19.957031 L 15.316406 19.976562 C 14.34375 20.710938 14.820312 22.859375 15.085938 23.625 L 15.679688 25.316406 L 14.328125 24.140625 C 10.964844 21.214844 10.710938 18.175781 10.859375 16.625 L 10.878906 16.402344 C 8.398438 13.601562 6.40625 7.984375 6.320312 7.738281 L 5.992188 6.804688 Z M 29.667969 30.476562 L 17.40625 20.484375 L 19.671875 18.214844 Z M 19.414062 17.640625 L 16.828125 20.226562 C 16.585938 20.109375 16.339844 19.980469 16.085938 19.839844 L 19.027344 16.894531 C 19.167969 17.148438 19.300781 17.398438 19.414062 17.640625 " fill-opacity="1" fill-rule="nonzero"/></g><g fill="#0a0a0a" fill-opacity="1"><g transform="translate(28.741863, 29.908832)"><g><path d="M 5.171875 -7.9375 L 5.171875 -6.359375 L 2.390625 -6.359375 L 2.390625 -4.78125 L 4.953125 -4.78125 L 4.953125 -3.1875 L 2.390625 -3.1875 L 2.390625 0 L 0.578125 0 L 0.578125 -7.9375 Z M 5.171875 -7.9375 "/></g></g></g><g fill="#0a0a0a" fill-opacity="1"><g transform="translate(33.558057, 29.908832)"><g><path d="M 0.21875 -3.96875 C 0.21875 -5.125 0.609375 -6.097656 1.390625 -6.890625 C 2.171875 -7.679688 3.113281 -8.078125 4.21875 -8.078125 C 5.332031 -8.078125 6.273438 -7.679688 7.046875 -6.890625 C 7.828125 -6.097656 8.21875 -5.125 8.21875 -3.96875 C 8.21875 -2.8125 7.832031 -1.835938 7.0625 -1.046875 C 6.300781 -0.253906 5.351562 0.140625 4.21875 0.140625 C 3.0625 0.140625 2.101562 -0.25 1.34375 -1.03125 C 0.59375 -1.820312 0.21875 -2.800781 0.21875 -3.96875 Z M 2.171875 -3.96875 C 2.171875 -3.550781 2.234375 -3.171875 2.359375 -2.828125 C 2.492188 -2.484375 2.71875 -2.191406 3.03125 -1.953125 C 3.351562 -1.722656 3.75 -1.609375 4.21875 -1.609375 C 4.894531 -1.609375 5.40625 -1.835938 5.75 -2.296875 C 6.09375 -2.765625 6.265625 -3.320312 6.265625 -3.96875 C 6.265625 -4.625 6.085938 -5.179688 5.734375 -5.640625 C 5.390625 -6.109375 4.882812 -6.34375 4.21875 -6.34375 C 3.570312 -6.34375 3.066406 -6.109375 2.703125 -5.640625 C 2.347656 -5.179688 2.171875 -4.625 2.171875 -3.96875 Z M 2.171875 -3.96875 "/></g></g></g><g fill="#0a0a0a" fill-opacity="1"><g transform="translate(41.354631, 29.908832)"><g><path d="M 6.6875 -7.9375 L 6.6875 -2.8125 C 6.6875 -1.84375 6.421875 -1.109375 5.890625 -0.609375 C 5.359375 -0.109375 4.585938 0.140625 3.578125 0.140625 C 2.566406 0.140625 1.796875 -0.109375 1.265625 -0.609375 C 0.742188 -1.109375 0.484375 -1.84375 0.484375 -2.8125 L 0.484375 -7.9375 L 2.296875 -7.9375 L 2.296875 -3.34375 C 2.296875 -2.707031 2.394531 -2.265625 2.59375 -2.015625 C 2.789062 -1.765625 3.117188 -1.640625 3.578125 -1.640625 C 4.035156 -1.640625 4.363281 -1.765625 4.5625 -2.015625 C 4.769531 -2.265625 4.875 -2.707031 4.875 -3.34375 L 4.875 -7.9375 Z M 6.6875 -7.9375 "/></g></g></g><g fill="#0a0a0a" fill-opacity="1"><g transform="translate(47.872524, 29.908832)"><g><path d="M 2.390625 -4.921875 L 2.390625 0 L 0.578125 0 L 0.578125 -7.9375 L 2.390625 -7.9375 L 5.546875 -3.015625 L 5.5625 -3.015625 L 5.5625 -7.9375 L 7.375 -7.9375 L 7.375 0 L 5.5625 0 L 2.40625 -4.921875 Z M 2.390625 -4.921875 "/></g></g></g><g fill="#0a0a0a" fill-opacity="1"><g transform="translate(55.178777, 29.908832)"><g><path d="M 0.578125 -7.9375 L 2.875 -7.9375 C 3.976562 -7.9375 4.921875 -7.554688 5.703125 -6.796875 C 6.484375 -6.046875 6.875 -5.101562 6.875 -3.96875 C 6.875 -2.832031 6.484375 -1.882812 5.703125 -1.125 C 4.929688 -0.375 3.988281 0 2.875 0 L 0.578125 0 Z M 2.390625 -1.609375 L 2.671875 -1.609375 C 3.328125 -1.609375 3.863281 -1.832031 4.28125 -2.28125 C 4.707031 -2.726562 4.921875 -3.289062 4.921875 -3.96875 C 4.921875 -4.632812 4.710938 -5.191406 4.296875 -5.640625 C 3.878906 -6.097656 3.335938 -6.328125 2.671875 -6.328125 L 2.390625 -6.328125 Z M 2.390625 -1.609375 "/></g></g></g><g fill="#0a0a0a" fill-opacity="1"><g transform="translate(61.638984, 29.908832)"><g><path d="M 5.125 -7.9375 L 5.125 -6.359375 L 2.390625 -6.359375 L 2.390625 -4.78125 L 5 -4.78125 L 5 -3.1875 L 2.390625 -3.1875 L 2.390625 -1.59375 L 5.125 -1.59375 L 5.125 0 L 0.578125 0 L 0.578125 -7.9375 Z M 5.125 -7.9375 "/></g></g></g><g fill="#0a0a0a" fill-opacity="1"><g transform="translate(66.580158, 29.908832)"><g><path d="M 0.578125 -7.9375 L 3.421875 -7.9375 C 4.179688 -7.9375 4.800781 -7.734375 5.28125 -7.328125 C 5.757812 -6.921875 6 -6.335938 6 -5.578125 C 6 -4.992188 5.851562 -4.503906 5.5625 -4.109375 C 5.269531 -3.710938 4.875 -3.4375 4.375 -3.28125 L 7.109375 0 L 4.8125 0 L 2.390625 -3.140625 L 2.390625 0 L 0.578125 0 Z M 2.390625 -4.421875 L 2.59375 -4.421875 C 2.757812 -4.421875 2.898438 -4.421875 3.015625 -4.421875 C 3.140625 -4.429688 3.273438 -4.453125 3.421875 -4.484375 C 3.566406 -4.523438 3.679688 -4.582031 3.765625 -4.65625 C 3.859375 -4.726562 3.9375 -4.832031 4 -4.96875 C 4.0625 -5.101562 4.09375 -5.265625 4.09375 -5.453125 C 4.09375 -5.648438 4.0625 -5.816406 4 -5.953125 C 3.9375 -6.085938 3.859375 -6.1875 3.765625 -6.25 C 3.679688 -6.320312 3.566406 -6.378906 3.421875 -6.421875 C 3.273438 -6.460938 3.140625 -6.484375 3.015625 -6.484375 C 2.898438 -6.492188 2.757812 -6.5 2.59375 -6.5 L 2.390625 -6.5 Z M 2.390625 -4.421875 "/></g></g></g><g fill="#0a0a0a" fill-opacity="1"><g transform="translate(72.828857, 29.908832)"><g><path d="M 3.5 -8.078125 C 3.925781 -8.078125 4.34375 -8.015625 4.75 -7.890625 C 5.164062 -7.765625 5.472656 -7.644531 5.671875 -7.53125 L 5.96875 -7.328125 L 5.234375 -5.890625 C 5.179688 -5.929688 5.101562 -5.976562 5 -6.03125 C 4.894531 -6.09375 4.703125 -6.175781 4.421875 -6.28125 C 4.140625 -6.382812 3.875 -6.4375 3.625 -6.4375 C 3.320312 -6.4375 3.085938 -6.367188 2.921875 -6.234375 C 2.765625 -6.109375 2.6875 -5.941406 2.6875 -5.734375 C 2.6875 -5.617188 2.722656 -5.515625 2.796875 -5.421875 C 2.878906 -5.328125 3.007812 -5.226562 3.1875 -5.125 C 3.375 -5.019531 3.535156 -4.9375 3.671875 -4.875 C 3.816406 -4.8125 4.039062 -4.710938 4.34375 -4.578125 C 4.851562 -4.359375 5.289062 -4.0625 5.65625 -3.6875 C 6.019531 -3.3125 6.203125 -2.890625 6.203125 -2.421875 C 6.203125 -1.960938 6.117188 -1.5625 5.953125 -1.21875 C 5.785156 -0.882812 5.554688 -0.617188 5.265625 -0.421875 C 4.984375 -0.234375 4.671875 -0.09375 4.328125 0 C 3.984375 0.09375 3.609375 0.140625 3.203125 0.140625 C 2.859375 0.140625 2.519531 0.101562 2.1875 0.03125 C 1.851562 -0.03125 1.570312 -0.113281 1.34375 -0.21875 C 1.125 -0.332031 0.921875 -0.4375 0.734375 -0.53125 C 0.554688 -0.632812 0.425781 -0.722656 0.34375 -0.796875 L 0.21875 -0.90625 L 1.125 -2.421875 C 1.195312 -2.359375 1.300781 -2.273438 1.4375 -2.171875 C 1.570312 -2.078125 1.8125 -1.945312 2.15625 -1.78125 C 2.5 -1.613281 2.804688 -1.53125 3.078125 -1.53125 C 3.835938 -1.53125 4.21875 -1.789062 4.21875 -2.3125 C 4.21875 -2.414062 4.1875 -2.515625 4.125 -2.609375 C 4.070312 -2.703125 3.976562 -2.796875 3.84375 -2.890625 C 3.707031 -2.984375 3.585938 -3.054688 3.484375 -3.109375 C 3.378906 -3.171875 3.203125 -3.253906 2.953125 -3.359375 C 2.710938 -3.472656 2.535156 -3.5625 2.421875 -3.625 C 1.941406 -3.851562 1.570312 -4.144531 1.3125 -4.5 C 1.050781 -4.863281 0.921875 -5.25 0.921875 -5.65625 C 0.921875 -6.375 1.179688 -6.957031 1.703125 -7.40625 C 2.234375 -7.851562 2.832031 -8.078125 3.5 -8.078125 Z M 3.5 -8.078125 "/></g></g></g></svg>