<svg xmlns="http://www.w3.org/2000/svg" xmlns:xlink="http://www.w3.org/1999/xlink" width="100" zoomAndPan="magnify" viewBox="0 0 75 37.5" height="50" preserveAspectRatio="xMidYMid meet" version="1.0"><defs><g/><clipPath id="c939ff42ee"><path d="M 5.894531 9.035156 L 24.824219 9.035156 L 24.824219 28 L 5.894531 28 Z M 5.894531 9.035156 " clip-rule="nonzero"/></clipPath></defs><g fill="#00bf63" fill-opacity="1"><g transform="translate(24.0871, 20.61674)"><g><path d="M 1.96875 -3.03125 L 1.890625 -2.4375 C 1.890625 -1.800781 2.101562 -1.367188 2.53125 -1.140625 C 2.664062 -1.066406 2.832031 -1.03125 3.03125 -1.03125 C 3.238281 -1.03125 3.421875 -1.0625 3.578125 -1.125 C 3.742188 -1.195312 3.878906 -1.289062 3.984375 -1.40625 C 4.203125 -1.644531 4.3125 -1.914062 4.3125 -2.21875 C 4.3125 -2.519531 4.25 -2.796875 4.125 -3.046875 C 4 -3.296875 3.84375 -3.546875 3.65625 -3.796875 L 3.03125 -4.5625 C 2.53125 -5.164062 2.191406 -5.710938 2.015625 -6.203125 C 1.847656 -6.703125 1.765625 -7.160156 1.765625 -7.578125 C 1.765625 -7.992188 1.816406 -8.382812 1.921875 -8.75 C 2.023438 -9.125 2.164062 -9.476562 2.34375 -9.8125 C 2.53125 -10.15625 2.75 -10.460938 3 -10.734375 C 3.25 -11.015625 3.53125 -11.257812 3.84375 -11.46875 C 4.5 -11.90625 5.144531 -12.125 5.78125 -12.125 C 6.414062 -12.125 6.910156 -12.035156 7.265625 -11.859375 C 7.628906 -11.679688 7.921875 -11.457031 8.140625 -11.1875 C 8.546875 -10.675781 8.75 -10.0625 8.75 -9.34375 C 8.75 -8.664062 8.554688 -8.035156 8.171875 -7.453125 C 7.828125 -6.910156 7.441406 -6.566406 7.015625 -6.421875 C 6.921875 -6.367188 6.789062 -6.34375 6.625 -6.34375 C 6.457031 -6.34375 6.316406 -6.367188 6.203125 -6.421875 C 6.097656 -6.472656 6.003906 -6.539062 5.921875 -6.625 C 5.734375 -6.800781 5.640625 -7 5.640625 -7.21875 C 5.640625 -7.363281 5.6875 -7.457031 5.78125 -7.5 C 6.175781 -7.71875 6.519531 -8.023438 6.8125 -8.421875 C 7.125 -8.867188 7.285156 -9.3125 7.296875 -9.75 C 7.316406 -10.1875 7.210938 -10.507812 6.984375 -10.71875 C 6.765625 -10.925781 6.46875 -11.03125 6.09375 -11.03125 C 5.71875 -11.03125 5.378906 -10.945312 5.078125 -10.78125 C 4.773438 -10.613281 4.515625 -10.390625 4.296875 -10.109375 C 3.828125 -9.492188 3.59375 -8.769531 3.59375 -7.9375 C 3.59375 -7.375 3.785156 -6.785156 4.171875 -6.171875 C 4.335938 -5.898438 4.515625 -5.632812 4.703125 -5.375 C 4.890625 -5.125 5.066406 -4.863281 5.234375 -4.59375 C 5.609375 -3.96875 5.796875 -3.40625 5.796875 -2.90625 C 5.796875 -2.40625 5.707031 -1.984375 5.53125 -1.640625 C 5.351562 -1.296875 5.117188 -1 4.828125 -0.75 C 4.179688 -0.195312 3.453125 0.078125 2.640625 0.078125 C 1.867188 0.078125 1.273438 -0.148438 0.859375 -0.609375 C 0.523438 -0.972656 0.359375 -1.375 0.359375 -1.8125 C 0.359375 -2.28125 0.492188 -2.671875 0.765625 -2.984375 C 0.960938 -3.234375 1.15625 -3.378906 1.34375 -3.421875 C 1.757812 -3.535156 1.96875 -3.40625 1.96875 -3.03125 Z M 1.96875 -3.03125 "/></g></g></g><g fill="#00bf63" fill-opacity="1"><g transform="translate(31.651708, 20.61674)"><g><path d="M 5.8125 -1.765625 C 5.8125 -2.460938 6.007812 -3.539062 6.40625 -5 C 5.15625 -4.96875 4.195312 -4.929688 3.53125 -4.890625 C 3.332031 -4.515625 3.148438 -4.160156 2.984375 -3.828125 L 2.5 -2.875 C 1.863281 -1.613281 1.289062 -0.785156 0.78125 -0.390625 C 0.382812 -0.078125 -0.0234375 0.078125 -0.453125 0.078125 C -0.785156 0.078125 -1.039062 -0.03125 -1.21875 -0.25 C -1.28125 -0.332031 -1.316406 -0.414062 -1.328125 -0.5 C -1.335938 -0.582031 -1.316406 -0.632812 -1.265625 -0.65625 C -0.671875 -0.882812 -0.1875 -1.226562 0.1875 -1.6875 C 0.507812 -2.09375 0.835938 -2.59375 1.171875 -3.1875 L 2.046875 -4.765625 L 1.5625 -4.6875 C 1.25 -4.632812 1.09375 -4.6875 1.09375 -4.84375 C 1.09375 -5 1.1875 -5.144531 1.375 -5.28125 C 1.695312 -5.519531 2.015625 -5.679688 2.328125 -5.765625 L 2.671875 -5.84375 C 3.515625 -7.25 4.160156 -8.234375 4.609375 -8.796875 C 5.066406 -9.359375 5.476562 -9.820312 5.84375 -10.1875 C 6.21875 -10.5625 6.609375 -10.894531 7.015625 -11.1875 C 7.910156 -11.800781 8.796875 -12.109375 9.671875 -12.109375 C 9.941406 -12.109375 10.125 -12.054688 10.21875 -11.953125 C 10.375 -11.773438 10.421875 -11.585938 10.359375 -11.390625 C 10.304688 -11.203125 10.210938 -10.925781 10.078125 -10.5625 C 9.242188 -8.300781 8.738281 -6.898438 8.5625 -6.359375 C 8.644531 -6.359375 8.71875 -6.359375 8.78125 -6.359375 L 8.953125 -6.359375 C 9.535156 -6.359375 9.847656 -6.300781 9.890625 -6.1875 C 9.898438 -6.15625 9.90625 -6.085938 9.90625 -5.984375 C 9.90625 -5.890625 9.875 -5.78125 9.8125 -5.65625 C 9.757812 -5.53125 9.664062 -5.425781 9.53125 -5.34375 C 9.25 -5.15625 8.785156 -5.046875 8.140625 -5.015625 C 7.785156 -3.796875 7.582031 -2.953125 7.53125 -2.484375 C 7.488281 -2.015625 7.503906 -1.695312 7.578125 -1.53125 C 7.660156 -1.375 7.773438 -1.296875 7.921875 -1.296875 C 8.066406 -1.296875 8.1875 -1.304688 8.28125 -1.328125 C 8.375 -1.359375 8.457031 -1.394531 8.53125 -1.4375 L 8.734375 -1.53125 C 8.785156 -1.5625 8.835938 -1.578125 8.890625 -1.578125 C 8.953125 -1.578125 9 -1.539062 9.03125 -1.46875 C 9.070312 -1.394531 9.09375 -1.300781 9.09375 -1.1875 C 9.09375 -1.070312 9.039062 -0.9375 8.9375 -0.78125 C 8.84375 -0.625 8.71875 -0.484375 8.5625 -0.359375 C 8.195312 -0.0664062 7.789062 0.078125 7.34375 0.078125 C 6.632812 0.078125 6.164062 -0.234375 5.9375 -0.859375 C 5.851562 -1.078125 5.8125 -1.269531 5.8125 -1.4375 Z M 4.25 -6.109375 C 5.175781 -6.234375 6.035156 -6.304688 6.828125 -6.328125 C 6.972656 -6.773438 7.128906 -7.21875 7.296875 -7.65625 L 7.78125 -8.890625 C 7.9375 -9.285156 8.097656 -9.660156 8.265625 -10.015625 L 8.71875 -10.96875 C 7.632812 -10.695312 6.566406 -9.765625 5.515625 -8.171875 C 5.296875 -7.847656 5.078125 -7.507812 4.859375 -7.15625 Z M 4.25 -6.109375 "/></g></g></g><g fill="#00bf63" fill-opacity="1"><g transform="translate(41.47557, 20.61674)"><g><path d="M 8.03125 -2.046875 C 8.03125 -1.546875 8.210938 -1.296875 8.578125 -1.296875 C 8.796875 -1.296875 8.992188 -1.34375 9.171875 -1.4375 C 9.359375 -1.53125 9.476562 -1.578125 9.53125 -1.578125 C 9.632812 -1.578125 9.6875 -1.519531 9.6875 -1.40625 C 9.6875 -0.945312 9.441406 -0.5625 8.953125 -0.25 C 8.617188 -0.03125 8.300781 0.078125 8 0.078125 C 7.707031 0.078125 7.46875 0.046875 7.28125 -0.015625 C 7.09375 -0.0859375 6.929688 -0.203125 6.796875 -0.359375 C 6.515625 -0.671875 6.375 -1.132812 6.375 -1.75 C 6.375 -2.238281 6.460938 -2.804688 6.640625 -3.453125 C 6.828125 -4.097656 6.960938 -4.554688 7.046875 -4.828125 L 6.234375 -3.59375 C 4.554688 -1.144531 3.140625 0.078125 1.984375 0.078125 C 1.203125 0.078125 0.6875 -0.25 0.4375 -0.90625 C 0.351562 -1.113281 0.3125 -1.300781 0.3125 -1.46875 L 0.3125 -1.765625 C 0.3125 -2.410156 0.679688 -3.609375 1.421875 -5.359375 L 3.03125 -9.125 C 3.34375 -9.875 3.5 -10.335938 3.5 -10.515625 C 3.5 -10.691406 3.46875 -10.820312 3.40625 -10.90625 C 3.34375 -11 3.273438 -11.070312 3.203125 -11.125 L 2.984375 -11.28125 C 2.921875 -11.320312 2.890625 -11.382812 2.890625 -11.46875 C 2.890625 -11.550781 2.929688 -11.632812 3.015625 -11.71875 C 3.097656 -11.800781 3.207031 -11.875 3.34375 -11.9375 C 3.613281 -12.050781 3.878906 -12.109375 4.140625 -12.109375 C 4.410156 -12.109375 4.613281 -12.082031 4.75 -12.03125 C 4.894531 -11.976562 5.015625 -11.910156 5.109375 -11.828125 C 5.285156 -11.648438 5.375 -11.441406 5.375 -11.203125 C 5.375 -10.960938 5.328125 -10.675781 5.234375 -10.34375 C 5.148438 -10.019531 5.035156 -9.664062 4.890625 -9.28125 C 4.742188 -8.894531 4.570312 -8.484375 4.375 -8.046875 L 3.1875 -5.453125 C 2.4375 -3.796875 2.0625 -2.703125 2.0625 -2.171875 L 2.0625 -2.046875 C 2.0625 -1.554688 2.25 -1.3125 2.625 -1.3125 C 3.3125 -1.3125 4.203125 -2.171875 5.296875 -3.890625 C 5.617188 -4.398438 5.945312 -4.9375 6.28125 -5.5 L 7.234375 -7.25 C 8.585938 -9.875 9.367188 -11.375 9.578125 -11.75 C 9.679688 -11.9375 9.828125 -12.03125 10.015625 -12.03125 C 10.210938 -12.03125 10.375 -12 10.5 -11.9375 C 10.632812 -11.882812 10.75 -11.816406 10.84375 -11.734375 C 11.0625 -11.523438 11.113281 -11.316406 11 -11.109375 C 10.507812 -10.171875 9.910156 -8.664062 9.203125 -6.59375 C 8.421875 -4.320312 8.03125 -2.804688 8.03125 -2.046875 Z M 8.03125 -2.046875 "/></g></g></g><g fill="#00bf63" fill-opacity="1"><g transform="translate(51.43966, 20.61674)"><g><path d="M 0.75 -1.84375 C 0.800781 -2.175781 0.898438 -2.640625 1.046875 -3.234375 C 1.203125 -3.828125 1.398438 -4.460938 1.640625 -5.140625 C 2.191406 -6.691406 2.835938 -8.070312 3.578125 -9.28125 C 3.679688 -9.445312 3.816406 -9.539062 3.984375 -9.5625 C 4.210938 -9.59375 4.410156 -9.609375 4.578125 -9.609375 C 4.753906 -9.609375 4.910156 -9.585938 5.046875 -9.546875 C 5.191406 -9.515625 5.300781 -9.46875 5.375 -9.40625 C 5.53125 -9.269531 5.554688 -9.128906 5.453125 -8.984375 C 4.515625 -7.566406 3.691406 -5.835938 2.984375 -3.796875 C 2.722656 -3.023438 2.566406 -2.484375 2.515625 -2.171875 C 2.460938 -1.867188 2.425781 -1.660156 2.40625 -1.546875 C 2.382812 -1.441406 2.375 -1.347656 2.375 -1.265625 C 2.375 -1.085938 2.476562 -1 2.6875 -1 C 2.90625 -1 3.148438 -1.050781 3.421875 -1.15625 C 3.691406 -1.257812 3.984375 -1.398438 4.296875 -1.578125 C 4.609375 -1.765625 4.929688 -1.988281 5.265625 -2.25 C 5.597656 -2.519531 5.925781 -2.816406 6.25 -3.140625 C 6.570312 -3.472656 6.875 -3.832031 7.15625 -4.21875 C 7.445312 -4.601562 7.703125 -5.007812 7.921875 -5.4375 C 8.390625 -6.375 8.625 -7.296875 8.625 -8.203125 C 8.625 -9.453125 8.117188 -10.28125 7.109375 -10.6875 C 6.753906 -10.820312 6.382812 -10.890625 6 -10.890625 C 5.613281 -10.890625 5.289062 -10.863281 5.03125 -10.8125 C 4.769531 -10.769531 4.515625 -10.707031 4.265625 -10.625 C 3.773438 -10.445312 3.359375 -10.207031 3.015625 -9.90625 C 2.929688 -9.851562 2.828125 -9.828125 2.703125 -9.828125 C 2.578125 -9.828125 2.441406 -9.863281 2.296875 -9.9375 C 2.160156 -10.007812 2.035156 -10.101562 1.921875 -10.21875 C 1.660156 -10.46875 1.554688 -10.707031 1.609375 -10.9375 C 1.660156 -11.269531 2.15625 -11.5625 3.09375 -11.8125 C 3.882812 -12.007812 4.679688 -12.109375 5.484375 -12.109375 C 6.285156 -12.109375 7.003906 -12 7.640625 -11.78125 C 8.285156 -11.5625 8.804688 -11.269531 9.203125 -10.90625 C 9.953125 -10.207031 10.328125 -9.273438 10.328125 -8.109375 C 10.328125 -6.554688 9.789062 -5.0625 8.71875 -3.625 C 7.738281 -2.289062 6.570312 -1.28125 5.21875 -0.59375 C 4.34375 -0.144531 3.535156 0.078125 2.796875 0.078125 C 2.222656 0.078125 1.726562 -0.0859375 1.3125 -0.421875 C 0.863281 -0.785156 0.675781 -1.257812 0.75 -1.84375 Z M 0.75 -1.84375 "/></g></g></g><g fill="#00bf63" fill-opacity="1"><g transform="translate(61.497237, 20.61674)"><g><path d="M -0.0625 -0.71875 C 0.832031 -1.375 1.738281 -3.070312 2.65625 -5.8125 C 3.1875 -7.40625 3.554688 -8.84375 3.765625 -10.125 C 3.816406 -10.476562 3.84375 -10.753906 3.84375 -10.953125 C 3.632812 -10.941406 3.4375 -10.882812 3.25 -10.78125 L 2.671875 -10.453125 C 2.515625 -10.359375 2.300781 -10.425781 2.03125 -10.65625 C 1.757812 -10.882812 1.632812 -11.078125 1.65625 -11.234375 C 1.6875 -11.390625 1.773438 -11.519531 1.921875 -11.625 C 2.078125 -11.726562 2.257812 -11.816406 2.46875 -11.890625 C 2.882812 -12.035156 3.238281 -12.109375 3.53125 -12.109375 C 3.820312 -12.109375 4.078125 -12.085938 4.296875 -12.046875 C 4.515625 -12.003906 4.71875 -11.929688 4.90625 -11.828125 C 5.3125 -11.585938 5.519531 -11.242188 5.53125 -10.796875 C 5.550781 -10.023438 5.289062 -8.710938 4.75 -6.859375 C 3.882812 -3.921875 2.875 -1.859375 1.71875 -0.671875 C 1.394531 -0.335938 1.0625 -0.113281 0.71875 0 C 0.625 0.03125 0.53125 0.046875 0.4375 0.046875 C 0.34375 0.046875 0.253906 0.03125 0.171875 0 C 0.0976562 -0.03125 0.0351562 -0.0703125 -0.015625 -0.125 C -0.117188 -0.21875 -0.171875 -0.320312 -0.171875 -0.4375 C -0.171875 -0.5625 -0.132812 -0.65625 -0.0625 -0.71875 Z M -0.0625 -0.71875 "/></g></g></g><g clip-path="url(#c939ff42ee)"><path fill="#00bf63" d="M 7.167969 10.308594 C 7.746094 11.78125 9.109375 14.964844 10.617188 16.46875 C 11.390625 17.242188 12.390625 18.035156 13.394531 18.675781 C 13.394531 18.675781 11.335938 16.390625 9.234375 12.375 C 13.25 14.476562 15.535156 16.535156 15.535156 16.535156 C 14.894531 15.53125 14.101562 14.53125 13.328125 13.757812 C 11.820312 12.25 8.640625 10.886719 7.167969 10.308594 Z M 12.160156 21.4375 C 12.082031 20.75 12.113281 19.929688 12.53125 19.335938 C 11.832031 18.867188 11.140625 18.335938 10.535156 17.792969 C 10.601562 18.761719 10.96875 20.074219 12.160156 21.4375 Z M 18.296875 15.304688 C 16.933594 14.113281 15.621094 13.746094 14.652344 13.675781 C 15.191406 14.285156 15.726562 14.972656 16.195312 15.671875 C 16.785156 15.253906 17.609375 15.222656 18.296875 15.304688 Z M 6.640625 9.296875 C 6.839844 9.367188 11.332031 10.960938 13.570312 12.945312 L 13.75 12.925781 C 14.988281 12.808594 17.417969 13.011719 19.757812 15.703125 L 20.699219 16.78125 L 19.347656 16.308594 C 18.734375 16.09375 17.019531 15.707031 16.425781 16.492188 L 16.414062 16.507812 L 16.496094 16.648438 L 13.507812 19.640625 L 13.367188 19.554688 L 13.351562 19.566406 C 12.570312 20.15625 12.953125 21.875 13.167969 22.488281 L 13.640625 23.839844 L 12.558594 22.898438 C 9.871094 20.5625 9.667969 18.128906 9.785156 16.890625 L 9.804688 16.710938 C 7.820312 14.472656 6.226562 9.980469 6.15625 9.78125 L 5.894531 9.035156 Z M 24.824219 27.96875 L 15.019531 19.976562 L 16.835938 18.164062 Z M 16.628906 17.703125 L 14.5625 19.769531 C 14.367188 19.675781 14.167969 19.574219 13.964844 19.460938 L 16.320312 17.105469 C 16.433594 17.308594 16.535156 17.507812 16.628906 17.703125 " fill-opacity="1" fill-rule="nonzero"/></g><g fill="#0a0a0a" fill-opacity="1"><g transform="translate(24.82929, 26.826626)"><g><path d="M 0.828125 -4.78125 C 0.921875 -4.789062 0.988281 -4.796875 1.03125 -4.796875 C 1.082031 -4.804688 1.109375 -4.8125 1.109375 -4.8125 C 1.117188 -4.8125 1.125 -4.800781 1.125 -4.78125 C 1.125 -4.769531 1.125 -4.753906 1.125 -4.734375 C 1.132812 -4.722656 1.140625 -4.710938 1.140625 -4.703125 C 1.140625 -4.679688 1.171875 -4.664062 1.234375 -4.65625 C 1.359375 -4.644531 1.535156 -4.640625 1.765625 -4.640625 C 1.960938 -4.640625 2.15625 -4.640625 2.34375 -4.640625 C 2.539062 -4.648438 2.734375 -4.664062 2.921875 -4.6875 C 3.085938 -4.707031 3.234375 -4.722656 3.359375 -4.734375 C 3.492188 -4.753906 3.609375 -4.773438 3.703125 -4.796875 L 3.75 -4.796875 L 3.75 -4.484375 C 3.75 -4.273438 3.742188 -4.164062 3.734375 -4.15625 C 3.691406 -4.125 3.257812 -4.09375 2.4375 -4.0625 C 2.300781 -4.050781 2.164062 -4.046875 2.03125 -4.046875 C 1.894531 -4.046875 1.757812 -4.046875 1.625 -4.046875 L 1.234375 -4.0625 L 1.234375 -4.03125 C 1.234375 -4.007812 1.238281 -3.914062 1.25 -3.75 C 1.257812 -3.519531 1.269531 -3.363281 1.28125 -3.28125 L 1.28125 -2.640625 L 1.40625 -2.640625 C 1.445312 -2.628906 1.519531 -2.625 1.625 -2.625 C 1.738281 -2.625 1.882812 -2.628906 2.0625 -2.640625 C 2.238281 -2.640625 2.382812 -2.640625 2.5 -2.640625 C 2.625 -2.648438 2.71875 -2.660156 2.78125 -2.671875 C 3.070312 -2.691406 3.265625 -2.710938 3.359375 -2.734375 L 3.421875 -2.75 L 3.421875 -2.046875 L 3.34375 -2.03125 C 2.894531 -1.957031 2.347656 -1.925781 1.703125 -1.9375 L 1.3125 -1.9375 L 1.3125 -1.625 C 1.300781 -1.46875 1.289062 -1.265625 1.28125 -1.015625 C 1.269531 -0.765625 1.253906 -0.503906 1.234375 -0.234375 C 1.210938 -0.0351562 1.195312 0.109375 1.1875 0.203125 C 1.175781 0.296875 1.171875 0.351562 1.171875 0.375 C 1.160156 0.382812 1.140625 0.382812 1.109375 0.375 C 1.085938 0.375 1.046875 0.363281 0.984375 0.34375 C 0.921875 0.320312 0.835938 0.289062 0.734375 0.25 C 0.660156 0.226562 0.597656 0.207031 0.546875 0.1875 C 0.503906 0.164062 0.460938 0.148438 0.421875 0.140625 C 0.378906 0.128906 0.34375 0.117188 0.3125 0.109375 C 0.3125 0.0976562 0.328125 0.0078125 0.359375 -0.15625 C 0.460938 -0.882812 0.535156 -1.640625 0.578125 -2.421875 C 0.617188 -3.203125 0.613281 -3.882812 0.5625 -4.46875 C 0.539062 -4.625 0.53125 -4.707031 0.53125 -4.71875 C 0.53125 -4.738281 0.628906 -4.757812 0.828125 -4.78125 Z M 0.828125 -4.78125 "/></g></g></g><g fill="#0a0a0a" fill-opacity="1"><g transform="translate(29.753889, 26.826626)"><g><path d="M 2.4375 -4.78125 C 2.738281 -4.78125 2.992188 -4.703125 3.203125 -4.546875 C 3.421875 -4.398438 3.597656 -4.210938 3.734375 -3.984375 C 3.878906 -3.765625 3.988281 -3.519531 4.0625 -3.25 C 4.132812 -2.976562 4.171875 -2.710938 4.171875 -2.453125 C 4.171875 -1.585938 3.910156 -0.867188 3.390625 -0.296875 C 3.210938 -0.0976562 3.007812 0.0625 2.78125 0.1875 C 2.550781 0.3125 2.304688 0.375 2.046875 0.375 C 1.972656 0.375 1.898438 0.367188 1.828125 0.359375 C 1.765625 0.359375 1.707031 0.351562 1.65625 0.34375 C 1.414062 0.28125 1.207031 0.164062 1.03125 0 C 0.863281 -0.15625 0.722656 -0.335938 0.609375 -0.546875 C 0.503906 -0.753906 0.425781 -0.972656 0.375 -1.203125 C 0.332031 -1.441406 0.3125 -1.679688 0.3125 -1.921875 C 0.3125 -2.160156 0.332031 -2.394531 0.375 -2.625 C 0.425781 -2.863281 0.5 -3.09375 0.59375 -3.3125 C 0.6875 -3.539062 0.800781 -3.75 0.9375 -3.9375 C 1.082031 -4.125 1.253906 -4.289062 1.453125 -4.4375 C 1.609375 -4.539062 1.765625 -4.625 1.921875 -4.6875 C 2.085938 -4.75 2.257812 -4.78125 2.4375 -4.78125 Z M 2.609375 -4.015625 C 2.546875 -4.035156 2.476562 -4.046875 2.40625 -4.046875 C 2.28125 -4.046875 2.160156 -4.015625 2.046875 -3.953125 C 1.941406 -3.898438 1.835938 -3.828125 1.734375 -3.734375 C 1.640625 -3.648438 1.550781 -3.550781 1.46875 -3.4375 C 1.394531 -3.332031 1.335938 -3.226562 1.296875 -3.125 C 1.160156 -2.84375 1.078125 -2.535156 1.046875 -2.203125 L 1.046875 -1.796875 C 1.046875 -1.617188 1.054688 -1.488281 1.078125 -1.40625 C 1.097656 -1.28125 1.132812 -1.148438 1.1875 -1.015625 C 1.238281 -0.890625 1.300781 -0.769531 1.375 -0.65625 C 1.445312 -0.550781 1.539062 -0.460938 1.65625 -0.390625 C 1.769531 -0.316406 1.898438 -0.28125 2.046875 -0.28125 C 2.242188 -0.28125 2.429688 -0.351562 2.609375 -0.5 C 2.734375 -0.59375 2.84375 -0.703125 2.9375 -0.828125 C 3.039062 -0.960938 3.125 -1.113281 3.1875 -1.28125 C 3.257812 -1.457031 3.3125 -1.640625 3.34375 -1.828125 C 3.382812 -2.023438 3.40625 -2.222656 3.40625 -2.421875 C 3.40625 -3.023438 3.257812 -3.476562 2.96875 -3.78125 C 2.863281 -3.90625 2.742188 -3.984375 2.609375 -4.015625 Z M 2.609375 -4.015625 "/></g></g></g><g fill="#0a0a0a" fill-opacity="1"><g transform="translate(35.201731, 26.826626)"><g><path d="M 2.921875 -4.375 L 2.921875 -4.75 L 2.984375 -4.734375 C 3.003906 -4.734375 3.039062 -4.726562 3.09375 -4.71875 C 3.15625 -4.71875 3.238281 -4.710938 3.34375 -4.703125 C 3.4375 -4.691406 3.515625 -4.679688 3.578125 -4.671875 C 3.640625 -4.671875 3.675781 -4.664062 3.6875 -4.65625 L 3.734375 -4.65625 L 3.734375 -4.359375 C 3.734375 -4.140625 3.726562 -3.878906 3.71875 -3.578125 C 3.707031 -3.285156 3.679688 -2.976562 3.640625 -2.65625 C 3.609375 -2.332031 3.554688 -2.007812 3.484375 -1.6875 C 3.410156 -1.363281 3.316406 -1.066406 3.203125 -0.796875 C 3.085938 -0.523438 2.941406 -0.289062 2.765625 -0.09375 C 2.597656 0.101562 2.390625 0.234375 2.140625 0.296875 C 2.078125 0.328125 1.96875 0.335938 1.8125 0.328125 C 1.738281 0.328125 1.671875 0.320312 1.609375 0.3125 C 1.546875 0.3125 1.492188 0.304688 1.453125 0.296875 C 1.171875 0.210938 0.945312 0.0546875 0.78125 -0.171875 C 0.625 -0.398438 0.515625 -0.738281 0.453125 -1.1875 C 0.359375 -1.707031 0.3125 -2.441406 0.3125 -3.390625 C 0.3125 -3.503906 0.3125 -3.628906 0.3125 -3.765625 C 0.3125 -3.898438 0.316406 -4.050781 0.328125 -4.21875 C 0.328125 -4.550781 0.335938 -4.71875 0.359375 -4.71875 C 0.367188 -4.71875 0.414062 -4.710938 0.5 -4.703125 C 0.59375 -4.691406 0.6875 -4.675781 0.78125 -4.65625 C 0.882812 -4.644531 0.976562 -4.632812 1.0625 -4.625 C 1.144531 -4.613281 1.1875 -4.609375 1.1875 -4.609375 C 1.207031 -4.597656 1.210938 -4.570312 1.203125 -4.53125 C 1.179688 -4.238281 1.164062 -3.941406 1.15625 -3.640625 C 1.144531 -3.347656 1.140625 -3.050781 1.140625 -2.75 C 1.140625 -2.050781 1.179688 -1.523438 1.265625 -1.171875 C 1.347656 -0.816406 1.472656 -0.609375 1.640625 -0.546875 C 1.753906 -0.503906 1.878906 -0.492188 2.015625 -0.515625 C 2.210938 -0.566406 2.367188 -0.703125 2.484375 -0.921875 C 2.546875 -1.023438 2.597656 -1.164062 2.640625 -1.34375 C 2.691406 -1.53125 2.734375 -1.726562 2.765625 -1.9375 C 2.796875 -2.15625 2.820312 -2.378906 2.84375 -2.609375 C 2.863281 -2.847656 2.875 -3.078125 2.875 -3.296875 C 2.882812 -3.515625 2.894531 -3.71875 2.90625 -3.90625 C 2.914062 -4.09375 2.921875 -4.25 2.921875 -4.375 Z M 2.921875 -4.375 "/></g></g></g><g fill="#0a0a0a" fill-opacity="1"><g transform="translate(40.210974, 26.826626)"><g><path d="M 3.453125 -4.75 C 3.453125 -4.789062 3.457031 -4.8125 3.46875 -4.8125 C 3.5 -4.8125 3.601562 -4.796875 3.78125 -4.765625 C 3.875 -4.753906 3.941406 -4.742188 3.984375 -4.734375 C 4.035156 -4.734375 4.0625 -4.734375 4.0625 -4.734375 C 4.070312 -4.722656 4.078125 -4.40625 4.078125 -3.78125 C 4.066406 -3.457031 4.054688 -3.125 4.046875 -2.78125 C 4.035156 -2.445312 4.015625 -2.113281 3.984375 -1.78125 C 3.953125 -1.445312 3.910156 -1.113281 3.859375 -0.78125 C 3.804688 -0.457031 3.726562 -0.144531 3.625 0.15625 C 3.59375 0.25 3.578125 0.300781 3.578125 0.3125 C 3.578125 0.320312 3.445312 0.320312 3.1875 0.3125 L 2.78125 0.3125 L 2.65625 -0.15625 C 2.414062 -0.976562 2.144531 -1.804688 1.84375 -2.640625 C 1.832031 -2.679688 1.816406 -2.726562 1.796875 -2.78125 C 1.773438 -2.84375 1.753906 -2.898438 1.734375 -2.953125 C 1.710938 -3.003906 1.691406 -3.054688 1.671875 -3.109375 C 1.660156 -3.160156 1.648438 -3.195312 1.640625 -3.21875 C 1.609375 -3.3125 1.582031 -3.382812 1.5625 -3.4375 C 1.539062 -3.488281 1.53125 -3.515625 1.53125 -3.515625 L 1.5 -3.609375 L 1.5 -3.421875 C 1.488281 -2.835938 1.460938 -2.257812 1.421875 -1.6875 C 1.378906 -1.113281 1.304688 -0.539062 1.203125 0.03125 C 1.148438 0.332031 1.113281 0.484375 1.09375 0.484375 C 1.09375 0.484375 1.046875 0.46875 0.953125 0.4375 C 0.867188 0.40625 0.773438 0.367188 0.671875 0.328125 C 0.566406 0.285156 0.46875 0.242188 0.375 0.203125 C 0.289062 0.171875 0.25 0.15625 0.25 0.15625 C 0.238281 0.144531 0.25 0.101562 0.28125 0.03125 C 0.40625 -0.289062 0.503906 -0.640625 0.578125 -1.015625 C 0.660156 -1.398438 0.726562 -1.789062 0.78125 -2.1875 C 0.84375 -2.582031 0.890625 -2.972656 0.921875 -3.359375 C 0.953125 -3.753906 0.972656 -4.117188 0.984375 -4.453125 L 1 -4.796875 L 1.265625 -4.796875 C 1.421875 -4.796875 1.5 -4.789062 1.5 -4.78125 C 1.5 -4.769531 1.578125 -4.601562 1.734375 -4.28125 C 1.984375 -3.757812 2.21875 -3.25 2.4375 -2.75 C 2.65625 -2.25 2.859375 -1.757812 3.046875 -1.28125 C 3.066406 -1.25 3.082031 -1.21875 3.09375 -1.1875 C 3.113281 -1.15625 3.125 -1.144531 3.125 -1.15625 C 3.125 -1.164062 3.148438 -1.3125 3.203125 -1.59375 C 3.285156 -2.125 3.347656 -2.644531 3.390625 -3.15625 C 3.429688 -3.675781 3.453125 -4.207031 3.453125 -4.75 Z M 3.453125 -4.75 "/></g></g></g><g fill="#0a0a0a" fill-opacity="1"><g transform="translate(45.574172, 26.826626)"><g><path d="M 0.796875 -4.765625 C 0.878906 -4.773438 0.941406 -4.785156 0.984375 -4.796875 C 1.035156 -4.804688 1.070312 -4.8125 1.09375 -4.8125 C 1.113281 -4.800781 1.132812 -4.742188 1.15625 -4.640625 C 1.15625 -4.609375 1.15625 -4.582031 1.15625 -4.5625 C 1.164062 -4.539062 1.171875 -4.523438 1.171875 -4.515625 C 1.171875 -4.492188 1.171875 -4.476562 1.171875 -4.46875 C 1.179688 -4.46875 1.203125 -4.472656 1.234375 -4.484375 C 1.265625 -4.492188 1.3125 -4.507812 1.375 -4.53125 C 1.5625 -4.601562 1.753906 -4.660156 1.953125 -4.703125 C 2.148438 -4.742188 2.347656 -4.765625 2.546875 -4.765625 C 2.878906 -4.765625 3.144531 -4.703125 3.34375 -4.578125 C 3.550781 -4.453125 3.710938 -4.289062 3.828125 -4.09375 C 3.941406 -3.894531 4.019531 -3.664062 4.0625 -3.40625 C 4.101562 -3.144531 4.125 -2.878906 4.125 -2.609375 C 4.125 -2.253906 4.078125 -1.898438 3.984375 -1.546875 C 3.898438 -1.191406 3.769531 -0.875 3.59375 -0.59375 C 3.414062 -0.320312 3.179688 -0.0976562 2.890625 0.078125 C 2.609375 0.253906 2.265625 0.34375 1.859375 0.34375 C 1.835938 0.34375 1.789062 0.335938 1.71875 0.328125 C 1.65625 0.328125 1.585938 0.320312 1.515625 0.3125 C 1.441406 0.3125 1.375 0.304688 1.3125 0.296875 C 1.257812 0.296875 1.226562 0.289062 1.21875 0.28125 L 1.203125 0.328125 C 1.203125 0.335938 1.195312 0.347656 1.1875 0.359375 C 1.1875 0.367188 1.1875 0.378906 1.1875 0.390625 C 1.1875 0.398438 1.179688 0.398438 1.171875 0.390625 C 1.171875 0.421875 1.164062 0.4375 1.15625 0.4375 C 1.132812 0.4375 0.992188 0.390625 0.734375 0.296875 C 0.460938 0.203125 0.320312 0.148438 0.3125 0.140625 C 0.300781 0.140625 0.304688 0.0859375 0.328125 -0.015625 C 0.546875 -1.390625 0.632812 -2.613281 0.59375 -3.6875 C 0.59375 -3.863281 0.585938 -4.035156 0.578125 -4.203125 C 0.566406 -4.378906 0.550781 -4.554688 0.53125 -4.734375 C 0.53125 -4.742188 0.617188 -4.753906 0.796875 -4.765625 Z M 2.75 -3.953125 C 2.71875 -3.953125 2.632812 -3.957031 2.5 -3.96875 C 2.375 -3.976562 2.296875 -3.976562 2.265625 -3.96875 C 2.253906 -3.96875 2.234375 -3.96875 2.203125 -3.96875 C 2.171875 -3.96875 2.144531 -3.960938 2.125 -3.953125 C 2.03125 -3.941406 1.925781 -3.921875 1.8125 -3.890625 C 1.707031 -3.859375 1.585938 -3.820312 1.453125 -3.78125 L 1.265625 -3.703125 L 1.265625 -3.65625 C 1.265625 -3.550781 1.269531 -3.453125 1.28125 -3.359375 C 1.34375 -2.441406 1.34375 -1.550781 1.28125 -0.6875 C 1.269531 -0.550781 1.269531 -0.484375 1.28125 -0.484375 C 1.289062 -0.472656 1.332031 -0.457031 1.40625 -0.4375 C 1.488281 -0.414062 1.613281 -0.40625 1.78125 -0.40625 C 1.945312 -0.40625 2.070312 -0.414062 2.15625 -0.4375 C 2.394531 -0.507812 2.59375 -0.617188 2.75 -0.765625 C 2.914062 -0.921875 3.046875 -1.097656 3.140625 -1.296875 C 3.234375 -1.503906 3.300781 -1.722656 3.34375 -1.953125 C 3.382812 -2.191406 3.40625 -2.421875 3.40625 -2.640625 C 3.40625 -2.773438 3.394531 -2.910156 3.375 -3.046875 C 3.363281 -3.179688 3.335938 -3.304688 3.296875 -3.421875 C 3.253906 -3.546875 3.1875 -3.65625 3.09375 -3.75 C 3.007812 -3.84375 2.894531 -3.910156 2.75 -3.953125 Z M 2.75 -3.953125 "/></g></g></g><g fill="#0a0a0a" fill-opacity="1"><g transform="translate(50.983533, 26.826626)"><g><path d="M 3.65625 -4.75 L 3.78125 -4.78125 L 3.796875 -4.4375 L 3.796875 -4.109375 C 3.785156 -4.097656 3.585938 -4.078125 3.203125 -4.046875 C 2.921875 -4.023438 2.65625 -4.007812 2.40625 -4 C 2.164062 -4 1.941406 -4 1.734375 -4 C 1.429688 -4.007812 1.28125 -4.003906 1.28125 -3.984375 C 1.28125 -3.972656 1.28125 -3.960938 1.28125 -3.953125 C 1.28125 -3.941406 1.28125 -3.925781 1.28125 -3.90625 C 1.289062 -3.882812 1.296875 -3.863281 1.296875 -3.84375 C 1.304688 -3.707031 1.316406 -3.550781 1.328125 -3.375 C 1.335938 -3.207031 1.34375 -3.023438 1.34375 -2.828125 L 1.359375 -2.703125 L 1.78125 -2.703125 C 2.09375 -2.703125 2.382812 -2.710938 2.65625 -2.734375 C 2.9375 -2.753906 3.195312 -2.785156 3.4375 -2.828125 L 3.46875 -2.84375 L 3.46875 -2.484375 C 3.457031 -2.367188 3.453125 -2.28125 3.453125 -2.21875 C 3.453125 -2.164062 3.453125 -2.132812 3.453125 -2.125 C 3.441406 -2.113281 3.394531 -2.097656 3.3125 -2.078125 C 3.238281 -2.066406 3.148438 -2.054688 3.046875 -2.046875 C 2.941406 -2.035156 2.820312 -2.019531 2.6875 -2 C 2.5625 -1.988281 2.441406 -1.976562 2.328125 -1.96875 C 2.222656 -1.96875 2.128906 -1.960938 2.046875 -1.953125 C 1.960938 -1.953125 1.90625 -1.953125 1.875 -1.953125 L 1.375 -1.953125 L 1.375 -1.703125 C 1.382812 -1.609375 1.382812 -1.492188 1.375 -1.359375 C 1.375 -1.234375 1.367188 -1.085938 1.359375 -0.921875 C 1.347656 -0.753906 1.335938 -0.617188 1.328125 -0.515625 C 1.328125 -0.410156 1.320312 -0.335938 1.3125 -0.296875 L 1.3125 -0.234375 L 1.765625 -0.234375 C 2.128906 -0.234375 2.472656 -0.25 2.796875 -0.28125 C 3.128906 -0.3125 3.453125 -0.363281 3.765625 -0.4375 C 3.828125 -0.445312 3.875 -0.457031 3.90625 -0.46875 C 3.9375 -0.476562 3.953125 -0.484375 3.953125 -0.484375 C 3.960938 -0.484375 3.96875 -0.363281 3.96875 -0.125 C 3.96875 0.101562 3.957031 0.21875 3.9375 0.21875 C 3.882812 0.238281 3.738281 0.265625 3.5 0.296875 C 3.164062 0.335938 2.789062 0.367188 2.375 0.390625 C 1.957031 0.410156 1.492188 0.414062 0.984375 0.40625 C 0.753906 0.40625 0.582031 0.40625 0.46875 0.40625 C 0.363281 0.40625 0.3125 0.40625 0.3125 0.40625 C 0.3125 0.382812 0.320312 0.316406 0.34375 0.203125 C 0.394531 -0.109375 0.441406 -0.445312 0.484375 -0.8125 C 0.523438 -1.1875 0.554688 -1.578125 0.578125 -1.984375 C 0.585938 -2.160156 0.597656 -2.359375 0.609375 -2.578125 C 0.617188 -2.796875 0.617188 -3.035156 0.609375 -3.296875 C 0.597656 -3.828125 0.582031 -4.226562 0.5625 -4.5 C 0.550781 -4.625 0.550781 -4.6875 0.5625 -4.6875 C 0.757812 -4.6875 0.953125 -4.703125 1.140625 -4.734375 L 1.1875 -4.75 L 1.203125 -4.6875 C 1.203125 -4.644531 1.21875 -4.617188 1.25 -4.609375 C 1.257812 -4.617188 1.320312 -4.617188 1.4375 -4.609375 C 1.550781 -4.609375 1.71875 -4.609375 1.9375 -4.609375 C 2.164062 -4.609375 2.351562 -4.609375 2.5 -4.609375 C 2.644531 -4.609375 2.757812 -4.613281 2.84375 -4.625 C 2.976562 -4.644531 3.113281 -4.664062 3.25 -4.6875 C 3.382812 -4.707031 3.519531 -4.726562 3.65625 -4.75 Z M 3.65625 -4.75 "/></g></g></g><g fill="#0a0a0a" fill-opacity="1"><g transform="translate(56.146663, 26.826626)"><g><path d="M 0.796875 -4.78125 C 0.867188 -4.789062 0.925781 -4.796875 0.96875 -4.796875 C 1.007812 -4.804688 1.035156 -4.8125 1.046875 -4.8125 C 1.066406 -4.800781 1.078125 -4.765625 1.078125 -4.703125 C 1.097656 -4.640625 1.109375 -4.601562 1.109375 -4.59375 C 1.128906 -4.59375 1.195312 -4.601562 1.3125 -4.625 C 1.445312 -4.65625 1.578125 -4.675781 1.703125 -4.6875 C 1.828125 -4.695312 1.9375 -4.703125 2.03125 -4.703125 C 2.21875 -4.703125 2.351562 -4.691406 2.4375 -4.671875 C 3.039062 -4.578125 3.429688 -4.335938 3.609375 -3.953125 C 3.679688 -3.796875 3.710938 -3.613281 3.703125 -3.40625 C 3.703125 -3.195312 3.65625 -3.015625 3.5625 -2.859375 C 3.476562 -2.703125 3.367188 -2.566406 3.234375 -2.453125 C 3.097656 -2.347656 2.941406 -2.257812 2.765625 -2.1875 C 2.585938 -2.125 2.410156 -2.070312 2.234375 -2.03125 C 2.066406 -2 1.945312 -1.984375 1.875 -1.984375 C 1.84375 -1.984375 1.828125 -1.976562 1.828125 -1.96875 C 1.828125 -1.96875 1.859375 -1.941406 1.921875 -1.890625 C 1.984375 -1.835938 2.078125 -1.757812 2.203125 -1.65625 C 2.335938 -1.550781 2.457031 -1.457031 2.5625 -1.375 C 2.675781 -1.289062 2.785156 -1.210938 2.890625 -1.140625 C 3.097656 -0.992188 3.285156 -0.867188 3.453125 -0.765625 C 3.628906 -0.660156 3.789062 -0.570312 3.9375 -0.5 L 4.03125 -0.46875 L 3.859375 -0.25 C 3.847656 -0.21875 3.828125 -0.179688 3.796875 -0.140625 C 3.765625 -0.0976562 3.734375 -0.0546875 3.703125 -0.015625 C 3.671875 0.0234375 3.640625 0.0625 3.609375 0.09375 C 3.578125 0.132812 3.554688 0.164062 3.546875 0.1875 L 3.390625 0.390625 L 3.359375 0.375 C 3.203125 0.269531 3.035156 0.148438 2.859375 0.015625 C 2.691406 -0.117188 2.519531 -0.257812 2.34375 -0.40625 C 2.164062 -0.5625 2 -0.71875 1.84375 -0.875 C 1.6875 -1.03125 1.550781 -1.175781 1.4375 -1.3125 C 1.34375 -1.40625 1.296875 -1.453125 1.296875 -1.453125 C 1.296875 -1.441406 1.289062 -1.410156 1.28125 -1.359375 C 1.28125 -1.316406 1.28125 -1.25 1.28125 -1.15625 C 1.28125 -1.132812 1.273438 -1.078125 1.265625 -0.984375 C 1.265625 -0.898438 1.257812 -0.800781 1.25 -0.6875 C 1.238281 -0.570312 1.226562 -0.445312 1.21875 -0.3125 C 1.207031 -0.1875 1.195312 -0.0703125 1.1875 0.03125 C 1.1875 0.132812 1.179688 0.222656 1.171875 0.296875 C 1.160156 0.367188 1.148438 0.410156 1.140625 0.421875 C 1.128906 0.421875 1.09375 0.410156 1.03125 0.390625 C 0.96875 0.367188 0.894531 0.34375 0.8125 0.3125 C 0.726562 0.289062 0.648438 0.265625 0.578125 0.234375 C 0.515625 0.210938 0.472656 0.195312 0.453125 0.1875 C 0.378906 0.164062 0.332031 0.148438 0.3125 0.140625 C 0.3125 0.128906 0.328125 0.00390625 0.359375 -0.234375 C 0.421875 -0.628906 0.472656 -1.003906 0.515625 -1.359375 C 0.554688 -1.722656 0.585938 -2.078125 0.609375 -2.421875 C 0.648438 -2.847656 0.664062 -3.238281 0.65625 -3.59375 C 0.65625 -3.945312 0.632812 -4.269531 0.59375 -4.5625 C 0.59375 -4.613281 0.585938 -4.65625 0.578125 -4.6875 C 0.578125 -4.726562 0.578125 -4.75 0.578125 -4.75 C 0.578125 -4.757812 0.648438 -4.769531 0.796875 -4.78125 Z M 2.1875 -4.03125 C 2.050781 -4.03125 1.914062 -4.015625 1.78125 -3.984375 C 1.65625 -3.953125 1.53125 -3.914062 1.40625 -3.875 C 1.300781 -3.84375 1.242188 -3.828125 1.234375 -3.828125 C 1.222656 -3.828125 1.226562 -3.71875 1.25 -3.5 C 1.257812 -3.414062 1.265625 -3.328125 1.265625 -3.234375 C 1.265625 -3.140625 1.269531 -3.039062 1.28125 -2.9375 L 1.28125 -2.671875 L 1.484375 -2.671875 C 1.585938 -2.671875 1.71875 -2.679688 1.875 -2.703125 C 2.039062 -2.722656 2.203125 -2.753906 2.359375 -2.796875 C 2.515625 -2.847656 2.65625 -2.910156 2.78125 -2.984375 C 2.914062 -3.054688 3.015625 -3.144531 3.078125 -3.25 C 3.109375 -3.320312 3.109375 -3.40625 3.078125 -3.5 C 3.054688 -3.601562 3.015625 -3.6875 2.953125 -3.75 C 2.890625 -3.8125 2.816406 -3.863281 2.734375 -3.90625 C 2.648438 -3.945312 2.5625 -3.976562 2.46875 -4 C 2.375 -4.019531 2.28125 -4.03125 2.1875 -4.03125 Z M 2.1875 -4.03125 "/></g></g></g><g fill="#0a0a0a" fill-opacity="1"><g transform="translate(61.317494, 26.826626)"><g><path d="M 1.921875 -4.765625 L 2.078125 -4.765625 C 2.316406 -4.765625 2.554688 -4.742188 2.796875 -4.703125 C 3.046875 -4.660156 3.285156 -4.601562 3.515625 -4.53125 C 3.671875 -4.488281 3.75 -4.460938 3.75 -4.453125 C 3.75 -4.429688 3.742188 -4.382812 3.734375 -4.3125 C 3.722656 -4.25 3.707031 -4.175781 3.6875 -4.09375 C 3.675781 -4.019531 3.664062 -3.945312 3.65625 -3.875 C 3.644531 -3.8125 3.632812 -3.765625 3.625 -3.734375 C 3.601562 -3.679688 3.59375 -3.65625 3.59375 -3.65625 C 3.582031 -3.65625 3.523438 -3.679688 3.421875 -3.734375 C 3.242188 -3.816406 3.066406 -3.882812 2.890625 -3.9375 C 2.722656 -4 2.5625 -4.050781 2.40625 -4.09375 C 2.332031 -4.101562 2.253906 -4.109375 2.171875 -4.109375 C 2.097656 -4.117188 2.019531 -4.125 1.9375 -4.125 C 1.757812 -4.125 1.644531 -4.117188 1.59375 -4.109375 C 1.425781 -4.054688 1.300781 -3.972656 1.21875 -3.859375 C 1.132812 -3.742188 1.109375 -3.613281 1.140625 -3.46875 C 1.160156 -3.375 1.207031 -3.28125 1.28125 -3.1875 C 1.320312 -3.15625 1.359375 -3.125 1.390625 -3.09375 C 1.421875 -3.0625 1.460938 -3.03125 1.515625 -3 C 1.566406 -2.96875 1.632812 -2.9375 1.71875 -2.90625 C 1.800781 -2.875 1.910156 -2.832031 2.046875 -2.78125 C 2.398438 -2.625 2.695312 -2.484375 2.9375 -2.359375 C 3.1875 -2.234375 3.375 -2.117188 3.5 -2.015625 C 3.738281 -1.828125 3.894531 -1.578125 3.96875 -1.265625 C 3.976562 -1.222656 3.984375 -1.171875 3.984375 -1.109375 C 3.992188 -1.054688 4 -1.003906 4 -0.953125 C 4 -0.898438 4 -0.847656 4 -0.796875 C 4 -0.742188 3.992188 -0.703125 3.984375 -0.671875 C 3.941406 -0.523438 3.875 -0.390625 3.78125 -0.265625 C 3.6875 -0.148438 3.578125 -0.0507812 3.453125 0.03125 C 3.328125 0.125 3.191406 0.203125 3.046875 0.265625 C 2.898438 0.328125 2.753906 0.367188 2.609375 0.390625 C 2.523438 0.410156 2.378906 0.421875 2.171875 0.421875 C 2.078125 0.421875 1.992188 0.421875 1.921875 0.421875 C 1.847656 0.421875 1.78125 0.414062 1.71875 0.40625 C 1.570312 0.382812 1.421875 0.347656 1.265625 0.296875 C 1.109375 0.253906 0.953125 0.203125 0.796875 0.140625 C 0.441406 0.0234375 0.25 -0.0507812 0.21875 -0.09375 C 0.21875 -0.101562 0.265625 -0.289062 0.359375 -0.65625 C 0.453125 -1.007812 0.503906 -1.191406 0.515625 -1.203125 C 0.515625 -1.203125 0.535156 -1.191406 0.578125 -1.171875 C 0.703125 -1.054688 0.867188 -0.941406 1.078125 -0.828125 C 1.410156 -0.617188 1.738281 -0.476562 2.0625 -0.40625 C 2.15625 -0.382812 2.269531 -0.375 2.40625 -0.375 C 2.476562 -0.375 2.554688 -0.378906 2.640625 -0.390625 C 2.734375 -0.398438 2.816406 -0.414062 2.890625 -0.4375 C 2.960938 -0.46875 3.03125 -0.507812 3.09375 -0.5625 C 3.164062 -0.613281 3.21875 -0.675781 3.25 -0.75 C 3.269531 -0.8125 3.28125 -0.878906 3.28125 -0.953125 C 3.269531 -1.035156 3.242188 -1.113281 3.203125 -1.1875 C 3.171875 -1.269531 3.125 -1.34375 3.0625 -1.40625 C 3 -1.46875 2.929688 -1.523438 2.859375 -1.578125 C 2.785156 -1.640625 2.71875 -1.6875 2.65625 -1.71875 C 2.601562 -1.75 2.519531 -1.789062 2.40625 -1.84375 C 2.289062 -1.894531 2.140625 -1.960938 1.953125 -2.046875 C 1.742188 -2.140625 1.554688 -2.222656 1.390625 -2.296875 C 1.234375 -2.378906 1.097656 -2.460938 0.984375 -2.546875 C 0.859375 -2.628906 0.753906 -2.722656 0.671875 -2.828125 C 0.585938 -2.929688 0.523438 -3.050781 0.484375 -3.1875 C 0.441406 -3.351562 0.425781 -3.519531 0.4375 -3.6875 C 0.445312 -3.863281 0.488281 -4.015625 0.5625 -4.140625 C 0.800781 -4.535156 1.253906 -4.742188 1.921875 -4.765625 Z M 1.921875 -4.765625 "/></g></g></g></svg>